<?xml version="1.0" encoding="utf-8"?>
<!-- Generator: Adobe Illustrator 23.0.4, SVG Export Plug-In . SVG Version: 6.00 Build 0)  -->
<svg version="1.1" id="Layer_1" xmlns="http://www.w3.org/2000/svg" xmlns:xlink="http://www.w3.org/1999/xlink" x="0px" y="0px"
	 viewBox="0 0 267 1042" style="enable-background:new 0 0 267 1042;" xml:space="preserve">
<style type="text/css">
	.st0{fill:none;stroke:#FBFCFD;stroke-width:0.5;stroke-linecap:round;stroke-miterlimit:10;}
	.st1{fill:none;stroke:#FBFCFD;stroke-width:0.5;stroke-linecap:round;stroke-miterlimit:10;stroke-dasharray:7.9605,7.9605;}
	.st2{opacity:0.72;}
	.st3{fill:#FBFCFD;}
</style>
<g>
	<g>
		<path class="st1" d="M244.03,5.56C254.58,51.51,280.44,225.38,111,363c-197,160-45,502,0,560l69.31,112.69"/>
		<line class="st0" x1="182.4" y1="1039.09" x2="184.5" y2="1042.5"/>
	</g>
</g>
<g class="st2">
	<path class="st3" d="M210.14,285.53c-0.03-0.33-2.15-5.51-4.27-10.6l1.3-1.85c0.44-0.63,0.29-1.5-0.34-1.94
		c-0.63-0.44-1.5-0.29-1.94,0.34l-0.29,0.41c-1.6-3.84-2.63-6.79-2.63-6.79s3.24-4.18,6.43-8.59c3.19-4.41-1.75-7.88-4.82-3.39
		c-3.07,4.49-5.91,8.96-5.91,8.96s-3.12,0.03-7.28-0.18l0.29-0.41c0.44-0.63,0.29-1.5-0.34-1.94c-0.63-0.44-1.5-0.29-1.94,0.34
		l-1.3,1.85c-5.51-0.27-11.1-0.51-11.42-0.43c-0.64,0.16-2.92,1.71-2.79,2.06c0.06,0.17,3.84,0.86,7.81,1.59l-0.29,0.42
		c-0.08,0.11-0.05,0.27,0.06,0.35c0.11,0.08,0.27,0.05,0.35-0.06l0.43-0.61c0.37,0.07,0.74,0.14,1.11,0.21l-0.18,0.25
		c-0.08,0.11-0.05,0.27,0.06,0.35c0.11,0.08,0.27,0.05,0.35-0.06l0.31-0.44c0.75,0.14,1.47,0.28,2.16,0.41l-0.31,0.44
		c-0.08,0.11-0.05,0.27,0.06,0.35c0.11,0.08,0.27,0.05,0.35-0.06l0.43-0.62c0.74,0.15,1.42,0.29,2.01,0.42l-0.27,0.39
		c-0.08,0.11-0.05,0.27,0.06,0.35c0.11,0.08,0.27,0.05,0.35-0.06l0.39-0.56c0.84,0.19,1.41,0.36,1.57,0.47
		c0.94,0.66,3.13,2.21,3.13,2.21s-5.02,7.56-6,9.58c-0.37,0.75-0.86,1.88-1.31,3.02c-2.08-0.09-5.24-0.21-5.84-0.17
		c-0.91,0.06-1.64,0.1-1.88,0.4c-0.24,0.3-0.89,0.8-0.55,0.95c0.28,0.12,5.34,1.63,7.11,2.16c-0.09,0.35-0.11,0.58-0.04,0.63
		c0.07,0.05,0.28-0.05,0.58-0.25c1.09,1.49,4.23,5.75,4.43,5.97c0.25,0.26,0.51-0.52,0.71-0.84c0.2-0.33-0.01-1.03-0.26-1.91
		c-0.17-0.58-1.35-3.52-2.14-5.44c0.91-0.81,1.81-1.65,2.4-2.25c1.57-1.61,6.99-8.89,6.99-8.89s2.2,1.55,3.13,2.21
		c0.16,0.11,0.5,0.59,0.97,1.32l-0.39,0.56c-0.08,0.11-0.05,0.27,0.06,0.35c0.11,0.08,0.27,0.05,0.35-0.06l0.27-0.39
		c0.32,0.51,0.68,1.1,1.07,1.75l-0.43,0.62c-0.08,0.11-0.05,0.27,0.06,0.35c0.11,0.08,0.27,0.05,0.35-0.06l0.31-0.44
		c0.36,0.6,0.73,1.24,1.12,1.89l-0.31,0.44c-0.08,0.11-0.05,0.27,0.06,0.35c0.11,0.08,0.27,0.05,0.35-0.06l0.17-0.25
		c0.19,0.32,0.38,0.65,0.57,0.98l-0.43,0.61c-0.08,0.11-0.05,0.27,0.06,0.35c0.11,0.08,0.27,0.05,0.35-0.06l0.29-0.42
		c2.03,3.48,3.95,6.81,4.13,6.81C209.52,288.86,210.2,286.19,210.14,285.53z"/>
	
		<rect id="XMLID_152_" x="164.67" y="279.57" transform="matrix(0.5752 -0.818 0.818 0.5752 -154.438 262.3854)" class="st3" width="21.48" height="0.65"/>
	
		<rect id="XMLID_151_" x="169.99" y="275.12" transform="matrix(0.5754 -0.8178 0.8178 0.5754 -150.8182 260.3639)" class="st3" width="10.74" height="0.65"/>
	
		<rect id="XMLID_150_" x="180.21" y="272.82" transform="matrix(0.5748 -0.8183 0.8183 0.5748 -145.7486 265.7903)" class="st3" width="5.37" height="0.65"/>
	
		<rect id="XMLID_149_" x="183.07" y="288.92" transform="matrix(0.5752 -0.818 0.818 0.5752 -154.2718 281.4077)" class="st3" width="21.48" height="0.65"/>
	
		<rect id="XMLID_148_" x="192.01" y="287.74" transform="matrix(0.5752 -0.818 0.818 0.5752 -151.7896 283.8249)" class="st3" width="10.74" height="0.65"/>
	
		<rect id="XMLID_147_" x="198.3" y="287.56" transform="matrix(0.5753 -0.8179 0.8179 0.5753 -150.4661 285.9744)" class="st3" width="3.73" height="0.65"/>
	
		<rect id="XMLID_146_" x="182.94" y="302.01" transform="matrix(0.5755 -0.8178 0.8178 0.5755 -168.8885 279.3031)" class="st3" width="3.31" height="0.65"/>
</g>
</svg>
