<?xml version="1.0" encoding="utf-8"?>
<!-- Generator: Adobe Illustrator 23.0.6, SVG Export Plug-In . SVG Version: 6.00 Build 0)  -->
<svg version="1.1" id="Layer_1" xmlns="http://www.w3.org/2000/svg" xmlns:xlink="http://www.w3.org/1999/xlink" x="0px" y="0px"
	 viewBox="0 0 51.9 52" style="enable-background:new 0 0 51.9 52;" xml:space="preserve">
<g id="Aircraft_Type">
	<g>
		<path d="M21,39.9v-4.5c0-0.2,0-0.3,0.2-0.5c0.1-0.2,0.2-0.2,0.4-0.3l3.7-0.5l0.2-0.3c0.2-0.5,0.4-1,0.7-1.6
			c-0.5-0.8-1.3-1.7-2.2-2.8c-0.1-0.2-0.2-0.3-0.2-0.5c0-0.1,0.1-0.3,0.2-0.5c0.4-0.5,1-1.2,2-2.2c1-1,1.6-1.4,1.9-1.4
			c0.2,0,0.4,0.1,0.5,0.2l2,1.5l0.4-0.6l2.3,0.1c0.2-1.6,0.4-2.7,0.5-3.3c0.1-0.4,0.3-0.6,0.7-0.6h4.5c0.2,0,0.3,0.1,0.5,0.2
			c0.1,0.1,0.2,0.3,0.2,0.4l0.5,3c0.4-0.1,0.9-0.3,1.3-0.5c1.5-0.7,2.3-1.6,2.5-2.7c0-1.1-0.8-2.1-2.3-2.9c-1.5-0.8-3.1-1.2-4.8-1.3
			l-5.5-0.2L22.8,3.7c-0.1-0.3-0.3-0.4-0.6-0.4l-4.4-0.2c-0.3,0-0.5,0.1-0.6,0.3c-0.2,0.2-0.2,0.5-0.1,0.7l3.5,13.8l-9-0.3l-2.3-4.4
			c0,0-0.1-0.1-0.1-0.2c-0.2-0.2-0.3-0.3-0.6-0.3l-3.3-0.1c-0.3,0-0.5,0.1-0.6,0.3c-0.2,0.2-0.2,0.4-0.2,0.6l0.8,7.7l-1.4,7.6
			c0,0.2,0,0.5,0.2,0.6l0,0c0.2,0.2,0.3,0.3,0.5,0.3l3.3,0.1c0.3,0,0.5-0.1,0.7-0.4l2.6-4.2l9,0.3l-4.5,13.5
			c-0.1,0.2-0.1,0.4,0.1,0.6c0,0,0.1,0.1,0.1,0.1c0.1,0.1,0.3,0.2,0.4,0.2l3.9,0.7c0.4,0,0.6-0.1,0.8-0.3l0.2-0.3
			C21.1,40.2,21,40,21,39.9z"/>
		<g>
			<g>
				<path d="M47.5,36.2v3.2c0,0.1,0,0.2-0.1,0.3s-0.2,0.2-0.3,0.2l-2.6,0.4c-0.2,0.5-0.4,1-0.6,1.3c0.3,0.5,0.8,1.1,1.5,2
					c0.1,0.1,0.1,0.2,0.1,0.4c0,0.1,0,0.2-0.1,0.3c-0.3,0.3-0.7,0.9-1.4,1.5c-0.7,0.7-1.1,1-1.3,1c-0.1,0-0.2,0-0.4-0.1l-2-1.5
					c-0.4,0.2-0.8,0.4-1.3,0.5c-0.2,1.3-0.3,2.2-0.4,2.7c-0.1,0.3-0.2,0.4-0.5,0.4H35c-0.1,0-0.3,0-0.3-0.1
					c-0.1-0.1-0.2-0.2-0.2-0.3L34,45.7c-0.5-0.2-0.9-0.3-1.3-0.5l-2,1.5c-0.1,0.1-0.2,0.1-0.4,0.1c-0.1,0-0.3,0-0.4-0.2
					c-1.2-1.1-2-1.9-2.4-2.4c-0.1-0.1-0.1-0.2-0.1-0.3c0-0.1,0-0.2,0.1-0.3c0.1-0.2,0.4-0.5,0.7-1s0.6-0.8,0.8-1
					c-0.3-0.5-0.5-1-0.6-1.4L26,39.8c-0.1,0-0.2-0.1-0.3-0.2s-0.1-0.2-0.1-0.3v-3.2c0-0.1,0-0.2,0.1-0.3c0.1-0.1,0.2-0.2,0.3-0.2
					l2.6-0.4c0.1-0.4,0.3-0.9,0.6-1.3c-0.4-0.5-0.9-1.2-1.5-2c-0.1-0.1-0.1-0.2-0.1-0.3c0-0.1,0-0.2,0.1-0.3
					c0.3-0.3,0.7-0.9,1.4-1.5s1.1-1,1.4-1c0.1,0,0.3,0,0.4,0.1l2,1.5c0.4-0.2,0.8-0.4,1.3-0.5c0.2-1.3,0.3-2.2,0.4-2.6
					c0.1-0.3,0.2-0.4,0.5-0.4h3.2c0.1,0,0.3,0,0.3,0.1s0.2,0.2,0.2,0.3l0.4,2.6c0.5,0.1,0.9,0.3,1.3,0.5l2-1.5
					c0.1-0.1,0.2-0.1,0.3-0.1c0.1,0,0.2,0,0.4,0.1c1.2,1.1,2,1.9,2.3,2.4c0.1,0.1,0.1,0.2,0.1,0.3c0,0.1,0,0.2-0.1,0.3
					c-0.1,0.2-0.4,0.5-0.7,0.9s-0.6,0.8-0.8,1c0.3,0.5,0.4,0.9,0.6,1.4l2.6,0.4c0.1,0,0.2,0.1,0.3,0.2C47.5,36,47.5,36.1,47.5,36.2z
					 M39.1,40.3c0.7-0.7,1.1-1.6,1.1-2.6c0-1-0.4-1.9-1.1-2.6c-0.7-0.7-1.6-1.1-2.6-1.1s-1.9,0.4-2.6,1.1c-0.7,0.7-1.1,1.6-1.1,2.6
					c0,1,0.4,1.9,1.1,2.6c0.7,0.7,1.6,1.1,2.6,1.1C37.5,41.4,38.4,41,39.1,40.3z"/>
			</g>
		</g>
	</g>
</g>
</svg>
