<?xml version="1.0" encoding="utf-8"?>
<!-- Generator: Adobe Illustrator 23.0.6, SVG Export Plug-In . SVG Version: 6.00 Build 0)  -->
<svg version="1.1" id="Layer_1" xmlns="http://www.w3.org/2000/svg" xmlns:xlink="http://www.w3.org/1999/xlink" x="0px" y="0px"
	 viewBox="0 0 51.9 52" style="enable-background:new 0 0 51.9 52;" xml:space="preserve">
<g>
	<path d="M48,22.7c-0.2-0.2-0.4-0.3-0.6-0.4l-5.3-0.8c-0.3-0.9-0.7-1.9-1.2-2.8c0.3-0.5,0.9-1.2,1.6-2c0.7-0.9,1.2-1.5,1.5-1.9
		c0.2-0.2,0.2-0.4,0.2-0.7c0-0.3-0.1-0.5-0.2-0.6c-0.7-1-2.3-2.6-4.8-4.9c-0.2-0.2-0.5-0.3-0.7-0.3c-0.3,0-0.5,0.1-0.7,0.3l-4.1,3.1
		c-0.8-0.4-1.7-0.8-2.6-1.1l-0.8-5.3c0-0.3-0.1-0.5-0.3-0.6c-0.2-0.2-0.4-0.3-0.7-0.3H27V4.2C26.3,4,25.7,4,25,4
		c-3.1,0-5.7,1.1-7.9,3.3c-2.2,2.2-3.3,4.8-3.3,7.9c0,3.1,1.1,5.7,3.3,7.9c0.3,0.3,0.6,0.6,0.9,0.8h5v-6.4c0-0.4,0.1-0.8,0.4-1
		c0.3-0.3,0.6-0.4,1-0.4h2.9c0.4,0,0.8,0.1,1,0.4c0.3,0.3,0.4,0.6,0.4,1v6.4h6.4c0.4,0,0.8,0.1,1,0.4c0.3,0.3,0.4,0.6,0.4,1v2.9
		c0,0.4-0.1,0.8-0.4,1c-0.3,0.3-0.6,0.4-1,0.4h-6.4v6.4c0,0.4-0.1,0.8-0.4,1c-0.3,0.3-0.6,0.4-1,0.4h-2.9c-0.4,0-0.8-0.1-1-0.4
		c-0.3-0.3-0.4-0.6-0.4-1v-6.4h-6.4c-0.4,0-0.8-0.1-1-0.4c-0.3-0.3-0.4-0.6-0.4-1v-2.9c0-0.2,0-0.4,0.1-0.6
		c-0.3-0.2-0.6-0.3-0.7-0.3c-1.2,0-2.3,0.2-3.2,0.6c-1,0.4-1.8,0.9-2.5,1.6c-0.7,0.6-1.3,1.4-1.8,2.4c-0.5,0.9-0.9,1.9-1.2,2.8
		c-0.3,1-0.6,2-0.8,3.1S4.7,37.1,4.6,38c-0.1,1-0.1,2-0.1,3c0,2.3,0.7,4.2,2.1,5.5s3.3,2,5.6,2h14v0.3h2.9c0.6,0,0.9-0.3,1-0.8
		c0.3-1,0.5-2.8,0.8-5.4c0.9-0.3,1.8-0.7,2.6-1.1l4,3.1c0.3,0.2,0.5,0.3,0.8,0.3c0.4,0,1.3-0.7,2.7-2.1c1.4-1.4,2.4-2.4,2.9-3.1
		c0.2-0.2,0.3-0.4,0.3-0.7s-0.1-0.5-0.3-0.7c-1.4-1.7-2.4-3-3.1-4c0.4-0.7,0.8-1.6,1.1-2.6l5.4-0.8c0.2,0,0.4-0.2,0.6-0.4
		c0.2-0.2,0.2-0.4,0.2-0.7v-6.4C48.2,23.2,48.2,22.9,48,22.7z"/>
</g>
</svg>
