<?xml version="1.0" encoding="utf-8"?>
<!-- Generator: Adobe Illustrator 23.0.6, SVG Export Plug-In . SVG Version: 6.00 Build 0)  -->
<svg version="1.1" id="Layer_1" xmlns="http://www.w3.org/2000/svg" xmlns:xlink="http://www.w3.org/1999/xlink" x="0px" y="0px"
	 viewBox="0 0 51.9 52" style="enable-background:new 0 0 51.9 52;" xml:space="preserve">
<style type="text/css">
	.st0{enable-background:new    ;}
</style>
<g id="Aircraft_Type_copy">
	<g>
		<path d="M49.7,40.8v4.5H4.3v-39h4.4v34.5H49.7z"/>
	</g>
	<g class="st0">
		<path d="M36.4,18.8v15.8c0,0.5-0.2,0.9-0.5,1.2s-0.7,0.5-1.2,0.5H15.5c-0.5,0-0.9-0.2-1.2-0.5s-0.5-0.7-0.5-1.2V10.9
			c0-0.5,0.2-0.9,0.5-1.2s0.7-0.5,1.2-0.5h11.3c0.5,0,1,0.1,1.6,0.4c0.6,0.2,1,0.5,1.3,0.8l5.5,5.5c0.3,0.3,0.6,0.8,0.8,1.3
			C36.3,17.8,36.4,18.3,36.4,18.8z M16.1,34.1h18.1V20.5h-7.3c-0.5,0-0.9-0.2-1.2-0.5c-0.3-0.3-0.5-0.7-0.5-1.2v-7.3h-9v22.6H16.1z
			 M31.9,23.3v1.1c0,0.2-0.1,0.3-0.2,0.4c0,0.2-0.2,0.2-0.3,0.2H18.9c-0.2,0-0.3-0.1-0.4-0.2s-0.2-0.2-0.2-0.4v-1.1
			c0-0.2,0.1-0.3,0.2-0.4s0.2-0.2,0.4-0.2h12.4c0.2,0,0.3,0.1,0.4,0.2C31.9,23,31.9,23.2,31.9,23.3z M31.9,27.8V29
			c0,0.2-0.1,0.3-0.2,0.4s-0.2,0.2-0.4,0.2H18.9c-0.2,0-0.3-0.1-0.4-0.2s-0.2-0.2-0.2-0.4v-1.1c0-0.2,0.1-0.3,0.2-0.4
			s0.2-0.2,0.4-0.2h12.4c0.2,0,0.3,0.1,0.4,0.2C31.9,27.5,31.9,27.7,31.9,27.8z M27.4,18.2H34c-0.1-0.3-0.2-0.6-0.4-0.7L28.1,12
			c-0.1-0.1-0.4-0.3-0.7-0.4V18.2z"/>
	</g>
</g>
<g id="Layer_9">
</g>
</svg>
