<?xml version="1.0" encoding="utf-8"?>
<!-- Generator: Adobe Illustrator 23.0.6, SVG Export Plug-In . SVG Version: 6.00 Build 0)  -->
<svg version="1.1" id="Layer_1" xmlns="http://www.w3.org/2000/svg" xmlns:xlink="http://www.w3.org/1999/xlink" x="0px" y="0px"
	 viewBox="0 0 51.9 52" style="enable-background:new 0 0 51.9 52;" xml:space="preserve">
<style type="text/css">
	.st0{enable-background:new    ;}
</style>
<g id="Layer_4_copy_8">
	<path d="M48,22.7c-0.2-0.2-0.4-0.3-0.6-0.4l-5.3-0.8c-0.3-0.9-0.7-1.9-1.2-2.8c0.3-0.5,0.9-1.2,1.6-2c0.7-0.9,1.2-1.5,1.5-1.9
		c0.2-0.2,0.2-0.4,0.2-0.7c0-0.3-0.1-0.5-0.2-0.6c-0.7-1-2.3-2.6-4.8-4.9c-0.2-0.2-0.5-0.3-0.7-0.3c-0.3,0-0.5,0.1-0.7,0.3l-4.1,3.1
		c-0.8-0.4-1.7-0.8-2.6-1.1l-0.8-5.3c0-0.3-0.1-0.5-0.3-0.6s-0.4-0.3-0.7-0.3h-2.9v14.9c1.9,0.1,3.5,0.8,4.9,2.2
		c1.5,1.5,2.2,3.2,2.2,5.3s-0.7,3.8-2.2,5.3c-1.4,1.4-3,2.1-4.9,2.2v14.9h2.9c0.6,0,0.9-0.3,1-0.8c0.3-1,0.5-2.8,0.8-5.4
		c0.9-0.3,1.8-0.7,2.6-1.1l4,3.1c0.3,0.2,0.5,0.3,0.8,0.3c0.4,0,1.3-0.7,2.7-2.1s2.3-2.4,2.9-3.1c0.2-0.2,0.3-0.4,0.3-0.7
		s-0.1-0.5-0.3-0.7c-1.4-1.7-2.4-3-3.1-4c0.4-0.7,0.8-1.6,1.1-2.6l5.4-0.8c0.2,0,0.4-0.2,0.6-0.4c0.2-0.2,0.2-0.4,0.2-0.7v-6.4
		C48.2,23.2,48.2,22.9,48,22.7z"/>
	<g class="st0">
		<path d="M25.4,31.4c0,2.1-0.7,3.9-2,5.4c-1.4,1.5-3.1,2.5-5.3,2.8v3.6c0,0.2-0.1,0.3-0.2,0.5c-0.1,0.1-0.3,0.2-0.5,0.2h-2.8
			c-0.2,0-0.3-0.1-0.5-0.2c-0.1-0.1-0.2-0.3-0.2-0.5v-3.6c-0.9-0.1-1.8-0.3-2.6-0.6s-1.5-0.6-2.1-0.9c-0.5-0.3-1.1-0.6-1.5-1
			c-0.5-0.3-0.8-0.6-1-0.8S6.5,36.1,6.4,36c-0.2-0.3-0.2-0.6,0-0.8l2.1-2.8c0.1-0.1,0.3-0.2,0.5-0.2c0.2,0,0.4,0,0.5,0.2l0,0
			c1.6,1.4,3.2,2.2,5,2.6c0.5,0.1,1,0.2,1.5,0.2c1.1,0,2.1-0.3,2.9-0.9c0.8-0.6,1.3-1.4,1.3-2.5c0-0.4-0.1-0.7-0.3-1.1
			c-0.2-0.3-0.4-0.6-0.7-0.9S18.6,29.2,18,29c-0.5-0.3-1-0.5-1.4-0.7c-0.4-0.2-0.9-0.4-1.6-0.7c-0.5-0.2-1-0.4-1.3-0.5
			c-0.3-0.1-0.7-0.3-1.3-0.5c-0.5-0.2-1-0.5-1.3-0.6s-0.7-0.4-1.2-0.7S9.2,24.6,9,24.3s-0.6-0.6-0.9-1c-0.3-0.4-0.6-0.8-0.7-1.2
			c-0.2-0.4-0.3-0.9-0.4-1.4c-0.1-0.5-0.2-1-0.2-1.6c0-1.9,0.7-3.6,2-5c1.3-1.4,3.1-2.3,5.2-2.8V7.7c0-0.2,0.1-0.3,0.2-0.5
			c0.1-0.1,0.3-0.2,0.5-0.2h2.8c0.2,0,0.4,0.1,0.5,0.2c0.1,0.1,0.2,0.3,0.2,0.5v3.6c0.8,0.1,1.5,0.2,2.3,0.5
			c0.7,0.2,1.3,0.5,1.8,0.7s0.9,0.5,1.3,0.8c0.4,0.3,0.7,0.5,0.8,0.6c0.1,0.1,0.2,0.2,0.3,0.3c0.2,0.2,0.3,0.5,0.1,0.8l-1.7,3
			c-0.1,0.2-0.3,0.3-0.5,0.3c-0.2,0-0.4,0-0.6-0.1c0,0-0.1-0.1-0.3-0.2c-0.2-0.1-0.4-0.3-0.8-0.5s-0.8-0.5-1.2-0.7s-0.9-0.4-1.5-0.5
			c-0.6-0.2-1.2-0.2-1.8-0.2c-1.3,0-2.4,0.3-3.2,0.9s-1.2,1.4-1.2,2.3c0,0.4,0.1,0.7,0.2,1s0.3,0.6,0.6,0.9s0.6,0.5,0.8,0.7
			s0.6,0.4,1.2,0.6c0.5,0.2,0.9,0.4,1.2,0.6c0.3,0.1,0.8,0.3,1.4,0.6c0.7,0.3,1.3,0.5,1.7,0.6c0.4,0.2,0.9,0.4,1.6,0.7
			c0.7,0.3,1.2,0.6,1.6,0.9c0.4,0.3,0.8,0.6,1.3,1c0.5,0.4,0.8,0.9,1.1,1.3c0.3,0.4,0.5,1,0.6,1.6C25.4,30.1,25.4,30.8,25.4,31.4z"
			/>
	</g>
</g>
</svg>
