<?xml version="1.0" encoding="utf-8"?>
<!-- Generator: Adobe Illustrator 23.0.6, SVG Export Plug-In . SVG Version: 6.00 Build 0)  -->
<svg version="1.1" id="Layer_1" xmlns="http://www.w3.org/2000/svg" xmlns:xlink="http://www.w3.org/1999/xlink" x="0px" y="0px"
	 viewBox="0 0 51.9 52" style="enable-background:new 0 0 51.9 52;" xml:space="preserve">
<g>
	<path d="M45.7,14.5c-0.4-0.8-0.8-1.5-1.3-2l-8.3-8.2c-0.5-0.5-1.2-0.9-2-1.3c-0.9-0.3-1.6-0.5-2.3-0.5H7.8C7.1,2.5,6.5,2.7,6,3.2
		S5.3,4.3,5.3,5v42.1c0,0.7,0.3,1.3,0.8,1.8c0.5,0.5,1.1,0.7,1.8,0.7h35.8c0.7,0,1.3-0.3,1.8-0.7c0.5-0.5,0.8-1.1,0.8-1.8V16.8
		C46.2,16.1,46,15.3,45.7,14.5z M32.6,6.1c0.5,0.2,0.9,0.4,1.1,0.6l8.3,8.2c0.2,0.2,0.4,0.6,0.6,1.1h-10V6.1z M42.8,46.3H8.7V5.9
		h20.5v11c0,0.7,0.3,1.3,0.8,1.8c0.5,0.5,1.1,0.7,1.8,0.7h11.1V46.3z"/>
	<polygon points="25.1,28.3 19.3,28.3 19.3,21.1 23,21.1 23,11.9 14.5,11.9 14.5,21.1 17.3,21.1 17.3,44.4 19.3,44.4 19.3,41.1 
		25.1,41.1 25.1,44.8 33.7,44.8 33.7,35.7 25.1,35.7 25.1,39.1 19.3,39.1 19.3,30.3 25.1,30.3 25.1,33.7 33.7,33.7 33.7,24.5 
		25.1,24.5 	"/>
</g>
</svg>
