<?xml version="1.0" encoding="utf-8"?>
<!-- Generator: Adobe Illustrator 23.0.6, SVG Export Plug-In . SVG Version: 6.00 Build 0)  -->
<svg version="1.1" id="Layer_1" xmlns="http://www.w3.org/2000/svg" xmlns:xlink="http://www.w3.org/1999/xlink" x="0px" y="0px"
	 viewBox="0 0 51.9 52" style="enable-background:new 0 0 51.9 52;" xml:space="preserve">
<g>
	<g>
		<path d="M49.7,41.5v3.9H4.3v-39H9v35.2C9,41.5,49.7,41.5,49.7,41.5z"/>
	</g>
	<rect x="19.4" y="16.5" width="17.9" height="2.3"/>
	<rect x="19.4" y="20.7" width="17.9" height="2.3"/>
	<rect x="19.4" y="24.8" width="17.9" height="2.3"/>
	<rect x="19.4" y="29" width="17.9" height="2.3"/>
	<rect x="21.5" y="7.6" width="12" height="4.6"/>
	<ellipse cx="27.5" cy="8.2" rx="2.7" ry="2.5"/>
	<g>
		<path d="M37.4,8.8h-1.8v1.8h1.8c1.2,0,2.2,0.9,2.2,2.1v21.5c0,1.1-1,2.1-2.2,2.1H18.5c-1.2,0-2.2-0.9-2.2-2.1V12.7
			c0-1.1,1-2.1,2.2-2.1h0.7V8.8h-0.7c-2.3,0-4.1,1.8-4.1,3.9v21.6c0,2.2,1.9,3.9,4.1,3.9h18.9c2.3,0,4.1-1.8,4.1-3.9V12.7
			C41.5,10.6,39.7,8.8,37.4,8.8z"/>
		<path d="M37.4,38.7H18.5c-2.5,0-4.6-2-4.6-4.4V12.7c0-2.4,2.1-4.4,4.6-4.4h1.2v2.9h-1.2c-0.9,0-1.7,0.7-1.7,1.6v21.5
			c0,0.9,0.8,1.6,1.7,1.6h18.9c0.9,0,1.7-0.7,1.7-1.6V12.7c0-0.9-0.8-1.6-1.7-1.6h-2.3V8.3h2.3c2.5,0,4.6,2,4.6,4.4v21.5
			C42,36.7,40,38.7,37.4,38.7z M18.5,9.3c-2,0-3.6,1.5-3.6,3.4v21.5c0,1.9,1.6,3.4,3.6,3.4h18.9c2,0,3.6-1.5,3.6-3.4V12.7
			c0-1.9-1.6-3.4-3.6-3.4h-1.3v0.8h1.3c1.5,0,2.7,1.2,2.7,2.6v21.6c0,1.4-1.2,2.6-2.7,2.6H18.5c-1.5,0-2.7-1.2-2.7-2.6V12.7
			c0-1.4,1.2-2.6,2.7-2.6h0.2V9.3H18.5z"/>
	</g>
</g>
</svg>
