<?xml version="1.0" encoding="utf-8"?>
<!-- Generator: Adobe Illustrator 23.0.6, SVG Export Plug-In . SVG Version: 6.00 Build 0)  -->
<svg version="1.1" id="Layer_1" xmlns="http://www.w3.org/2000/svg" xmlns:xlink="http://www.w3.org/1999/xlink" x="0px" y="0px"
	 viewBox="0 0 51.9 52" style="enable-background:new 0 0 51.9 52;" xml:space="preserve">
<style type="text/css">
	.st0{enable-background:new    ;}
</style>
<g>
	<path d="M31.4,39.7H26c-0.6,0-1.1-0.2-1.5-0.6c-0.4-0.4-0.6-0.9-0.6-1.5v-3.8c-1.1-0.3-2.2-1-3.1-1.9c-1.5-1.5-2.2-3.2-2.2-5.3
		s0.7-3.8,2.2-5.3c1.5-1.5,3.2-2.2,5.3-2.2s3.8,0.7,5.3,2.2c0.7,0.7,1.2,1.4,1.5,2.2c0.2-0.1,0.5-0.1,0.8-0.1h4.3
		c0.6,0,1.1,0.2,1.5,0.6c0.4,0.4,0.6,0.9,0.6,1.5V31h6.8l0.6-0.1c0.2,0,0.4-0.2,0.6-0.4c0.2-0.2,0.2-0.4,0.2-0.7v-6.4
		c0-0.3-0.1-0.5-0.2-0.7c-0.2-0.2-0.4-0.3-0.6-0.4l-5.3-0.8c-0.3-0.9-0.7-1.9-1.2-2.8c0.3-0.5,0.9-1.2,1.6-2
		c0.7-0.9,1.2-1.5,1.5-1.9c0.2-0.2,0.2-0.4,0.2-0.7c0-0.3-0.1-0.5-0.2-0.6c-0.7-1-2.3-2.6-4.8-4.9c-0.2-0.2-0.5-0.3-0.7-0.3
		c-0.3,0-0.5,0.1-0.7,0.3l-4.1,3.1c-0.8-0.4-1.7-0.8-2.6-1.1l-0.8-5.3c0-0.3-0.1-0.5-0.3-0.6s-0.4-0.3-0.7-0.3h-6.4
		c-0.6,0-0.9,0.3-1,0.8c-0.3,1-0.5,2.8-0.8,5.4c-0.9,0.3-1.8,0.7-2.6,1.1l-4-3.1c-0.3-0.2-0.5-0.3-0.8-0.3c-0.4,0-1.3,0.7-2.7,2.1
		c-1.4,1.4-2.4,2.4-2.9,3.1c-0.2,0.3-0.3,0.5-0.3,0.7c0,0.2,0.1,0.5,0.3,0.7c1.3,1.6,2.3,2.9,3.1,4c-0.5,0.9-0.9,1.8-1.1,2.7
		l-5.4,0.8c-0.2,0-0.4,0.2-0.5,0.4c-0.2,0.2-0.2,0.4-0.2,0.7v6.4c0,0.3,0.1,0.5,0.2,0.7c0.2,0.2,0.4,0.3,0.6,0.4l5.3,0.8
		c0.3,1,0.7,1.9,1.2,2.9c-0.4,0.5-0.9,1.2-1.6,2S8.3,38,8,38.4c-0.2,0.2-0.2,0.4-0.2,0.7c0,0.3,0.1,0.5,0.2,0.7
		c0.8,1,2.4,2.7,4.8,4.9c0.2,0.2,0.5,0.3,0.7,0.3c0.3,0,0.5-0.1,0.7-0.3l4.1-3.1c0.8,0.4,1.7,0.8,2.6,1.1l0.8,5.3
		c0,0.3,0.1,0.5,0.3,0.6c0.2,0.2,0.4,0.3,0.7,0.3h6.4c0.6,0,0.9-0.3,1-0.8c0.3-1,0.5-2.8,0.8-5.4c0.1,0,0.2-0.1,0.3-0.1
		C31.4,42.6,31.4,39.7,31.4,39.7z"/>
</g>
<g>
	<g class="st0">
		<path d="M44.7,34v2.5c0,0.3-0.1,0.6-0.4,0.9c-0.2,0.2-0.5,0.4-0.9,0.4h-5.3v5.3c0,0.3-0.1,0.6-0.4,0.9c-0.2,0.2-0.5,0.4-0.9,0.4
			h-2.5c-0.3,0-0.6-0.1-0.9-0.4c-0.2-0.2-0.4-0.5-0.4-0.9v-5.3h-5.3c-0.3,0-0.6-0.1-0.9-0.4c-0.2-0.2-0.4-0.5-0.4-0.9V34
			c0-0.3,0.1-0.6,0.4-0.9c0.2-0.2,0.5-0.4,0.9-0.4h5.3v-5.3c0-0.3,0.1-0.6,0.4-0.9c0.2-0.2,0.5-0.4,0.9-0.4h2.5
			c0.3,0,0.6,0.1,0.9,0.4c0.2,0.2,0.4,0.5,0.4,0.9v5.3h5.3c0.3,0,0.6,0.1,0.9,0.4C44.6,33.4,44.7,33.7,44.7,34z"/>
	</g>
</g>
</svg>
