<?xml version="1.0" encoding="utf-8"?>
<!-- Generator: Adobe Illustrator 23.0.6, SVG Export Plug-In . SVG Version: 6.00 Build 0)  -->
<svg version="1.1" id="Layer_1" xmlns="http://www.w3.org/2000/svg" xmlns:xlink="http://www.w3.org/1999/xlink" x="0px" y="0px"
	 viewBox="0 0 51.9 52" style="enable-background:new 0 0 51.9 52;" xml:space="preserve">
<g>
	<path d="M48,22.7c-0.2-0.2-0.4-0.3-0.6-0.4l-5.3-0.8c-0.3-0.9-0.7-1.9-1.2-2.8c0.3-0.5,0.9-1.2,1.6-2c0.7-0.9,1.2-1.5,1.5-1.9
		c0.2-0.2,0.2-0.4,0.2-0.7c0-0.3-0.1-0.5-0.2-0.6c-0.7-1-2.3-2.6-4.8-4.9c-0.2-0.2-0.5-0.3-0.7-0.3c-0.3,0-0.5,0.1-0.7,0.3l-4.1,3.1
		c-0.8-0.4-1.7-0.8-2.6-1.1l-0.8-5.3c0-0.3-0.1-0.5-0.3-0.6c-0.2-0.2-0.4-0.3-0.7-0.3h-2.9v14.9c1.9,0.1,3.5,0.8,4.9,2.2
		c1.5,1.5,2.2,3.2,2.2,5.3s-0.7,3.8-2.2,5.3c-1.4,1.4-3,2.1-4.9,2.2v14.9h2.9c0.6,0,0.9-0.3,1-0.8c0.3-1,0.5-2.8,0.8-5.4
		c0.9-0.3,1.8-0.7,2.6-1.1l4,3.1c0.3,0.2,0.5,0.3,0.8,0.3c0.4,0,1.3-0.7,2.7-2.1c1.4-1.4,2.4-2.4,2.9-3.1c0.2-0.2,0.3-0.4,0.3-0.7
		s-0.1-0.5-0.3-0.7c-1.4-1.7-2.4-3-3.1-4c0.4-0.7,0.8-1.6,1.1-2.6l5.4-0.8c0.2,0,0.4-0.2,0.6-0.4c0.2-0.2,0.2-0.4,0.2-0.7v-6.4
		C48.2,23.2,48.2,22.9,48,22.7z"/>
	<polygon points="22.3,31.8 17.9,40.4 13.4,31.8 9.2,31.8 17.1,46.3 17.1,44.9 19.4,44.9 26.5,31.8 	"/>
	<polygon points="30.8,27.9 5,21.9 5,25.4 30.8,31.5 	"/>
	<polygon points="17.9,12.8 22.3,21.5 26.5,21.5 19.5,8.5 16.2,8.5 9.2,21.5 13.5,21.5 	"/>
</g>
</svg>
