<?xml version="1.0" encoding="utf-8"?>
<!-- Generator: Adobe Illustrator 23.0.6, SVG Export Plug-In . SVG Version: 6.00 Build 0)  -->
<svg version="1.1" id="Layer_1" xmlns="http://www.w3.org/2000/svg" xmlns:xlink="http://www.w3.org/1999/xlink" x="0px" y="0px"
	 viewBox="0 0 51.9 52" style="enable-background:new 0 0 51.9 52;" xml:space="preserve">
<style type="text/css">
	.st0{enable-background:new    ;}
</style>
<g id="Aircraft_Type">
	<g>
		<path d="M49.7,42.4v3H2.5V9.4h3v32.9H49.7z"/>
	</g>
	<g class="st0">
		<path d="M45.8,15.2V37c0,0.3-0.1,0.6-0.4,0.9s-0.5,0.4-0.9,0.4h-34c-0.3,0-0.6-0.1-0.9-0.4c-0.2-0.2-0.4-0.5-0.4-0.9V15.2
			c0-0.3,0.1-0.6,0.4-0.9c0.2-0.2,0.5-0.4,0.9-0.4h34c0.3,0,0.6,0.1,0.9,0.4C45.7,14.6,45.8,14.8,45.8,15.2z M43.4,31v-9.7
			c-1.3,0-2.5-0.5-3.4-1.4c-0.9-0.9-1.4-2.1-1.4-3.4H16.7c0,1.3-0.5,2.5-1.4,3.4c-0.9,0.9-2.1,1.4-3.4,1.4V31c1.3,0,2.5,0.5,3.4,1.4
			c0.9,0.9,1.4,2.1,1.4,3.4h21.8c0-1.3,0.5-2.5,1.4-3.4C40.9,31.4,42.1,31,43.4,31z M33.3,23.4c0.3,0.9,0.4,1.8,0.4,2.7
			s-0.1,1.8-0.4,2.7c-0.3,0.9-0.6,1.8-1.1,2.5c-0.5,0.8-1.1,1.4-1.9,1.9S28.6,34,27.6,34s-1.8-0.2-2.6-0.7s-1.4-1.1-1.9-1.9
			c-0.5-0.8-0.9-1.6-1.1-2.5s-0.4-1.8-0.4-2.7s0.1-1.8,0.4-2.7c0.3-0.9,0.6-1.8,1.1-2.5c0.5-0.8,1.1-1.4,1.9-1.9s1.7-0.7,2.6-0.7
			s1.8,0.2,2.6,0.7s1.4,1.1,1.9,1.9C32.6,21.6,33,22.5,33.3,23.4z M24,31h7.3v-1.8h-2.4v-8.5h-2.2l-2.8,2.6l1.5,1.5
			c0.5-0.5,0.9-0.8,1-1.1h0v5.5H24V31z"/>
	</g>
</g>
</svg>
