<?xml version="1.0" encoding="utf-8"?>
<!-- Generator: Adobe Illustrator 23.0.6, SVG Export Plug-In . SVG Version: 6.00 Build 0)  -->
<svg version="1.1" id="Layer_1" xmlns="http://www.w3.org/2000/svg" xmlns:xlink="http://www.w3.org/1999/xlink" x="0px" y="0px"
	 viewBox="0 0 51.9 52" style="enable-background:new 0 0 51.9 52;" xml:space="preserve">
<g id="Equipment_Type">
	<path d="M48,22.7c-0.2-0.2-0.4-0.3-0.6-0.4l-5.3-0.8c-0.3-0.9-0.7-1.9-1.2-2.8c0.3-0.5,0.9-1.2,1.6-2c0.7-0.9,1.2-1.5,1.5-1.9
		c0.2-0.2,0.2-0.4,0.2-0.7c0-0.3-0.1-0.5-0.2-0.6c-0.7-1-2.3-2.6-4.8-4.9c-0.2-0.2-0.5-0.3-0.7-0.3c-0.3,0-0.5,0.1-0.7,0.3l-4.1,3.1
		c-0.8-0.4-1.7-0.8-2.6-1.1l-0.8-5.3c0-0.3-0.1-0.5-0.3-0.6s-0.4-0.3-0.7-0.3h-2.9v14.9c1.9,0.1,3.5,0.8,4.9,2.2
		c1.5,1.5,2.2,3.2,2.2,5.3s-0.7,3.8-2.2,5.3c-1.4,1.4-3,2.1-4.9,2.2v14.9h2.9c0.6,0,0.9-0.3,1-0.8c0.3-1,0.5-2.8,0.8-5.4
		c0.9-0.3,1.8-0.7,2.6-1.1l4,3.1c0.3,0.2,0.5,0.3,0.8,0.3c0.4,0,1.3-0.7,2.7-2.1s2.3-2.4,2.9-3.1c0.2-0.2,0.3-0.4,0.3-0.7
		s-0.1-0.5-0.3-0.7c-1.4-1.7-2.4-3-3.1-4c0.4-0.7,0.8-1.6,1.1-2.6l5.4-0.8c0.2,0,0.4-0.2,0.6-0.4c0.2-0.2,0.2-0.4,0.2-0.7v-6.4
		C48.2,23.2,48.2,22.9,48,22.7z"/>
	<path d="M23,5.8c0.3,0.3,0.7,0.9,1.1,1.6c0.8,1.5,1,3.1,0.8,4.8s-1,3.2-2.1,4.4c-1.5,1.6-3.4,2.4-5.6,2.5c-2.2,0-4.1-0.7-5.7-2.2
		s-2.4-3.4-2.5-5.6s0.7-4.1,2.2-5.7c0.5-0.5,1.1-1,1.7-1.4s1.3-0.7,1.9-0.8c0.2,0,0.4,0,0.6,0.1c0.1,0.1,0.2,0.3,0.2,0.5L14,9.9
		l2.9,2.8l3.8-1.2c0-0.1,0.1-0.6,0.4-1.6c0.2-1,0.4-1.9,0.6-2.8c0.2-0.8,0.3-1.3,0.4-1.3c0.1-0.1,0.3-0.2,0.4-0.2
		C22.7,5.6,22.9,5.6,23,5.8z"/>
	<g>
		<path d="M12.8,48.8c-0.4-0.2-0.9-0.6-1.5-1.3c-1.2-1.2-1.9-2.7-2.1-4.4s0.1-3.3,0.8-4.8c1-2,2.6-3.3,4.7-3.9s4.2-0.5,6.1,0.5
			c2,1,3.3,2.6,3.9,4.7s0.5,4.2-0.5,6.1C24,46.4,23.6,47,23,47.5s-1.1,1-1.6,1.3c-0.2,0.1-0.4,0.1-0.6,0c-0.2-0.1-0.3-0.3-0.3-0.5
			l-0.2-6.1l-3.6-1.9l-3.3,2.2c0,0.1,0,0.6,0.1,1.7s0.1,2,0.1,2.8s0,1.3,0,1.4c-0.1,0.2-0.2,0.3-0.4,0.3
			C13.1,48.9,13,48.9,12.8,48.8z"/>
	</g>
	<path d="M17.3,33c1.4,0,2.6,0.3,3.7,0.9l-0.3-14.5c-1.1,0.5-2.4,0.8-3.6,0.8c-1.3,0-2.5-0.2-3.7-0.7l0.3,14.3
		C14.8,33.3,16,33,17.3,33z"/>
</g>
</svg>
