<?xml version="1.0" encoding="utf-8"?>
<!-- Generator: Adobe Illustrator 23.0.3, SVG Export Plug-In . SVG Version: 6.00 Build 0)  -->
<svg version="1.1" xmlns="http://www.w3.org/2000/svg" xmlns:xlink="http://www.w3.org/1999/xlink" x="0px" y="0px"
	 viewBox="0 0 51.9 51.97" style="enable-background:new 0 0 51.9 51.97;" xml:space="preserve">
<style type="text/css">
	.st0{display:none;}
	.st1{display:inline;}
	.st2{font-family:'FontAwesome';}
	.st3{font-size:17.72px;}
	.st4{fill:none;stroke:#000000;stroke-width:0.9457;stroke-miterlimit:10;}
	.st5{display:inline;fill:#FFFFFF;}
	.st6{font-size:36.8756px;}
	.st7{font-size:22.9997px;}
	.st8{clip-path:url(#SVGID_2_);}
	.st9{font-size:52px;}
	.st10{fill:#FFFFFF;}
	.st11{stroke:#000000;stroke-miterlimit:10;}
	.st12{clip-path:url(#SVGID_4_);}
	.st13{font-size:51.9605px;}
	.st14{clip-path:url(#SVGID_6_);}
	.st15{font-size:49.7507px;}
</style>
<g id="Aircraft_Type" class="st0">
	<g class="st1">
		<path d="M21.05,39.94v-4.48c0-0.16,0.05-0.32,0.16-0.46c0.11-0.15,0.24-0.24,0.38-0.26l3.66-0.55l0.2-0.29
			c0.18-0.53,0.4-1.05,0.69-1.58c-0.54-0.77-1.26-1.7-2.16-2.79c-0.13-0.16-0.2-0.32-0.2-0.48c0-0.13,0.06-0.29,0.18-0.46
			c0.35-0.48,1.01-1.21,1.99-2.17c0.98-0.96,1.61-1.44,1.91-1.44c0.17,0,0.35,0.07,0.52,0.2l1.96,1.52l0.43-0.63l2.29,0.08
			c0.19-1.59,0.37-2.71,0.53-3.33c0.09-0.38,0.34-0.56,0.73-0.56h4.48c0.19,0,0.35,0.06,0.5,0.17c0.14,0.11,0.22,0.26,0.23,0.43
			l0.45,2.95c0.44-0.13,0.86-0.29,1.28-0.48c1.51-0.69,2.33-1.58,2.46-2.69c-0.05-1.11-0.81-2.07-2.26-2.86
			c-1.46-0.79-3.06-1.22-4.82-1.28l-5.55-0.2L22.8,3.66c-0.12-0.25-0.33-0.38-0.65-0.41L17.72,3.1c-0.26-0.01-0.47,0.09-0.64,0.29
			c-0.16,0.21-0.21,0.45-0.15,0.71l3.48,13.8l-8.99-0.32L9.14,13.2c-0.01-0.04-0.05-0.09-0.12-0.16c-0.16-0.17-0.34-0.25-0.55-0.26
			l-3.35-0.1c-0.25,0.01-0.46,0.1-0.6,0.26c-0.17,0.2-0.24,0.41-0.2,0.62l0.82,7.69l-1.37,7.61c-0.03,0.23,0.02,0.45,0.17,0.65
			l0.03,0.04c0.16,0.17,0.34,0.26,0.55,0.26l3.33,0.12c0.31,0,0.54-0.13,0.69-0.38l2.6-4.2l8.99,0.32l-4.46,13.51
			c-0.09,0.22-0.07,0.43,0.06,0.64c0.02,0.05,0.05,0.1,0.1,0.14c0.13,0.14,0.28,0.22,0.43,0.24l3.87,0.7
			c0.36,0.05,0.62-0.07,0.79-0.34l0.2-0.3C21.08,40.16,21.05,40.05,21.05,39.94z"/>
		<g>
			<g>
				<path d="M47.5,36.18v3.17c0,0.11-0.04,0.22-0.11,0.33s-0.17,0.17-0.29,0.19l-2.64,0.4c-0.18,0.51-0.37,0.95-0.56,1.3
					c0.33,0.48,0.84,1.13,1.53,1.97c0.09,0.11,0.14,0.23,0.14,0.36c0,0.12-0.04,0.23-0.13,0.33c-0.26,0.35-0.73,0.87-1.41,1.54
					c-0.68,0.68-1.13,1.01-1.34,1.01c-0.11,0-0.24-0.04-0.37-0.13l-1.97-1.54c-0.42,0.22-0.85,0.4-1.3,0.54
					c-0.15,1.29-0.29,2.18-0.41,2.65c-0.07,0.27-0.24,0.4-0.51,0.4h-3.17c-0.13,0-0.25-0.04-0.35-0.12
					c-0.1-0.08-0.15-0.18-0.16-0.31l-0.4-2.62c-0.47-0.15-0.89-0.33-1.28-0.53l-2.01,1.53c-0.09,0.09-0.21,0.13-0.36,0.13
					c-0.13,0-0.25-0.05-0.36-0.16c-1.2-1.08-1.98-1.88-2.35-2.4c-0.07-0.09-0.1-0.2-0.1-0.33c0-0.11,0.04-0.22,0.11-0.33
					c0.14-0.2,0.39-0.52,0.73-0.95c0.34-0.43,0.6-0.77,0.77-1.01c-0.26-0.48-0.45-0.95-0.59-1.41L26,39.8
					c-0.12-0.02-0.22-0.08-0.3-0.18c-0.08-0.1-0.11-0.21-0.11-0.34v-3.17c0-0.11,0.04-0.22,0.11-0.33c0.08-0.1,0.17-0.17,0.27-0.19
					l2.65-0.4c0.13-0.44,0.32-0.87,0.56-1.31c-0.38-0.54-0.89-1.2-1.53-1.97c-0.1-0.11-0.14-0.23-0.14-0.34
					c0-0.1,0.04-0.2,0.13-0.33c0.25-0.34,0.72-0.85,1.41-1.53c0.69-0.68,1.14-1.02,1.35-1.02c0.12,0,0.25,0.05,0.37,0.14l1.97,1.53
					c0.42-0.22,0.85-0.4,1.3-0.54c0.15-1.29,0.29-2.18,0.41-2.65c0.07-0.27,0.24-0.4,0.51-0.4h3.17c0.13,0,0.25,0.04,0.35,0.12
					c0.1,0.08,0.15,0.18,0.16,0.31l0.4,2.62c0.47,0.15,0.89,0.33,1.28,0.53l2.03-1.53c0.09-0.09,0.2-0.13,0.34-0.13
					c0.12,0,0.24,0.05,0.36,0.14c1.23,1.13,2.01,1.94,2.35,2.43c0.07,0.08,0.1,0.18,0.1,0.31c0,0.11-0.04,0.22-0.11,0.33
					c-0.14,0.2-0.39,0.52-0.73,0.95s-0.6,0.77-0.77,1.01c0.25,0.48,0.44,0.94,0.58,1.4l2.61,0.4c0.12,0.02,0.22,0.08,0.3,0.18
					C47.46,35.95,47.5,36.06,47.5,36.18z M39.13,40.32c0.71-0.71,1.07-1.57,1.07-2.58c0-1.01-0.36-1.87-1.07-2.58
					c-0.71-0.71-1.57-1.07-2.58-1.07c-1.01,0-1.87,0.36-2.58,1.07c-0.71,0.71-1.07,1.57-1.07,2.58c0,1.01,0.36,1.87,1.07,2.58
					c0.71,0.71,1.57,1.07,2.58,1.07C37.55,41.39,38.41,41.03,39.13,40.32z"/>
			</g>
		</g>
	</g>
</g>
<g id="Flight_Details" class="st0">
	<text transform="matrix(1 0 0 1 33.2917 43.0609)" class="st1 st2 st3"></text>
	<path class="st1" d="M21.05,39.94v-4.48c0-0.16,0.05-0.32,0.16-0.46c0.11-0.15,0.24-0.24,0.38-0.26l3.66-0.55l0.2-0.29
		c0.18-0.53,0.4-1.05,0.69-1.58c-0.54-0.77-1.26-1.7-2.16-2.79c-0.13-0.16-0.2-0.32-0.2-0.48c0-0.13,0.06-0.29,0.18-0.46
		c0.35-0.48,1.01-1.21,1.99-2.17c0.98-0.96,1.61-1.44,1.91-1.44c0.17,0,0.35,0.07,0.52,0.2l1.96,1.52l0.43-0.63l2.29,0.08
		c0.19-1.59,0.37-2.71,0.53-3.33c0.09-0.38,0.34-0.56,0.73-0.56h4.48c0.19,0,0.35,0.06,0.5,0.17c0.14,0.11,0.22,0.26,0.23,0.43
		l0.45,2.95c0.44-0.13,0.86-0.29,1.28-0.48c1.51-0.69,2.33-1.58,2.46-2.69c-0.05-1.11-0.81-2.07-2.26-2.86
		c-1.46-0.79-3.06-1.22-4.82-1.28l-5.55-0.2L22.8,3.66c-0.12-0.25-0.33-0.38-0.65-0.41L17.72,3.1c-0.26-0.01-0.47,0.09-0.64,0.29
		c-0.16,0.21-0.21,0.45-0.15,0.71l3.48,13.8l-8.99-0.32L9.14,13.2c-0.01-0.04-0.05-0.09-0.12-0.16c-0.16-0.17-0.34-0.25-0.55-0.26
		l-3.35-0.1c-0.25,0.01-0.46,0.1-0.6,0.26c-0.17,0.2-0.24,0.41-0.2,0.62l0.82,7.69l-1.37,7.61c-0.03,0.23,0.02,0.45,0.17,0.65
		l0.03,0.04c0.16,0.17,0.34,0.26,0.55,0.26l3.33,0.12c0.31,0,0.54-0.13,0.69-0.38l2.6-4.2l8.99,0.32l-4.46,13.51
		c-0.09,0.22-0.07,0.43,0.06,0.64c0.02,0.05,0.05,0.1,0.1,0.14c0.13,0.14,0.28,0.22,0.43,0.24l3.87,0.7
		c0.36,0.05,0.62-0.07,0.79-0.34l0.2-0.3C21.08,40.16,21.05,40.05,21.05,39.94z"/>
	<g class="st1">
		<g>
			<path class="st4" d="M43.41,24.73c0.11-0.11,0.25-0.16,0.44-0.16c0.16,0-0.94-1.85-0.8-1.73c1.56,1.44,3.81,4.38,4.25,5
				c0.09,0.1,0.13,0.23,0.13,0.4c0,0.15-0.05,0.28-0.15,0.42c-0.18,0.25-0.49,0.66-0.93,1.21c-0.44,0.55-0.76,0.98-0.98,1.28
				c0.31,0.61,0.56,1.2,0.74,1.78l3.32,0.51c0.16,0.02,0.28,0.1,0.38,0.23c0.1,0.13,0.15,0.27,0.15,0.43v4.03
				c0,0.15-0.05,0.28-0.15,0.42c-0.1,0.13-0.22,0.21-0.36,0.24l-3.36,0.51c-0.23,0.65-0.47,1.21-0.71,1.65
				c0.42,0.61,1.07,1.44,1.94,2.51c0.12,0.15,0.18,0.3,0.18,0.45c0,0.16-0.05,0.3-0.16,0.42c-0.33,0.45-0.93,1.1-1.8,1.96
				c-0.87,0.86-1.44,1.29-1.71,1.29c-0.15,0-0.3-0.05-0.47-0.16l-2.51-1.96c-0.53,0.28-1.08,0.51-1.65,0.69
				c-0.19,1.65-0.37,2.77-0.53,3.38c-0.08,0.34-0.3,0.51-0.65,0.51H34c-0.17,0-0.32-0.05-0.44-0.15c-0.13-0.1-0.2-0.23-0.21-0.39
				l-0.51-3.34c-0.59-0.19-1.14-0.42-1.63-0.67l-2.56,1.94c-0.12,0.11-0.27,0.16-0.45,0.16c-0.17,0-0.32-0.07-0.45-0.2
				c-1.53-1.38-2.53-2.4-3-3.05c-0.09-0.12-0.13-0.26-0.13-0.42c0-0.15,0.05-0.28,0.15-0.42c0.18-0.25,0.49-0.66,0.93-1.21
				c0.44-0.55,0.76-0.98,0.98-1.28c-0.33-0.61-0.58-1.2-0.75-1.8l-5.87-0.35"/>
		</g>
	</g>
</g>
<g id="Currency" class="st0">
	<g class="st1">
		<path d="M48.71,23.46v6.44c0,0.23-0.08,0.45-0.23,0.67c-0.15,0.21-0.35,0.34-0.58,0.38l-5.37,0.81c-0.37,1.04-0.75,1.92-1.13,2.64
			c0.68,0.97,1.71,2.3,3.11,4c0.19,0.23,0.29,0.47,0.29,0.73c0,0.25-0.09,0.47-0.26,0.67c-0.52,0.72-1.48,1.76-2.87,3.13
			s-2.3,2.06-2.73,2.06c-0.23,0-0.48-0.09-0.75-0.26l-4-3.13c-0.85,0.45-1.73,0.81-2.64,1.1c-0.31,2.63-0.59,4.43-0.84,5.4
			c-0.13,0.54-0.48,0.81-1.04,0.81H23.2c-0.27,0-0.51-0.08-0.71-0.25c-0.2-0.17-0.31-0.37-0.33-0.63l-0.81-5.34
			c-0.95-0.31-1.82-0.67-2.61-1.07l-4.09,3.1c-0.19,0.17-0.44,0.26-0.72,0.26c-0.27,0-0.51-0.11-0.73-0.32
			c-2.44-2.21-4.03-3.83-4.79-4.88c-0.14-0.19-0.2-0.42-0.2-0.67c0-0.23,0.08-0.45,0.23-0.67c0.29-0.41,0.78-1.05,1.48-1.93
			c0.7-0.88,1.22-1.56,1.57-2.05c-0.52-0.97-0.92-1.92-1.19-2.87l-5.31-0.78c-0.25-0.04-0.45-0.16-0.61-0.36
			c-0.15-0.2-0.23-0.43-0.23-0.68v-6.44c0-0.23,0.08-0.45,0.23-0.67c0.16-0.21,0.34-0.34,0.55-0.38l5.4-0.81
			c0.27-0.89,0.65-1.78,1.13-2.67c-0.78-1.1-1.81-2.44-3.11-4c-0.19-0.23-0.29-0.46-0.29-0.7c0-0.19,0.09-0.42,0.26-0.67
			c0.5-0.7,1.46-1.74,2.86-3.12c1.4-1.38,2.32-2.08,2.74-2.08c0.25,0,0.5,0.1,0.75,0.29l4,3.1c0.85-0.44,1.73-0.81,2.64-1.1
			c0.31-2.63,0.59-4.43,0.84-5.4c0.13-0.54,0.48-0.81,1.04-0.81h6.44c0.27,0,0.51,0.08,0.71,0.25c0.2,0.16,0.31,0.37,0.33,0.62
			l0.81,5.34c0.95,0.31,1.82,0.67,2.61,1.07l4.12-3.1c0.17-0.17,0.41-0.26,0.7-0.26c0.25,0,0.49,0.1,0.73,0.29
			c2.5,2.3,4.09,3.95,4.79,4.93c0.14,0.15,0.2,0.37,0.2,0.64c0,0.23-0.08,0.45-0.23,0.67c-0.29,0.41-0.78,1.05-1.48,1.93
			c-0.7,0.88-1.22,1.56-1.57,2.05c0.5,0.97,0.9,1.92,1.19,2.84l5.31,0.81c0.25,0.04,0.46,0.16,0.61,0.36
			C48.63,22.98,48.71,23.21,48.71,23.46z"/>
	</g>
	<text transform="matrix(1 0 0 1 15.4489 38.2835)" class="st5 st2 st6"></text>
</g>
<g id="Create_Items" class="st0">
	<g class="st1">
		<path d="M31.36,39.68h-5.41c-0.6,0-1.12-0.21-1.54-0.63c-0.42-0.42-0.63-0.94-0.63-1.54v-3.8c-1.14-0.34-2.17-0.96-3.08-1.87
			c-1.45-1.45-2.18-3.2-2.18-5.25c0-2.05,0.72-3.8,2.18-5.25c1.45-1.45,3.2-2.18,5.25-2.18s3.8,0.73,5.25,2.18
			c0.67,0.67,1.19,1.42,1.55,2.22c0.24-0.09,0.5-0.14,0.79-0.14h4.34c0.6,0,1.12,0.21,1.54,0.63c0.42,0.42,0.63,0.94,0.63,1.54v5.41
			h6.8l0.57-0.09c0.23-0.04,0.43-0.16,0.58-0.38c0.16-0.21,0.23-0.44,0.23-0.67v-6.44c0-0.25-0.08-0.48-0.23-0.68
			c-0.15-0.2-0.36-0.32-0.61-0.36l-5.31-0.81c-0.29-0.93-0.69-1.88-1.19-2.84c0.35-0.48,0.87-1.17,1.57-2.05
			c0.7-0.88,1.19-1.52,1.48-1.93c0.16-0.21,0.23-0.44,0.23-0.67c0-0.27-0.07-0.48-0.2-0.64c-0.7-0.99-2.29-2.63-4.79-4.93
			c-0.23-0.19-0.47-0.29-0.73-0.29c-0.29,0-0.52,0.09-0.7,0.26l-4.12,3.1c-0.79-0.41-1.66-0.76-2.61-1.07l-0.81-5.34
			c-0.02-0.25-0.13-0.46-0.33-0.62c-0.2-0.16-0.44-0.25-0.71-0.25h-6.44c-0.56,0-0.91,0.27-1.04,0.81c-0.25,0.97-0.53,2.77-0.84,5.4
			c-0.91,0.29-1.79,0.66-2.64,1.1l-4-3.1c-0.25-0.19-0.5-0.29-0.75-0.29c-0.43,0-1.34,0.69-2.74,2.08c-1.4,1.38-2.36,2.42-2.86,3.12
			c-0.17,0.25-0.26,0.47-0.26,0.67c0,0.23,0.1,0.46,0.29,0.7c1.3,1.57,2.33,2.9,3.11,4c-0.48,0.89-0.86,1.78-1.13,2.67l-5.4,0.81
			c-0.21,0.04-0.4,0.16-0.55,0.38c-0.15,0.21-0.23,0.44-0.23,0.67v6.44c0,0.25,0.08,0.48,0.23,0.68c0.16,0.2,0.36,0.32,0.61,0.36
			l5.31,0.78c0.27,0.95,0.67,1.91,1.19,2.87c-0.35,0.48-0.87,1.17-1.57,2.05c-0.7,0.88-1.19,1.52-1.48,1.93
			c-0.16,0.21-0.23,0.44-0.23,0.67c0,0.25,0.07,0.47,0.2,0.67c0.75,1.04,2.35,2.67,4.79,4.88c0.21,0.21,0.46,0.32,0.73,0.32
			c0.29,0,0.53-0.09,0.72-0.26l4.09-3.1c0.79,0.41,1.66,0.76,2.61,1.07L21.69,48c0.02,0.25,0.13,0.46,0.33,0.63
			c0.2,0.16,0.44,0.25,0.71,0.25h6.44c0.56,0,0.91-0.27,1.04-0.81c0.25-0.97,0.53-2.77,0.84-5.4c0.1-0.03,0.2-0.08,0.31-0.11V39.68z
			"/>
	</g>
	<g class="st1">
		<text transform="matrix(1 0 0 1 26.6735 44.2977)" class="st2 st7"></text>
	</g>
</g>
<g id="Equipment_Type">
	<path d="M48,22.74c-0.15-0.2-0.36-0.32-0.61-0.36l-5.31-0.81c-0.29-0.93-0.69-1.88-1.19-2.84c0.35-0.48,0.87-1.17,1.57-2.05
		c0.7-0.88,1.19-1.52,1.48-1.93c0.16-0.21,0.23-0.44,0.23-0.67c0-0.27-0.07-0.48-0.2-0.64c-0.7-0.99-2.29-2.63-4.79-4.93
		c-0.23-0.19-0.47-0.29-0.73-0.29c-0.29,0-0.52,0.09-0.7,0.26l-4.12,3.1c-0.79-0.41-1.66-0.76-2.61-1.07l-0.81-5.34
		c-0.02-0.25-0.13-0.46-0.33-0.62c-0.2-0.16-0.44-0.25-0.71-0.25h-2.88v14.87c1.9,0.08,3.54,0.79,4.91,2.16
		c1.45,1.45,2.18,3.2,2.18,5.25c0,2.05-0.72,3.8-2.18,5.25c-1.37,1.37-3.01,2.08-4.91,2.16v14.87h2.88c0.56,0,0.91-0.27,1.04-0.81
		c0.25-0.97,0.53-2.77,0.84-5.4c0.91-0.29,1.79-0.66,2.64-1.1l4,3.13c0.27,0.17,0.52,0.26,0.75,0.26c0.43,0,1.34-0.69,2.73-2.06
		s2.35-2.42,2.87-3.13c0.17-0.19,0.26-0.42,0.26-0.67c0-0.25-0.1-0.49-0.29-0.73c-1.39-1.7-2.43-3.04-3.11-4
		c0.39-0.72,0.76-1.6,1.13-2.64l5.37-0.81c0.23-0.04,0.43-0.16,0.58-0.38c0.16-0.21,0.23-0.44,0.23-0.67v-6.44
		C48.24,23.17,48.16,22.94,48,22.74z"/>
	<path d="M22.99,5.76c0.34,0.32,0.7,0.86,1.08,1.61c0.77,1.52,1.02,3.12,0.77,4.83c-0.25,1.71-0.96,3.17-2.13,4.38
		c-1.53,1.6-3.41,2.42-5.63,2.46c-2.22,0.04-4.13-0.7-5.73-2.23c-1.6-1.53-2.42-3.41-2.46-5.63c-0.04-2.22,0.7-4.13,2.23-5.73
		c0.48-0.5,1.05-0.96,1.72-1.37c0.67-0.41,1.31-0.68,1.94-0.81c0.23-0.05,0.42,0,0.56,0.14c0.15,0.14,0.2,0.33,0.16,0.55l-1.45,5.89
		l2.9,2.78l3.78-1.17c0.01-0.07,0.13-0.61,0.35-1.62c0.22-1.02,0.43-1.93,0.64-2.76c0.2-0.82,0.34-1.27,0.42-1.35
		c0.12-0.13,0.26-0.19,0.42-0.18C22.71,5.57,22.86,5.64,22.99,5.76z"/>
	<g>
		<path d="M12.82,48.77c-0.41-0.22-0.91-0.63-1.49-1.25c-1.16-1.24-1.85-2.72-2.08-4.43c-0.23-1.71,0.05-3.31,0.83-4.8
			c1.03-1.96,2.61-3.27,4.73-3.93c2.12-0.66,4.16-0.47,6.12,0.55c1.96,1.03,3.27,2.61,3.93,4.73c0.66,2.12,0.48,4.16-0.55,6.12
			c-0.32,0.61-0.75,1.21-1.28,1.79c-0.53,0.58-1.07,1.02-1.63,1.32C21.19,48.99,21,49,20.82,48.9c-0.18-0.09-0.28-0.26-0.31-0.49
			l-0.24-6.06l-3.56-1.87l-3.31,2.17c0,0.07,0.04,0.62,0.11,1.66c0.07,1.04,0.12,1.98,0.15,2.83c0.03,0.85,0.03,1.32-0.02,1.41
			c-0.08,0.16-0.2,0.26-0.35,0.29C13.14,48.88,12.98,48.86,12.82,48.77z"/>
	</g>
	<path d="M17.29,33c1.38,0,2.65,0.33,3.74,0.89l-0.29-14.52c-1.15,0.52-2.36,0.8-3.64,0.82c-1.28,0.03-2.5-0.2-3.67-0.67l0.29,14.28
		C14.77,33.29,15.99,33,17.29,33z"/>
</g>
<g id="Layer_4_copy_2" class="st0">
	<path class="st1" d="M48,22.74c-0.15-0.2-0.36-0.32-0.61-0.36l-5.31-0.81c-0.29-0.93-0.69-1.88-1.19-2.84
		c0.35-0.48,0.87-1.17,1.57-2.05c0.7-0.88,1.19-1.52,1.48-1.93c0.16-0.21,0.23-0.44,0.23-0.67c0-0.27-0.07-0.48-0.2-0.64
		c-0.7-0.99-2.29-2.63-4.79-4.93c-0.23-0.19-0.47-0.29-0.73-0.29c-0.29,0-0.52,0.09-0.7,0.26l-4.12,3.1
		c-0.79-0.41-1.66-0.76-2.61-1.07l-0.81-5.34c-0.02-0.25-0.13-0.46-0.33-0.62c-0.2-0.16-0.44-0.25-0.71-0.25h-2.88v14.87
		c1.9,0.08,3.54,0.79,4.91,2.16c1.45,1.45,2.18,3.2,2.18,5.25c0,2.05-0.72,3.8-2.18,5.25c-1.37,1.37-3.01,2.08-4.91,2.16v14.87h2.88
		c0.56,0,0.91-0.27,1.04-0.81c0.25-0.97,0.53-2.77,0.84-5.4c0.91-0.29,1.79-0.66,2.64-1.1l4,3.13c0.27,0.17,0.52,0.26,0.75,0.26
		c0.43,0,1.34-0.69,2.73-2.06s2.35-2.42,2.87-3.13c0.17-0.19,0.26-0.42,0.26-0.67c0-0.25-0.1-0.49-0.29-0.73
		c-1.39-1.7-2.43-3.04-3.11-4c0.39-0.72,0.76-1.6,1.13-2.64l5.37-0.81c0.23-0.04,0.43-0.16,0.58-0.38c0.16-0.21,0.23-0.44,0.23-0.67
		v-6.44C48.24,23.17,48.16,22.94,48,22.74z"/>
	<g class="st1">
		<defs>
			
				<rect id="SVGID_1_" x="0.29" y="1.33" transform="matrix(-1 -1.224647e-16 1.224647e-16 -1 24.8333 51.6667)" width="24.25" height="49"/>
		</defs>
		<clipPath id="SVGID_2_">
			<use xlink:href="#SVGID_1_"  style="overflow:visible;"/>
		</clipPath>
		<g class="st8">
			<text transform="matrix(1 0 0 1 4.5417 44.8333)" class="st2 st9"></text>
		</g>
	</g>
	<polygon class="st1" points="26.29,9.83 26.29,44.08 34.04,34.33 41.04,25.33 31.04,14.58 	"/>
	<g class="st1">
		<text transform="matrix(1 0 0 1 16.9235 35.7977)" class="st10 st2 st7"></text>
	</g>
</g>
<g id="Layer_4_copy_3" class="st0">
	<path class="st1" d="M48,22.74c-0.15-0.2-0.36-0.32-0.61-0.36l-5.31-0.81c-0.29-0.93-0.69-1.88-1.19-2.84
		c0.35-0.48,0.87-1.17,1.57-2.05c0.7-0.88,1.19-1.52,1.48-1.93c0.16-0.21,0.23-0.44,0.23-0.67c0-0.27-0.07-0.48-0.2-0.64
		c-0.7-0.99-2.29-2.63-4.79-4.93c-0.23-0.19-0.47-0.29-0.73-0.29c-0.29,0-0.52,0.09-0.7,0.26l-4.12,3.1
		c-0.79-0.41-1.66-0.76-2.61-1.07l-0.81-5.34c-0.02-0.25-0.13-0.46-0.33-0.62c-0.2-0.16-0.44-0.25-0.71-0.25h-2.88v14.87
		c1.9,0.08,3.54,0.79,4.91,2.16c1.45,1.45,2.18,3.2,2.18,5.25c0,2.05-0.72,3.8-2.18,5.25c-1.37,1.37-3.01,2.08-4.91,2.16v14.87h2.88
		c0.56,0,0.91-0.27,1.04-0.81c0.25-0.97,0.53-2.77,0.84-5.4c0.91-0.29,1.79-0.66,2.64-1.1l4,3.13c0.27,0.17,0.52,0.26,0.75,0.26
		c0.43,0,1.34-0.69,2.73-2.06s2.35-2.42,2.87-3.13c0.17-0.19,0.26-0.42,0.26-0.67c0-0.25-0.1-0.49-0.29-0.73
		c-1.39-1.7-2.43-3.04-3.11-4c0.39-0.72,0.76-1.6,1.13-2.64l5.37-0.81c0.23-0.04,0.43-0.16,0.58-0.38c0.16-0.21,0.23-0.44,0.23-0.67
		v-6.44C48.24,23.17,48.16,22.94,48,22.74z"/>
	<g class="st1">
		<path class="st11" d="M16.59,44.39L10.02,32.3h3.12l4.68,9.14h0.06l4.68-9.14h3.12l-6.56,12.08H16.59z"/>
		<path class="st11" d="M30.29,30.83L5.52,25.05v-2.54l24.77,5.78V30.83z"/>
		<path class="st11" d="M19.21,8.96l6.48,12.08h-3.12l-4.68-9.34h-0.06l-4.68,9.34h-3.12L16.5,8.96H19.21z"/>
	</g>
</g>
<g id="Layer_4_copy_4" class="st0">
	<path class="st1" d="M48,22.74c-0.15-0.2-0.36-0.32-0.61-0.36l-5.31-0.81c-0.29-0.93-0.69-1.88-1.19-2.84
		c0.35-0.48,0.87-1.17,1.57-2.05c0.7-0.88,1.19-1.52,1.48-1.93c0.16-0.21,0.23-0.44,0.23-0.67c0-0.27-0.07-0.48-0.2-0.64
		c-0.7-0.99-2.29-2.63-4.79-4.93c-0.23-0.19-0.47-0.29-0.73-0.29c-0.29,0-0.52,0.09-0.7,0.26l-4.12,3.1
		c-0.79-0.41-1.66-0.76-2.61-1.07l-0.81-5.34c-0.02-0.25-0.13-0.46-0.33-0.62c-0.2-0.16-0.44-0.25-0.71-0.25h-2.88v14.87
		c1.9,0.08,3.54,0.79,4.91,2.16c1.45,1.45,2.18,3.2,2.18,5.25c0,2.05-0.72,3.8-2.18,5.25c-1.37,1.37-3.01,2.08-4.91,2.16v14.87h2.88
		c0.56,0,0.91-0.27,1.04-0.81c0.25-0.97,0.53-2.77,0.84-5.4c0.91-0.29,1.79-0.66,2.64-1.1l4,3.13c0.27,0.17,0.52,0.26,0.75,0.26
		c0.43,0,1.34-0.69,2.73-2.06s2.35-2.42,2.87-3.13c0.17-0.19,0.26-0.42,0.26-0.67c0-0.25-0.1-0.49-0.29-0.73
		c-1.39-1.7-2.43-3.04-3.11-4c0.39-0.72,0.76-1.6,1.13-2.64l5.37-0.81c0.23-0.04,0.43-0.16,0.58-0.38c0.16-0.21,0.23-0.44,0.23-0.67
		v-6.44C48.24,23.17,48.16,22.94,48,22.74z"/>
	<g class="st1">
		<defs>
			<polygon id="SVGID_3_" points="25.29,49.83 2.54,49.83 2.54,2.08 25.29,2.08 25.29,21.58 28.79,22.34 31.04,23.33 31.54,28.08 
				25.29,34.08 			"/>
		</defs>
		<clipPath id="SVGID_4_">
			<use xlink:href="#SVGID_3_"  style="overflow:visible;"/>
		</clipPath>
		<g class="st12">
			<text transform="matrix(1 0 0 1 4.7917 45.3621)" class="st2 st13"></text>
		</g>
	</g>
</g>
<g id="Layer_4_copy_5" class="st0">
	<path class="st1" d="M48,22.74c-0.15-0.2-0.36-0.32-0.61-0.36l-5.31-0.81c-0.29-0.93-0.69-1.88-1.19-2.84
		c0.35-0.48,0.87-1.17,1.57-2.05c0.7-0.88,1.19-1.52,1.48-1.93c0.16-0.21,0.23-0.44,0.23-0.67c0-0.27-0.07-0.48-0.2-0.64
		c-0.7-0.99-2.29-2.63-4.79-4.93c-0.23-0.19-0.47-0.29-0.73-0.29c-0.29,0-0.52,0.09-0.7,0.26l-4.12,3.1
		c-0.79-0.41-1.66-0.76-2.61-1.07l-0.81-5.34c-0.02-0.25-0.13-0.46-0.33-0.62c-0.2-0.16-0.44-0.25-0.71-0.25h-2.88v14.87
		c1.9,0.08,3.54,0.79,4.91,2.16c1.45,1.45,2.18,3.2,2.18,5.25c0,2.05-0.72,3.8-2.18,5.25c-1.37,1.37-3.01,2.08-4.91,2.16v14.87h2.88
		c0.56,0,0.91-0.27,1.04-0.81c0.25-0.97,0.53-2.77,0.84-5.4c0.91-0.29,1.79-0.66,2.64-1.1l4,3.13c0.27,0.17,0.52,0.26,0.75,0.26
		c0.43,0,1.34-0.69,2.73-2.06s2.35-2.42,2.87-3.13c0.17-0.19,0.26-0.42,0.26-0.67c0-0.25-0.1-0.49-0.29-0.73
		c-1.39-1.7-2.43-3.04-3.11-4c0.39-0.72,0.76-1.6,1.13-2.64l5.37-0.81c0.23-0.04,0.43-0.16,0.58-0.38c0.16-0.21,0.23-0.44,0.23-0.67
		v-6.44C48.24,23.17,48.16,22.94,48,22.74z"/>
	<g class="st1">
		<defs>
			<rect id="SVGID_5_" x="3.54" y="3.58" width="22.13" height="46.13"/>
		</defs>
		<clipPath id="SVGID_6_">
			<use xlink:href="#SVGID_5_"  style="overflow:visible;"/>
		</clipPath>
		<g class="st14">
			<path d="M43.15,24.91H5.47c-0.56,0-1.02-0.46-1.02-1.02v-2.61c0-0.56,0.46-1.02,1.02-1.02h37.68c0.56,0,1.02,0.46,1.02,1.02v2.61
				C44.17,24.46,43.71,24.91,43.15,24.91z"/>
			<path d="M29.06,48.9h-9.5c-0.56,0-1.02-0.46-1.02-1.02v-2.61c0-0.56,0.46-1.02,1.02-1.02h9.5c0.56,0,1.02,0.46,1.02,1.02v2.61
				C30.08,48.44,29.62,48.9,29.06,48.9z"/>
			<polygon points="27.88,46.7 33.05,37.76 41.78,22.63 24.31,22.63 6.83,22.63 15.57,37.76 20.74,46.7 			"/>
			<g>
				<g>
					<line x1="33.69" y1="7.25" x2="29.95" y2="17.69"/>
					<path d="M29.95,19.24c-0.17,0-0.35-0.03-0.52-0.09c-0.8-0.29-1.22-1.17-0.94-1.98l3.74-10.45c0.29-0.81,1.18-1.22,1.98-0.94
						c0.8,0.29,1.22,1.17,0.94,1.98L31.4,18.21C31.18,18.84,30.58,19.24,29.95,19.24z"/>
				</g>
				<g>
					<line x1="14.09" y1="7.25" x2="17.83" y2="17.69"/>
					<path d="M17.83,19.24c-0.64,0-1.23-0.39-1.46-1.03L12.63,7.77c-0.29-0.8,0.13-1.69,0.94-1.98c0.8-0.29,1.69,0.13,1.98,0.94
						l3.74,10.45c0.29,0.8-0.13,1.69-0.94,1.98C18.18,19.21,18,19.24,17.83,19.24z"/>
				</g>
				<g>
					<path d="M23.69,18.72c-0.86,0-1.55-0.69-1.55-1.55V5.83c0-0.85,0.69-1.55,1.55-1.55c0.86,0,1.55,0.69,1.55,1.55v11.35
						C25.24,18.03,24.55,18.72,23.69,18.72z"/>
				</g>
			</g>
		</g>
	</g>
</g>
<g id="Layer_4_copy_6" class="st0">
	<path class="st1" d="M48,22.74c-0.15-0.2-0.36-0.32-0.61-0.36l-5.31-0.81c-0.29-0.93-0.69-1.88-1.19-2.84
		c0.35-0.48,0.87-1.17,1.57-2.05c0.7-0.88,1.19-1.52,1.48-1.93c0.16-0.21,0.23-0.44,0.23-0.67c0-0.27-0.07-0.48-0.2-0.64
		c-0.7-0.99-2.29-2.63-4.79-4.93c-0.23-0.19-0.47-0.29-0.73-0.29c-0.29,0-0.52,0.09-0.7,0.26l-4.12,3.1
		c-0.79-0.41-1.66-0.76-2.61-1.07l-0.81-5.34c-0.02-0.25-0.13-0.46-0.33-0.62c-0.2-0.16-0.44-0.25-0.71-0.25h-2.88v14.87
		c1.9,0.08,3.54,0.79,4.91,2.16c1.45,1.45,2.18,3.2,2.18,5.25c0,2.05-0.72,3.8-2.18,5.25c-1.37,1.37-3.01,2.08-4.91,2.16v14.87h2.88
		c0.56,0,0.91-0.27,1.04-0.81c0.25-0.97,0.53-2.77,0.84-5.4c0.91-0.29,1.79-0.66,2.64-1.1l4,3.13c0.27,0.17,0.52,0.26,0.75,0.26
		c0.43,0,1.34-0.69,2.73-2.06s2.35-2.42,2.87-3.13c0.17-0.19,0.26-0.42,0.26-0.67c0-0.25-0.1-0.49-0.29-0.73
		c-1.39-1.7-2.43-3.04-3.11-4c0.39-0.72,0.76-1.6,1.13-2.64l5.37-0.81c0.23-0.04,0.43-0.16,0.58-0.38c0.16-0.21,0.23-0.44,0.23-0.67
		v-6.44C48.24,23.17,48.16,22.94,48,22.74z"/>
	<path class="st1" d="M24.67,14.78c-0.33,0.04-0.67,0.06-1.02,0.06c-4.96,0-8.98-4.02-8.98-8.98c0-0.51,0.05-1,0.13-1.49h-0.43
		c-2.76,0-4.99,2.24-4.99,4.99v34.59c0,2.76,2.24,4.99,4.99,4.99h0.34c-0.02-0.26-0.04-0.51-0.04-0.77c0-4.96,4.02-8.98,8.98-8.98
		c0.34,0,0.68,0.02,1.02,0.06V14.78z"/>
</g>
<g id="Layer_4_copy_7" class="st0">
	<path class="st1" d="M48,22.74c-0.15-0.2-0.36-0.32-0.61-0.36l-5.31-0.81c-0.29-0.93-0.69-1.88-1.19-2.84
		c0.35-0.48,0.87-1.17,1.57-2.05c0.7-0.88,1.19-1.52,1.48-1.93c0.16-0.21,0.23-0.44,0.23-0.67c0-0.27-0.07-0.48-0.2-0.64
		c-0.7-0.99-2.29-2.63-4.79-4.93c-0.23-0.19-0.47-0.29-0.73-0.29c-0.29,0-0.52,0.09-0.7,0.26l-4.12,3.1
		c-0.79-0.41-1.66-0.76-2.61-1.07l-0.81-5.34c-0.02-0.25-0.13-0.46-0.33-0.62c-0.2-0.16-0.44-0.25-0.71-0.25h-2.88v14.87
		c1.9,0.08,3.54,0.79,4.91,2.16c1.45,1.45,2.18,3.2,2.18,5.25c0,2.05-0.72,3.8-2.18,5.25c-1.37,1.37-3.01,2.08-4.91,2.16v14.87h2.88
		c0.56,0,0.91-0.27,1.04-0.81c0.25-0.97,0.53-2.77,0.84-5.4c0.91-0.29,1.79-0.66,2.64-1.1l4,3.13c0.27,0.17,0.52,0.26,0.75,0.26
		c0.43,0,1.34-0.69,2.73-2.06s2.35-2.42,2.87-3.13c0.17-0.19,0.26-0.42,0.26-0.67c0-0.25-0.1-0.49-0.29-0.73
		c-1.39-1.7-2.43-3.04-3.11-4c0.39-0.72,0.76-1.6,1.13-2.64l5.37-0.81c0.23-0.04,0.43-0.16,0.58-0.38c0.16-0.21,0.23-0.44,0.23-0.67
		v-6.44C48.24,23.17,48.16,22.94,48,22.74z"/>
	<text transform="matrix(1 0 0 1 1.7917 46.3133)" class="st1 st2 st15"></text>
</g>
<g id="Layer_4_copy_8" class="st0">
	<path class="st1" d="M48,22.74c-0.15-0.2-0.36-0.32-0.61-0.36l-5.31-0.81c-0.29-0.93-0.69-1.88-1.19-2.84
		c0.35-0.48,0.87-1.17,1.57-2.05c0.7-0.88,1.19-1.52,1.48-1.93c0.16-0.21,0.23-0.44,0.23-0.67c0-0.27-0.07-0.48-0.2-0.64
		c-0.7-0.99-2.29-2.63-4.79-4.93c-0.23-0.19-0.47-0.29-0.73-0.29c-0.29,0-0.52,0.09-0.7,0.26l-4.12,3.1
		c-0.79-0.41-1.66-0.76-2.61-1.07l-0.81-5.34c-0.02-0.25-0.13-0.46-0.33-0.62c-0.2-0.16-0.44-0.25-0.71-0.25h-2.88v14.87
		c1.9,0.08,3.54,0.79,4.91,2.16c1.45,1.45,2.18,3.2,2.18,5.25c0,2.05-0.72,3.8-2.18,5.25c-1.37,1.37-3.01,2.08-4.91,2.16v14.87h2.88
		c0.56,0,0.91-0.27,1.04-0.81c0.25-0.97,0.53-2.77,0.84-5.4c0.91-0.29,1.79-0.66,2.64-1.1l4,3.13c0.27,0.17,0.52,0.26,0.75,0.26
		c0.43,0,1.34-0.69,2.73-2.06s2.35-2.42,2.87-3.13c0.17-0.19,0.26-0.42,0.26-0.67c0-0.25-0.1-0.49-0.29-0.73
		c-1.39-1.7-2.43-3.04-3.11-4c0.39-0.72,0.76-1.6,1.13-2.64l5.37-0.81c0.23-0.04,0.43-0.16,0.58-0.38c0.16-0.21,0.23-0.44,0.23-0.67
		v-6.44C48.24,23.17,48.16,22.94,48,22.74z"/>
	<text transform="matrix(1 0 0 1 5.3239 38.6585)" class="st1 st2 st6"></text>
</g>
<g id="Layer_4_copy" class="st0">
	<text transform="matrix(1 0 0 1 3.6652 45.1527)" class="st1 st2 st9"></text>
</g>
</svg>
