<?xml version="1.0" encoding="utf-8"?>
<!-- Generator: Adobe Illustrator 23.0.6, SVG Export Plug-In . SVG Version: 6.00 Build 0)  -->
<svg version="1.1" id="Layer_1" xmlns="http://www.w3.org/2000/svg" xmlns:xlink="http://www.w3.org/1999/xlink" x="0px" y="0px"
	 viewBox="0 0 51.9 52" style="enable-background:new 0 0 51.9 52;" xml:space="preserve">
<g>
	<polygon points="8,41.2 8,6.3 4.3,6.3 4.3,45.4 49.7,45.4 49.7,41.2 	"/>
	<path d="M13.6,29.5c0.7,0.4,12,7.6,12.6,7.9c0.3,0.2,0.7,0.2,1,0.2c0.6,0,1.3-0.3,2.2-0.8c1.1-0.7,4.2-2.4,4.9-2.8l1.8-0.1
		c0,0.2,0.2,0.3,0.3,0.5c0.4,0.4,1,0.4,1.5,0.3c0.2,0,5-0.2,6-0.2l-0.1-1.8c-1,0-2.3,0.1-3.4,0.1v-8.7h3.4v-1.8h-6.3
		c-0.6,0-1,0.2-1.2,0.6H30L26.2,27c0,0,0,0,0,0C24,26.6,15.7,25,14.8,24.8c-1.5-0.3-2.7,0.7-2.9,1.7C11.6,27.5,12.3,28.7,13.6,29.5z
		 M38.6,32.9c-0.4,0-0.7,0-0.7,0c0,0,0,0-0.1,0v-8.8h0.8V32.9z M14.5,26.6c0.8,0.1,7.2,1.4,10.2,2c0,0-0.1,0.1-0.1,0.1
		c-0.5,0.7-0.9,1.8,0,3.6c0.3,0.6,0.8,0.9,1.5,1c0.2,0,0.3,0,0.5,0c0.8,0,1.5-0.3,1.8-0.6c0.5-0.4,2.6-2.9,3.2-3.7l-1.4-1.2
		c-1.3,1.5-2.8,3.3-3,3.5c-0.1,0.1-0.6,0.2-0.9,0.2c-0.1,0-0.2-0.1-0.2-0.1c-0.4-0.7-0.4-1.3-0.2-1.6c0.2-0.2,0.4-0.5,0.7-0.8l0,0
		l0.8-0.8c0.1-0.1,0.2-0.2,0.3-0.3l0,0l3-3.1H36v7.4l-2.2,0.2l-0.2,0.1c-0.2,0.1-3.9,2.1-5.2,2.9c-1,0.6-1.3,0.5-1.4,0.5
		c-0.6-0.3-11.2-7-12.4-7.8c-0.8-0.5-1-1-1-1.1C13.6,26.8,13.9,26.5,14.5,26.6z"/>
	<path d="M20,15.9c0.7,0,1.4-0.2,1.9-0.7s0.8-1.2,0.8-2.1c0-0.9-0.3-1.7-0.8-2.1c-0.5-0.5-1.1-0.7-1.9-0.7c-0.8,0-1.5,0.3-1.9,0.8
		c-0.4,0.5-0.7,1.2-0.7,2c0,1,0.2,1.7,0.7,2.2C18.6,15.7,19.2,15.9,20,15.9z M19.1,11.5c0.2-0.3,0.6-0.4,0.9-0.4
		c0.4,0,0.7,0.1,0.9,0.4s0.4,0.8,0.4,1.5c0,0.8-0.1,1.3-0.4,1.6C20.7,14.8,20.4,15,20,15c-0.4,0-0.7-0.1-0.9-0.4s-0.4-0.8-0.4-1.5
		C18.7,12.3,18.8,11.8,19.1,11.5z"/>
	<polygon points="21.3,21.6 27.9,10.2 26.7,10.2 20,21.6 	"/>
	<path d="M26,16.7c-0.4,0.5-0.7,1.2-0.7,2c0,1,0.2,1.7,0.7,2.2c0.5,0.5,1.1,0.7,1.9,0.7c0.8,0,1.4-0.2,1.9-0.7
		c0.5-0.5,0.8-1.2,0.8-2.1c0-0.9-0.3-1.7-0.8-2.1s-1.1-0.7-1.9-0.7C27.1,15.9,26.4,16.1,26,16.7z M28.9,17.2
		c0.3,0.3,0.4,0.8,0.4,1.5c0,0.8-0.1,1.3-0.4,1.6c-0.2,0.3-0.6,0.4-1,0.4c-0.4,0-0.7-0.1-0.9-0.4c-0.3-0.3-0.4-0.8-0.4-1.5
		c0-0.8,0.1-1.3,0.4-1.6c0.2-0.3,0.6-0.4,0.9-0.4C28.3,16.8,28.6,16.9,28.9,17.2z"/>
</g>
</svg>
