<?xml version="1.0" encoding="utf-8"?>
<!-- Generator: Adobe Illustrator 23.0.3, SVG Export Plug-In . SVG Version: 6.00 Build 0)  -->
<svg version="1.1" xmlns="http://www.w3.org/2000/svg" xmlns:xlink="http://www.w3.org/1999/xlink" x="0px" y="0px"
	 viewBox="0 0 51.9 51.97" style="enable-background:new 0 0 51.9 51.97;" xml:space="preserve">
<style type="text/css">
	.st0{display:none;}
	.st1{display:inline;}
	.st2{font-family:'FontAwesome';}
	.st3{font-size:50.9025px;}
	.st4{display:inline;fill:#FFFFFF;}
	.st5{font-size:29.0853px;}
	.st6{font-size:54.3686px;}
	.st7{fill:#FFFFFF;}
	.st8{font-size:42.4054px;}
	.st9{font-size:30.5508px;}
	.st10{font-size:53.1602px;}
	.st11{stroke:#000000;stroke-width:2;stroke-miterlimit:10;}
	.st12{font-size:16.4975px;}
</style>
<g id="Passenger_Purchases" class="st0">
	<text transform="matrix(1 0 0 1 11.278 44.4368)" class="st1 st2 st3"></text>
	<rect x="7.79" y="29.83" class="st4" width="40.13" height="22.63"/>
	<text transform="matrix(1 0 0 1 12.404 47.304)" class="st1 st2 st5"></text>
</g>
<g id="Layer_2" class="st0">
	<text transform="matrix(0.6612 0.7011 -0.7275 0.6861 -7.1341 25.462)" class="st1 st2 st6"></text>
	<g class="st1">
		<text transform="matrix(1 0 0 1 16.154 35.804)" class="st7 st2 st5"></text>
	</g>
</g>
<g id="Layer_3" class="st0">
	<text transform="matrix(1.0582 0 0 1 3.9167 39.5252)" class="st1 st2 st8"></text>
	<ellipse class="st4" cx="25.85" cy="26.02" rx="14.56" ry="13.44"/>
	<g class="st1">
		<text transform="matrix(1 0 0 1 12.9167 37.0941)" class="st2 st9"></text>
	</g>
</g>
<g id="Layer_3_copy">
	<g>
		<text transform="matrix(1 0 0 1 3.2272 45.4271)" class="st2 st10"></text>
	</g>
	<ellipse class="st7" cx="25.35" cy="26.77" rx="14.56" ry="13.44"/>
	<text transform="matrix(1.0582 0 0 1 18.0007 32.8509)" class="st11 st2 st12"></text>
	<path d="M26.87,22.58h-1.83c-0.61,0-1.1-0.49-1.1-1.1v-4.25c0-0.61,0.49-1.1,1.1-1.1h1.83c0.61,0,1.1,0.49,1.1,1.1v4.25
		C27.97,22.09,27.48,22.58,26.87,22.58z"/>
</g>
</svg>
