<?xml version="1.0" encoding="utf-8"?>
<!-- Generator: Adobe Illustrator 23.0.6, SVG Export Plug-In . SVG Version: 6.00 Build 0)  -->
<svg version="1.1" id="Layer_1" xmlns="http://www.w3.org/2000/svg" xmlns:xlink="http://www.w3.org/1999/xlink" x="0px" y="0px"
	 viewBox="0 0 51.9 52" style="enable-background:new 0 0 51.9 52;" xml:space="preserve">
<style type="text/css">
	.st0{enable-background:new    ;}
</style>
<g id="Layer_8_copy_4">
	<g>
		<path d="M44.4,12.5c0.5,0.5,0.9,1.2,1.3,2s0.5,1.6,0.5,2.3v30.3c0,0.7-0.3,1.3-0.8,1.8s-1.1,0.7-1.8,0.7H7.8
			c-0.7,0-1.3-0.3-1.8-0.7c-0.5-0.5-0.8-1.1-0.8-1.8V5c0-0.7,0.3-1.3,0.8-1.8s1.1-0.7,1.8-0.7h23.9c0.7,0,1.5,0.2,2.4,0.5
			c0.8,0.3,1.5,0.8,2,1.3L44.4,12.5z M42.8,46.3v-27H31.7c-0.7,0-1.3-0.3-1.8-0.7c-0.5-0.5-0.8-1.1-0.8-1.8v-11H8.7v40.4H42.8z
			 M32.6,6.1V16h10c-0.2-0.5-0.4-0.9-0.6-1.1l-8.3-8.2C33.4,6.4,33.1,6.3,32.6,6.1z"/>
	</g>
	<g class="st0">
		<path d="M38.1,34.7c0,2.5-0.7,4.9-2.1,7.1c-0.2,0.3-0.4,0.4-0.8,0.4H14.7c-0.3,0-0.6-0.1-0.8-0.4c-1.4-2.2-2.1-4.5-2.1-7.1
			c0-1.8,0.3-3.5,1-5.1c0.7-1.6,1.6-3,2.8-4.2c1.2-1.2,2.6-2.1,4.2-2.8c1.6-0.7,3.3-1,5.1-1s3.5,0.3,5.1,1c1.6,0.7,3,1.6,4.2,2.8
			s2.1,2.6,2.8,4.2S38.1,32.9,38.1,34.7z M16.9,36c0.4-0.4,0.5-0.8,0.5-1.3c0-0.5-0.2-1-0.5-1.3c-0.4-0.4-0.8-0.5-1.3-0.5
			s-1,0.2-1.3,0.5c-0.4,0.4-0.5,0.8-0.5,1.3c0,0.5,0.2,1,0.5,1.3c0.4,0.4,0.8,0.5,1.3,0.5S16.6,36.4,16.9,36z M19.8,29.5
			c0.4-0.4,0.5-0.8,0.5-1.3s-0.2-1-0.5-1.3s-0.8-0.5-1.3-0.5s-1,0.2-1.3,0.5s-0.5,0.8-0.5,1.3s0.2,1,0.5,1.3
			c0.4,0.4,0.8,0.5,1.3,0.5S19.4,29.8,19.8,29.5z M26.6,35.2l1.5-5.6c0.1-0.3,0-0.5-0.1-0.7c-0.1-0.2-0.3-0.4-0.6-0.4
			s-0.5,0-0.7,0.1c-0.2,0.1-0.4,0.3-0.4,0.6l-1.5,5.6c-0.6,0-1.1,0.3-1.6,0.6c-0.5,0.4-0.8,0.9-0.9,1.4c-0.2,0.8-0.1,1.5,0.3,2.1
			c0.4,0.7,1,1.1,1.7,1.3c0.8,0.2,1.5,0.1,2.1-0.3c0.7-0.4,1.1-1,1.3-1.7c0.2-0.6,0.1-1.2-0.1-1.7C27.4,36,27.1,35.5,26.6,35.2z
			 M26.3,26.7c0.4-0.4,0.5-0.8,0.5-1.3c0-0.5-0.2-1-0.5-1.3c-0.4-0.4-0.8-0.5-1.3-0.5s-1,0.2-1.3,0.5c-0.4,0.4-0.5,0.8-0.5,1.3
			c0,0.5,0.2,1,0.5,1.3c0.4,0.4,0.8,0.5,1.3,0.5S25.9,27,26.3,26.7z M32.9,29.5c0.4-0.4,0.5-0.8,0.5-1.3s-0.2-1-0.5-1.3
			c-0.4-0.4-0.8-0.5-1.3-0.5c-0.5,0-1,0.2-1.3,0.5c-0.4,0.4-0.5,0.8-0.5,1.3s0.2,1,0.5,1.3c0.4,0.4,0.8,0.5,1.3,0.5
			C32.1,30,32.5,29.8,32.9,29.5z M35.7,36c0.4-0.4,0.5-0.8,0.5-1.3c0-0.5-0.2-1-0.5-1.3c-0.4-0.4-0.8-0.5-1.3-0.5
			c-0.5,0-1,0.2-1.3,0.5c-0.4,0.4-0.5,0.8-0.5,1.3c0,0.5,0.2,1,0.5,1.3c0.4,0.4,0.8,0.5,1.3,0.5C34.9,36.6,35.3,36.4,35.7,36z"/>
	</g>
</g>
</svg>
