<?xml version="1.0" encoding="utf-8"?>
<!-- Generator: Adobe Illustrator 23.0.6, SVG Export Plug-In . SVG Version: 6.00 Build 0)  -->
<svg version="1.1" id="Layer_1" xmlns="http://www.w3.org/2000/svg" xmlns:xlink="http://www.w3.org/1999/xlink" x="0px" y="0px"
	 viewBox="0 0 51.9 52" style="enable-background:new 0 0 51.9 52;" xml:space="preserve">
<style type="text/css">
	.st0{enable-background:new    ;}
</style>
<g id="Layer_8_copy">
	<g>
		<path d="M44.4,12.5c0.5,0.5,0.9,1.2,1.3,2s0.5,1.6,0.5,2.3v30.3c0,0.7-0.3,1.3-0.8,1.8s-1.1,0.7-1.8,0.7H7.8
			c-0.7,0-1.3-0.3-1.8-0.7c-0.5-0.5-0.8-1.1-0.8-1.8V5c0-0.7,0.3-1.3,0.8-1.8s1.1-0.7,1.8-0.7h23.9c0.7,0,1.5,0.2,2.4,0.5
			c0.8,0.3,1.5,0.8,2,1.3L44.4,12.5z M42.8,46.3v-27H31.7c-0.7,0-1.3-0.3-1.8-0.7c-0.5-0.5-0.8-1.1-0.8-1.8v-11H8.7v40.4H42.8z
			 M32.6,6.1V16h10c-0.2-0.5-0.4-0.9-0.6-1.1l-8.3-8.2C33.4,6.4,33.1,6.3,32.6,6.1z"/>
	</g>
	<g class="st0">
		<path d="M32.7,21c0.4,0.5,0.5,1.2,0.2,2.1c-0.3,0.9-0.8,1.8-1.6,2.5L29,27.9L31.3,38c0,0.2,0,0.3-0.2,0.5l-1.9,1.4
			C29.2,39.9,29.1,40,29,40c0,0-0.1,0-0.1,0c-0.1,0-0.2-0.1-0.3-0.2l-4-7.3l-3.7,3.7l0.8,2.8c0,0.2,0,0.3-0.1,0.4l-1.4,1.4
			c-0.1,0.1-0.2,0.1-0.3,0.1h0c-0.1,0-0.3-0.1-0.3-0.2L16.6,37L13,34.3c-0.1-0.1-0.2-0.2-0.2-0.3c0-0.1,0-0.2,0.1-0.4l1.4-1.4
			c0.1-0.1,0.2-0.1,0.3-0.1c0.1,0,0.1,0,0.1,0l2.8,0.8l3.7-3.7l-7.3-4c-0.1-0.1-0.2-0.2-0.2-0.3c0-0.2,0-0.3,0.1-0.4l1.9-1.9
			c0.1-0.1,0.3-0.2,0.4-0.1l9.6,2.3l2.3-2.3c0.7-0.7,1.6-1.3,2.5-1.6S32.2,20.6,32.7,21z"/>
	</g>
</g>
</svg>
