<?xml version="1.0" encoding="utf-8"?>
<!-- Generator: Adobe Illustrator 23.0.6, SVG Export Plug-In . SVG Version: 6.00 Build 0)  -->
<svg version="1.1" id="Layer_1" xmlns="http://www.w3.org/2000/svg" xmlns:xlink="http://www.w3.org/1999/xlink" x="0px" y="0px"
	 viewBox="0 0 51.9 52" style="enable-background:new 0 0 51.9 52;" xml:space="preserve">
<g>
	<path d="M38,29.1h-3.2c-0.2,0-0.3,0.1-0.4,0.2c-0.1,0.1-0.2,0.3-0.2,0.4l0.3,7.6c0,0.2,0.1,0.3,0.2,0.4c0.1,0.1,0.3,0.2,0.5,0.2
		h2.5c0.2,0,0.3-0.1,0.5-0.2c0.1-0.1,0.2-0.3,0.2-0.4l0.3-7.6c0-0.2-0.1-0.3-0.2-0.4C38.4,29.2,38.2,29.1,38,29.1z"/>
	<path d="M37.7,39.6h-2.5c-0.2,0-0.3,0.1-0.4,0.2s-0.2,0.3-0.2,0.4v2.2c0,0.2,0.1,0.3,0.2,0.4c0.1,0.1,0.3,0.2,0.4,0.2h2.5
		c0.2,0,0.3-0.1,0.4-0.2c0.1-0.1,0.2-0.3,0.2-0.4v-2.2c0-0.2-0.1-0.3-0.2-0.4C38,39.6,37.9,39.6,37.7,39.6z"/>
	<path d="M50.2,33.4C50,33.1,49.8,33,49.5,33l-3-0.5c-0.1-0.4-0.3-0.9-0.5-1.3c0.2-0.3,0.5-0.6,0.8-1c0.4-0.6,0.8-1,0.9-1.2
		c0.2-0.2,0.2-0.5,0.2-0.7c0-0.3-0.1-0.5-0.2-0.7c-0.5-0.6-2.4-3.2-4-4.8c0-0.1,0-0.1,0-0.2c0-1.1-0.8-2.1-2.3-2.9
		c-1.5-0.8-3.1-1.2-4.8-1.3l-5.5-0.2L22.8,3.7c-0.1-0.3-0.3-0.4-0.6-0.4l-4.4-0.1c-0.3,0-0.5,0.1-0.6,0.3c-0.2,0.2-0.2,0.5-0.2,0.7
		l3.5,13.8l-9-0.3l-2.3-4.4c0,0,0-0.1-0.1-0.2c-0.2-0.2-0.3-0.3-0.6-0.3l-3.3-0.1c-0.3,0-0.5,0.1-0.6,0.3c-0.2,0.2-0.2,0.4-0.2,0.6
		l0.8,7.7l-1.4,7.6c0,0.2,0,0.5,0.2,0.6l0,0c0.2,0.2,0.3,0.3,0.6,0.3l3.3,0.1c0.3,0,0.5-0.1,0.7-0.4l2.6-4.2l9,0.3l-4.5,13.5
		c-0.1,0.2-0.1,0.4,0.1,0.6c0,0.1,0.1,0.1,0.1,0.1c0.1,0.1,0.3,0.2,0.4,0.2l3.9,0.7c0.4,0,0.6-0.1,0.8-0.3l0.2-0.3
		c0-0.1-0.1-0.2-0.1-0.3v-0.5l4.5,0.3c0.1,0.4,0.3,0.9,0.5,1.3c-0.2,0.3-0.5,0.6-0.8,1c-0.4,0.6-0.8,1-0.9,1.2
		c-0.2,0.2-0.2,0.5-0.2,0.7c0,0.3,0.1,0.5,0.2,0.7c0.5,0.7,1.5,1.7,3,3.1c0.5,0.5,1.2,0.4,1.5,0.1l2.3-1.8c0.4,0.2,0.8,0.3,1.2,0.5
		l0.5,3c0,0.3,0.2,0.6,0.4,0.7c0.2,0.2,0.5,0.3,0.7,0.3h4c0.6,0,1-0.3,1.1-0.9c0.2-0.6,0.3-1.7,0.5-3.1c0.4-0.1,0.8-0.3,1.2-0.5
		l2.3,1.8c0.2,0.2,0.5,0.2,0.7,0.2c0.4,0,0.8-0.2,2-1.4c0.9-0.9,1.5-1.6,1.8-2c0.2-0.2,0.3-0.5,0.3-0.7c0-0.3-0.1-0.5-0.3-0.7
		c-0.8-1-1.4-1.7-1.8-2.2c0.2-0.3,0.3-0.7,0.5-1.2l3.1-0.5c0.2-0.1,0.5-0.2,0.6-0.4c0.2-0.2,0.2-0.5,0.2-0.7v-4
		C50.4,33.8,50.3,33.6,50.2,33.4z M49.5,38.1c0,0,0,0.1-0.1,0.1c0,0.1-0.1,0.1-0.1,0.1h0l-3.6,0.6l-0.1,0.3
		c-0.2,0.6-0.5,1.2-0.7,1.6L44.8,41l0.2,0.2c0.4,0.6,1,1.4,2,2.5c0,0,0.1,0.1,0.1,0.2s0,0.1-0.1,0.1c-0.3,0.4-0.9,1-1.8,1.9
		c-1.1,1.1-1.4,1.1-1.4,1.2c0,0-0.1,0-0.2-0.1l-2.8-2.1L40.6,45c-0.5,0.3-1,0.5-1.6,0.7l-0.3,0.1l0,0.3c-0.2,2-0.4,2.9-0.5,3.3
		c0,0.1,0,0.1-0.2,0.1h-4c-0.1,0-0.1,0-0.1,0l-0.6-3.7L33,45.7c-0.5-0.2-1.1-0.4-1.6-0.6l-0.3-0.1l-2.8,2.1c0,0,0,0-0.1,0
		c0,0-0.1,0-0.1-0.1c-1.5-1.3-2.5-2.3-2.9-3c0,0,0-0.1,0-0.1c0,0,0-0.1,0.1-0.1c0.2-0.2,0.5-0.6,0.9-1.2c0.4-0.6,0.8-1,1-1.3
		l0.2-0.2l-0.1-0.3c-0.3-0.6-0.6-1.2-0.7-1.7l-0.1-0.3L21,38.4v-3c0-0.2,0-0.3,0.2-0.5c0.1-0.1,0.2-0.2,0.4-0.3l3.7-0.6l0.2-0.3
		c0.2-0.5,0.4-1,0.7-1.6c-0.5-0.8-1.3-1.7-2.2-2.8c-0.1-0.2-0.2-0.3-0.2-0.5c0-0.1,0.1-0.3,0.2-0.5c0.3-0.5,1-1.2,2-2.2
		c1-1,1.6-1.4,1.9-1.4c0.2,0,0.4,0.1,0.5,0.2l2,1.5l0.4-0.6l2.3,0.1c0.2-1.6,0.4-2.7,0.5-3.3c0.1-0.4,0.3-0.6,0.7-0.6h4.5
		c0.2,0,0.4,0.1,0.5,0.2c0.1,0.1,0.2,0.3,0.2,0.4l0.4,3c0.4-0.1,0.9-0.3,1.3-0.5c0.8-0.4,1.4-0.8,1.8-1.3c0,0.1,0.1,0.2,0.1,0.2
		c-0.1,0-0.1,0.1-0.2,0.1l0.7,0.7c0,0,0,0,0.1,0l0.3,0l0.1-0.2c1.2,1.3,2.3,2.9,2.6,3.3l0,0.1l0,0c0,0,0,0.1-0.1,0.1
		c-0.2,0.2-0.5,0.7-0.9,1.2c-0.4,0.6-0.8,1-1,1.3l-0.2,0.2l0.1,0.3c0.3,0.6,0.5,1.2,0.7,1.7l0.1,0.3l3.7,0.6c0,0.1,0.1,0.1,0.1,0.1
		V38.1z"/>
</g>
</svg>
