<?xml version="1.0" encoding="utf-8"?>
<!-- Generator: Adobe Illustrator 23.0.6, SVG Export Plug-In . SVG Version: 6.00 Build 0)  -->
<svg version="1.1" id="Layer_1" xmlns="http://www.w3.org/2000/svg" xmlns:xlink="http://www.w3.org/1999/xlink" x="0px" y="0px"
	 viewBox="0 0 51.9 52" style="enable-background:new 0 0 51.9 52;" xml:space="preserve">
<g>
	<path d="M26.1,32.1H32v0.7h10.2V6.1c0-0.4-0.2-0.8-0.5-1.1c-0.3-0.3-0.7-0.5-1.2-0.5h-6.8c-2.3,0-4.3,0.8-6,2.2s-2.5,3.3-2.5,5.4
		v19.1c0,0.2,0.1,0.4,0.3,0.5S25.9,32.1,26.1,32.1z"/>
	<rect x="32" y="35.4" width="10.2" height="4.9"/>
</g>
<g>
	<path d="M10.2,32.9h10.2v-7.1c1-0.3,1.8-0.9,2.5-1.7c0.6-0.8,0.9-1.7,0.9-2.7V6.1c0-0.4-0.1-0.8-0.5-1.1c-0.3-0.3-0.7-0.5-1.2-0.5
		c-0.5,0-0.9,0.2-1.2,0.5c-0.3,0.3-0.5,0.7-0.5,1.1v10c0,0.4-0.2,0.8-0.5,1.1c-0.3,0.3-0.7,0.5-1.2,0.5s-0.9-0.2-1.2-0.5
		C17.1,16.8,17,16.4,17,16v-10c0-0.4-0.2-0.8-0.5-1.1c-0.3-0.3-0.7-0.5-1.2-0.5c-0.5,0-0.9,0.2-1.2,0.5c-0.3,0.3-0.5,0.7-0.5,1.1v10
		c0,0.4-0.2,0.8-0.5,1.1c-0.3,0.3-0.7,0.5-1.2,0.5s-0.9-0.2-1.2-0.5c-0.3-0.3-0.5-0.7-0.5-1.1v-10c0-0.4-0.2-0.8-0.5-1.1
		C9.3,4.7,8.9,4.5,8.5,4.5C8,4.5,7.6,4.7,7.3,5C6.9,5.3,6.8,5.7,6.8,6.1v15.3c0,1,0.3,1.9,0.9,2.7c0.6,0.8,1.4,1.4,2.5,1.7V32.9z"/>
	<rect x="10.2" y="35.4" width="10.2" height="4.9"/>
</g>
<path d="M43.3,29.8V41c0,1.3-1.2,2.4-2.7,2.4H11.3c-1.5,0-2.7-1.1-2.7-2.4V29.8H4.5v15c0,1.3,1.2,2.4,2.7,2.4h37.6
	c1.5,0,2.7-1.1,2.7-2.4v-15H43.3z"/>
</svg>
