<?xml version="1.0" encoding="utf-8"?>
<!-- Generator: Adobe Illustrator 23.0.6, SVG Export Plug-In . SVG Version: 6.00 Build 0)  -->
<svg version="1.1" id="Layer_1" xmlns="http://www.w3.org/2000/svg" xmlns:xlink="http://www.w3.org/1999/xlink" x="0px" y="0px"
	 viewBox="0 0 51.9 52" style="enable-background:new 0 0 51.9 52;" xml:space="preserve">
<g>
	<path d="M49.7,41.5v3.9H4.3v-39h3.9v35.1C8.2,41.5,49.7,41.5,49.7,41.5z"/>
</g>
<path d="M40.2,14.6v17.3h-4.6V11h1c-2.5-1.7-5.5-2.7-8.7-2.7c-8.4,0-15.3,6.8-15.3,15.3c0,2.9,0.8,5.6,2.2,7.9v-7.3h4.6v7.8h-4.3
	c2.7,4.2,7.4,6.9,12.8,6.9c8.4,0,15.3-6.8,15.3-15.3C43.1,20.2,42,17.1,40.2,14.6z M26.3,31.9h-4.6V13.6h4.6V31.9z M33.3,31.9h-4.6
	V18.8h4.6V31.9z"/>
</svg>
