<?xml version="1.0" encoding="utf-8"?>
<!-- Generator: Adobe Illustrator 23.0.6, SVG Export Plug-In . SVG Version: 6.00 Build 0)  -->
<svg version="1.1" id="Layer_1" xmlns="http://www.w3.org/2000/svg" xmlns:xlink="http://www.w3.org/1999/xlink" x="0px" y="0px"
	 viewBox="0 0 51.9 52" style="enable-background:new 0 0 51.9 52;" xml:space="preserve">
<g>
	<path d="M7.8,25.7h4.9c0.2,0,0.4,0,0.6,0.1c0.2,0.1,0.3,0.2,0.4,0.3c0.1,0.1,0.2,0.2,0.3,0.4c0.1,0.2,0.1,0.3,0.2,0.4
		c0,0.1,0.1,0.3,0.1,0.5c0,0.2,0.1,0.3,0.1,0.4h5.8v-1.4c1.1-0.3,2-0.9,2.6-1.8c0.7-0.9,1-1.8,1-2.8V5.4c0-0.4-0.2-0.8-0.5-1.2
		s-0.8-0.5-1.3-0.5c-0.5,0-0.9,0.2-1.3,0.5c-0.4,0.3-0.5,0.7-0.5,1.2V16c0,0.4-0.2,0.8-0.5,1.2c-0.4,0.3-0.8,0.5-1.3,0.5
		c-0.5,0-0.9-0.2-1.3-0.5s-0.5-0.7-0.5-1.2V5.4c0-0.4-0.2-0.8-0.5-1.2c-0.4-0.3-0.8-0.5-1.3-0.5c-0.5,0-0.9,0.2-1.3,0.5
		c-0.4,0.3-0.5,0.7-0.5,1.2V16c0,0.4-0.2,0.8-0.5,1.2s-0.8,0.5-1.3,0.5c-0.5,0-0.9-0.2-1.3-0.5c-0.4-0.3-0.5-0.7-0.5-1.2V5.4
		c0-0.4-0.2-0.8-0.5-1.2C8.3,3.9,7.8,3.7,7.3,3.7c-0.5,0-0.9,0.2-1.3,0.5S5.5,4.9,5.5,5.4v16.4c0,1,0.3,2,1,2.8
		C6.9,25.1,7.3,25.4,7.8,25.7z"/>
	<path d="M17.8,41.4c0,0.2-0.2,0.5-0.5,1h2.7V40l-2.5,0.2C17.7,40.9,17.8,41.3,17.8,41.4z"/>
	<path d="M15.3,44.5c-0.4,0-0.7-0.1-0.9-0.3C14.1,44,14,43.7,14,43.4c0-0.1,0.1-0.3,0.2-0.5c0.1-0.2,0.2-0.4,0.3-0.6
		c0.1-0.2,0.3-0.4,0.4-0.6s0.3-0.4,0.3-0.5l-3.5-13.4H9.2v18.6c0,0.9,0.4,1.7,1.1,2.3c0.7,0.6,1.6,1,2.6,1h3.6c1,0,1.8-0.3,2.6-1
		c0.7-0.7,1.1-1.4,1.1-2.3v-1.9H15.3z M18.3,48c-0.5,0.4-1.1,0.6-1.8,0.6s-1.3-0.2-1.8-0.6c-0.5-0.4-0.8-0.9-0.8-1.5
		c0-0.6,0.3-1.1,0.8-1.5c0.5-0.4,1.1-0.6,1.8-0.6c0.7,0,1.3,0.2,1.8,0.6c0.5,0.4,0.8,0.9,0.8,1.5C19.1,47.1,18.8,47.6,18.3,48z"/>
</g>
<path d="M45,4.2c-0.4-0.3-0.8-0.5-1.3-0.5h-7.3c-2.5,0-4.6,0.8-6.4,2.4c-1.8,1.6-2.7,3.5-2.7,5.8v15.9h15.9c0.3,0,0.6,0.1,0.9,0.3
	c0.3,0.2,0.4,0.5,0.4,0.7v8.3c0,0.3-0.1,0.5-0.3,0.7c-0.2,0.2-0.5,0.3-0.8,0.4l-8.8,0.7v3.5h6.1c0.3,0,0.6,0.1,0.9,0.3
	c0.3,0.2,0.4,0.5,0.4,0.7s-0.1,0.5-0.4,0.7c-0.3,0.2-0.5,0.3-0.9,0.3h-6.1v1.9c0,0.9,0.4,1.7,1.1,2.3c0.7,0.6,1.6,1,2.6,1h3.6
	c1,0,1.8-0.3,2.6-1c0.7-0.7,1.1-1.4,1.1-2.3v-41C45.5,4.9,45.3,4.5,45,4.2z M41.2,48c-0.5,0.4-1.1,0.6-1.8,0.6s-1.3-0.2-1.8-0.6
	c-0.5-0.4-0.8-0.9-0.8-1.5c0-0.6,0.3-1.1,0.8-1.5c0.5-0.4,1.1-0.6,1.8-0.6c0.7,0,1.3,0.2,1.8,0.6c0.5,0.4,0.8,0.9,0.8,1.5
	C42,47.1,41.7,47.6,41.2,48z"/>
</svg>
