<?xml version="1.0" encoding="utf-8"?>
<!-- Generator: Adobe Illustrator 23.0.6, SVG Export Plug-In . SVG Version: 6.00 Build 0)  -->
<svg version="1.0" id="Layer_1" xmlns="http://www.w3.org/2000/svg" xmlns:xlink="http://www.w3.org/1999/xlink" x="0px" y="0px"
	 viewBox="0 0 31.65 51.04" style="enable-background:new 0 0 31.65 51.04;" xml:space="preserve">
<style type="text/css">
	.st0{fill:#FFFFFF;}
	.st1{opacity:0.95;fill:#04ADC4;}
	.st2{opacity:0.53;fill:#265BAA;}
	.st3{opacity:0.39;fill:#0C5A8A;}
</style>
<g>
	<g>
		<path class="st0" d="M4.56,45.58c-0.04-0.12-0.08-0.25-0.13-0.38c-0.05-0.13-0.09-0.26-0.13-0.39H2.92
			c-0.04,0.13-0.09,0.26-0.13,0.39c-0.04,0.13-0.09,0.25-0.13,0.38H1.84c0.13-0.38,0.26-0.73,0.38-1.05
			c0.12-0.32,0.24-0.63,0.35-0.91c0.11-0.29,0.23-0.56,0.34-0.81c0.11-0.26,0.23-0.51,0.34-0.75H4c0.12,0.24,0.23,0.49,0.34,0.75
			c0.11,0.26,0.23,0.53,0.34,0.81c0.11,0.29,0.23,0.59,0.35,0.91c0.12,0.32,0.25,0.67,0.38,1.05H4.56z M3.61,42.85
			c-0.02,0.05-0.04,0.12-0.08,0.21c-0.03,0.09-0.07,0.19-0.12,0.31c-0.04,0.12-0.09,0.24-0.15,0.38c-0.05,0.14-0.11,0.28-0.16,0.44
			h1.01c-0.05-0.15-0.11-0.3-0.16-0.44c-0.05-0.14-0.1-0.27-0.14-0.38c-0.05-0.12-0.09-0.22-0.12-0.31
			C3.65,42.97,3.63,42.9,3.61,42.85z"/>
		<path class="st0" d="M5.82,45.58v-3.53H8.2v0.67H6.62v0.69h1.41v0.65H6.62v0.85h1.7v0.67H5.82z"/>
		<path class="st0" d="M9.9,42.01c0.53,0,0.93,0.09,1.22,0.28c0.28,0.19,0.42,0.48,0.42,0.88c0,0.25-0.06,0.45-0.17,0.6
			c-0.11,0.15-0.28,0.28-0.49,0.36c0.07,0.09,0.15,0.19,0.22,0.3c0.08,0.11,0.16,0.23,0.23,0.36c0.08,0.12,0.15,0.25,0.22,0.39
			c0.07,0.13,0.14,0.27,0.2,0.39h-0.89c-0.06-0.12-0.13-0.23-0.2-0.35c-0.07-0.12-0.13-0.23-0.2-0.35
			c-0.07-0.11-0.14-0.22-0.21-0.32c-0.07-0.1-0.14-0.19-0.2-0.27H9.66v1.29H8.86V42.1c0.17-0.03,0.35-0.06,0.54-0.07
			S9.75,42.01,9.9,42.01z M9.94,42.69c-0.06,0-0.11,0-0.16,0c-0.05,0-0.09,0.01-0.13,0.01v0.96h0.22c0.3,0,0.51-0.04,0.64-0.11
			c0.13-0.07,0.19-0.2,0.19-0.38c0-0.17-0.07-0.3-0.2-0.37C10.39,42.72,10.2,42.69,9.94,42.69z"/>
		<path class="st0" d="M15.48,43.81c0,0.3-0.04,0.57-0.13,0.8c-0.09,0.23-0.21,0.42-0.37,0.57c-0.16,0.15-0.34,0.27-0.56,0.35
			c-0.22,0.08-0.45,0.12-0.69,0.12c-0.24,0-0.47-0.04-0.68-0.12c-0.21-0.08-0.4-0.19-0.56-0.35c-0.16-0.15-0.29-0.35-0.38-0.57
			c-0.09-0.23-0.14-0.49-0.14-0.8c0-0.3,0.05-0.57,0.14-0.8c0.09-0.23,0.22-0.42,0.38-0.58c0.16-0.16,0.35-0.27,0.56-0.35
			c0.21-0.08,0.43-0.12,0.67-0.12c0.24,0,0.47,0.04,0.68,0.12c0.21,0.08,0.4,0.2,0.56,0.35c0.16,0.16,0.29,0.35,0.38,0.58
			C15.44,43.24,15.48,43.51,15.48,43.81z M12.79,43.81c0,0.17,0.02,0.33,0.06,0.47s0.1,0.26,0.18,0.36c0.08,0.1,0.18,0.18,0.29,0.23
			c0.12,0.05,0.25,0.08,0.4,0.08c0.15,0,0.28-0.03,0.39-0.08c0.12-0.05,0.22-0.13,0.29-0.23c0.08-0.1,0.14-0.22,0.18-0.36
			c0.04-0.14,0.06-0.3,0.06-0.47c0-0.17-0.02-0.33-0.06-0.47c-0.04-0.14-0.1-0.26-0.18-0.36c-0.08-0.1-0.18-0.18-0.29-0.23
			c-0.12-0.05-0.25-0.08-0.39-0.08c-0.15,0-0.28,0.03-0.4,0.08c-0.12,0.06-0.21,0.13-0.29,0.23c-0.08,0.1-0.14,0.22-0.18,0.36
			C12.81,43.49,12.79,43.64,12.79,43.81z"/>
		<path class="st0" d="M18.89,45.65c-0.57,0-1.01-0.16-1.31-0.48c-0.3-0.32-0.45-0.77-0.45-1.36c0-0.29,0.05-0.55,0.14-0.78
			c0.09-0.23,0.22-0.42,0.38-0.58c0.16-0.16,0.35-0.28,0.57-0.36c0.22-0.08,0.46-0.12,0.72-0.12c0.15,0,0.29,0.01,0.41,0.03
			c0.12,0.02,0.23,0.05,0.32,0.08c0.09,0.03,0.17,0.06,0.23,0.09c0.06,0.03,0.11,0.05,0.13,0.07l-0.23,0.64
			c-0.11-0.06-0.23-0.11-0.38-0.15c-0.14-0.04-0.31-0.06-0.49-0.06c-0.12,0-0.24,0.02-0.36,0.06c-0.12,0.04-0.22,0.11-0.31,0.2
			c-0.09,0.09-0.16,0.21-0.22,0.35c-0.05,0.14-0.08,0.32-0.08,0.52c0,0.16,0.02,0.31,0.05,0.46c0.04,0.14,0.09,0.26,0.17,0.36
			c0.08,0.1,0.18,0.18,0.31,0.24c0.13,0.06,0.29,0.09,0.47,0.09c0.12,0,0.22-0.01,0.31-0.02c0.09-0.01,0.17-0.03,0.24-0.05
			c0.07-0.02,0.13-0.04,0.19-0.06c0.05-0.02,0.1-0.05,0.15-0.07l0.22,0.64c-0.11,0.07-0.27,0.13-0.47,0.18
			C19.4,45.62,19.16,45.65,18.89,45.65z"/>
		<path class="st0" d="M22.9,44.9v0.68h-2.36v-3.53h0.79v2.84H22.9z"/>
		<path class="st0" d="M24.69,45.65c-0.25,0-0.46-0.03-0.64-0.1c-0.18-0.07-0.33-0.17-0.45-0.29c-0.12-0.12-0.2-0.27-0.26-0.44
			c-0.06-0.17-0.08-0.36-0.08-0.57v-2.19h0.79v2.13c0,0.14,0.02,0.26,0.05,0.36c0.03,0.1,0.08,0.18,0.13,0.24s0.12,0.11,0.2,0.13
			c0.08,0.03,0.17,0.04,0.26,0.04c0.19,0,0.35-0.06,0.47-0.18c0.12-0.12,0.18-0.32,0.18-0.61v-2.13h0.79v2.19
			c0,0.21-0.03,0.4-0.09,0.57c-0.06,0.17-0.15,0.32-0.26,0.45c-0.12,0.12-0.27,0.22-0.45,0.29C25.16,45.62,24.94,45.65,24.69,45.65z
			"/>
		<path class="st0" d="M28.05,45.62c-0.19,0-0.39-0.01-0.58-0.02c-0.19-0.01-0.39-0.04-0.6-0.08V42.1c0.16-0.03,0.34-0.05,0.53-0.07
			c0.19-0.02,0.37-0.02,0.54-0.02c0.22,0,0.43,0.02,0.62,0.05c0.19,0.03,0.35,0.09,0.49,0.17c0.14,0.08,0.24,0.18,0.32,0.31
			c0.08,0.13,0.11,0.28,0.11,0.47c0,0.28-0.14,0.5-0.41,0.67c0.22,0.08,0.38,0.2,0.46,0.35c0.08,0.15,0.12,0.31,0.12,0.49
			c0,0.37-0.13,0.65-0.4,0.83C28.98,45.53,28.58,45.62,28.05,45.62z M27.64,43.44h0.39c0.24,0,0.42-0.03,0.52-0.09
			c0.11-0.06,0.16-0.16,0.16-0.3c0-0.14-0.05-0.24-0.16-0.3c-0.11-0.06-0.27-0.09-0.48-0.09c-0.07,0-0.14,0-0.22,0
			c-0.08,0-0.15,0.01-0.21,0.01V43.44z M27.64,44.04v0.91c0.06,0.01,0.12,0.01,0.19,0.02c0.07,0,0.14,0.01,0.22,0.01
			c0.24,0,0.43-0.03,0.57-0.1c0.15-0.07,0.22-0.19,0.22-0.38c0-0.16-0.06-0.28-0.18-0.35c-0.12-0.07-0.3-0.1-0.52-0.1H27.64z"/>
	</g>
	<g>
		<path class="st0" d="M2.44,48.86c0.19,0,0.33-0.03,0.44-0.1c0.1-0.07,0.16-0.18,0.16-0.33c0-0.09-0.02-0.16-0.05-0.22
			c-0.03-0.06-0.08-0.11-0.13-0.15c-0.06-0.04-0.12-0.08-0.19-0.1c-0.07-0.03-0.15-0.06-0.23-0.09c-0.1-0.04-0.19-0.08-0.27-0.12
			c-0.08-0.04-0.15-0.09-0.2-0.14c-0.06-0.05-0.1-0.11-0.13-0.18c-0.03-0.07-0.04-0.15-0.04-0.24c0-0.21,0.07-0.36,0.21-0.47
			c0.14-0.11,0.33-0.16,0.57-0.16c0.06,0,0.13,0,0.19,0.01c0.06,0.01,0.12,0.02,0.18,0.04c0.05,0.02,0.1,0.03,0.15,0.05
			c0.05,0.02,0.08,0.04,0.11,0.06l-0.08,0.2c-0.07-0.05-0.15-0.08-0.25-0.11c-0.1-0.03-0.2-0.04-0.31-0.04
			c-0.08,0-0.15,0.01-0.21,0.02c-0.06,0.02-0.12,0.04-0.17,0.07c-0.05,0.03-0.08,0.08-0.11,0.13c-0.03,0.05-0.04,0.11-0.04,0.18
			c0,0.07,0.01,0.14,0.04,0.19c0.03,0.05,0.07,0.1,0.12,0.13c0.05,0.04,0.11,0.07,0.18,0.1c0.07,0.03,0.14,0.06,0.22,0.09
			c0.1,0.04,0.19,0.08,0.27,0.12c0.08,0.04,0.16,0.09,0.22,0.14c0.06,0.05,0.11,0.12,0.15,0.2c0.04,0.08,0.06,0.17,0.06,0.28
			c0,0.22-0.08,0.38-0.23,0.49c-0.15,0.11-0.36,0.16-0.62,0.16c-0.09,0-0.18-0.01-0.25-0.02c-0.08-0.01-0.15-0.03-0.21-0.04
			c-0.06-0.02-0.11-0.04-0.15-0.05c-0.04-0.02-0.07-0.03-0.1-0.05L1.8,48.7c0.02,0.01,0.05,0.03,0.09,0.05
			c0.04,0.02,0.09,0.04,0.14,0.05c0.05,0.02,0.11,0.03,0.18,0.04C2.28,48.86,2.36,48.86,2.44,48.86z"/>
		<path class="st0" d="M6.13,47.81c0,0.21-0.03,0.39-0.09,0.55c-0.06,0.16-0.14,0.29-0.25,0.4s-0.22,0.18-0.36,0.24
			C5.3,49.04,5.15,49.07,5,49.07c-0.15,0-0.3-0.03-0.44-0.08c-0.14-0.05-0.26-0.13-0.36-0.24c-0.1-0.11-0.19-0.24-0.25-0.4
			c-0.06-0.16-0.09-0.34-0.09-0.55c0-0.21,0.03-0.39,0.09-0.54c0.06-0.16,0.14-0.29,0.25-0.39c0.1-0.11,0.22-0.18,0.36-0.24
			C4.7,46.58,4.84,46.55,5,46.55c0.15,0,0.3,0.03,0.44,0.08c0.14,0.05,0.26,0.13,0.36,0.24s0.19,0.24,0.25,0.39
			C6.1,47.42,6.13,47.6,6.13,47.81z M5.88,47.81c0-0.16-0.02-0.31-0.06-0.44c-0.04-0.13-0.1-0.24-0.18-0.33
			c-0.08-0.09-0.17-0.16-0.28-0.21C5.25,46.79,5.13,46.76,5,46.76c-0.13,0-0.26,0.02-0.36,0.07c-0.11,0.05-0.2,0.12-0.28,0.21
			c-0.08,0.09-0.14,0.2-0.18,0.33c-0.04,0.13-0.06,0.27-0.06,0.44s0.02,0.31,0.06,0.44c0.04,0.13,0.1,0.24,0.18,0.33
			c0.08,0.09,0.17,0.16,0.28,0.21c0.11,0.05,0.23,0.07,0.36,0.07c0.13,0,0.26-0.02,0.36-0.07c0.11-0.05,0.2-0.12,0.28-0.21
			c0.08-0.09,0.14-0.2,0.18-0.33C5.86,48.11,5.88,47.97,5.88,47.81z"/>
		<path class="st0" d="M8.27,48.81v0.21H6.9V46.6h0.24v2.21H8.27z"/>
		<path class="st0" d="M9.74,49.07c-0.16,0-0.3-0.02-0.41-0.07c-0.11-0.05-0.2-0.12-0.27-0.2s-0.12-0.19-0.15-0.3
			c-0.03-0.12-0.05-0.24-0.05-0.37V46.6H9.1v1.49c0,0.13,0.02,0.25,0.05,0.34c0.03,0.1,0.08,0.18,0.13,0.24s0.12,0.11,0.2,0.14
			c0.08,0.03,0.17,0.05,0.26,0.05c0.1,0,0.19-0.02,0.26-0.05c0.08-0.03,0.15-0.08,0.2-0.14s0.1-0.14,0.13-0.24
			c0.03-0.1,0.05-0.21,0.05-0.34V46.6h0.24v1.52c0,0.13-0.02,0.26-0.05,0.37c-0.03,0.11-0.08,0.22-0.15,0.3
			c-0.07,0.09-0.16,0.15-0.27,0.2C10.04,49.04,9.9,49.07,9.74,49.07z"/>
		<path class="st0" d="M13.01,46.6v0.21h-0.77v2.21H12v-2.21h-0.77V46.6H13.01z"/>
		<path class="st0" d="M13.63,46.6h0.24v2.41h-0.24V46.6z"/>
		<path class="st0" d="M16.9,47.81c0,0.21-0.03,0.39-0.09,0.55c-0.06,0.16-0.14,0.29-0.25,0.4c-0.1,0.11-0.22,0.18-0.36,0.24
			c-0.14,0.05-0.28,0.08-0.44,0.08s-0.3-0.03-0.44-0.08c-0.14-0.05-0.26-0.13-0.36-0.24c-0.1-0.11-0.19-0.24-0.25-0.4
			c-0.06-0.16-0.09-0.34-0.09-0.55c0-0.21,0.03-0.39,0.09-0.54c0.06-0.16,0.14-0.29,0.25-0.39c0.1-0.11,0.22-0.18,0.36-0.24
			c0.14-0.05,0.28-0.08,0.44-0.08s0.3,0.03,0.44,0.08c0.14,0.05,0.26,0.13,0.36,0.24c0.1,0.11,0.18,0.24,0.25,0.39
			S16.9,47.6,16.9,47.81z M16.65,47.81c0-0.16-0.02-0.31-0.06-0.44c-0.04-0.13-0.1-0.24-0.18-0.33c-0.08-0.09-0.17-0.16-0.28-0.21
			c-0.11-0.05-0.23-0.07-0.36-0.07c-0.13,0-0.26,0.02-0.36,0.07c-0.11,0.05-0.2,0.12-0.28,0.21c-0.08,0.09-0.14,0.2-0.18,0.33
			c-0.04,0.13-0.06,0.27-0.06,0.44s0.02,0.31,0.06,0.44c0.04,0.13,0.1,0.24,0.18,0.33c0.08,0.09,0.17,0.16,0.28,0.21
			c0.11,0.05,0.23,0.07,0.36,0.07c0.13,0,0.26-0.02,0.36-0.07s0.2-0.12,0.28-0.21c0.08-0.09,0.14-0.2,0.18-0.33
			C16.63,48.11,16.65,47.97,16.65,47.81z"/>
		<path class="st0" d="M19.32,49.01c-0.04-0.08-0.1-0.18-0.17-0.29c-0.07-0.11-0.14-0.23-0.23-0.35c-0.08-0.12-0.17-0.25-0.26-0.38
			c-0.09-0.13-0.18-0.26-0.27-0.38c-0.09-0.12-0.18-0.24-0.26-0.35c-0.09-0.11-0.16-0.2-0.23-0.28v2.03h-0.23V46.6h0.19
			c0.12,0.13,0.25,0.28,0.38,0.46c0.14,0.17,0.27,0.35,0.4,0.53c0.13,0.18,0.25,0.36,0.36,0.53c0.11,0.17,0.21,0.32,0.28,0.45V46.6
			h0.23v2.41H19.32z"/>
		<path class="st0" d="M20.91,48.86c0.19,0,0.33-0.03,0.44-0.1c0.1-0.07,0.16-0.18,0.16-0.33c0-0.09-0.02-0.16-0.05-0.22
			c-0.03-0.06-0.08-0.11-0.13-0.15c-0.06-0.04-0.12-0.08-0.19-0.1c-0.07-0.03-0.15-0.06-0.23-0.09c-0.1-0.04-0.19-0.08-0.27-0.12
			c-0.08-0.04-0.15-0.09-0.2-0.14c-0.06-0.05-0.1-0.11-0.13-0.18c-0.03-0.07-0.04-0.15-0.04-0.24c0-0.21,0.07-0.36,0.21-0.47
			c0.14-0.11,0.33-0.16,0.57-0.16c0.07,0,0.13,0,0.19,0.01c0.06,0.01,0.12,0.02,0.18,0.04c0.05,0.02,0.1,0.03,0.15,0.05
			c0.05,0.02,0.08,0.04,0.11,0.06l-0.08,0.2c-0.07-0.05-0.15-0.08-0.25-0.11c-0.1-0.03-0.2-0.04-0.31-0.04
			c-0.08,0-0.15,0.01-0.21,0.02c-0.06,0.02-0.12,0.04-0.17,0.07c-0.05,0.03-0.08,0.08-0.11,0.13c-0.03,0.05-0.04,0.11-0.04,0.18
			c0,0.07,0.01,0.14,0.04,0.19c0.03,0.05,0.07,0.1,0.12,0.13c0.05,0.04,0.11,0.07,0.18,0.1c0.07,0.03,0.14,0.06,0.22,0.09
			c0.1,0.04,0.19,0.08,0.27,0.12c0.08,0.04,0.16,0.09,0.22,0.14c0.06,0.05,0.11,0.12,0.15,0.2c0.04,0.08,0.06,0.17,0.06,0.28
			c0,0.22-0.08,0.38-0.23,0.49c-0.15,0.11-0.36,0.16-0.62,0.16c-0.09,0-0.18-0.01-0.25-0.02c-0.08-0.01-0.15-0.03-0.21-0.04
			c-0.06-0.02-0.11-0.04-0.15-0.05c-0.04-0.02-0.07-0.03-0.1-0.05l0.08-0.21c0.02,0.01,0.05,0.03,0.09,0.05
			c0.04,0.02,0.09,0.04,0.14,0.05c0.05,0.02,0.11,0.03,0.18,0.04C20.75,48.86,20.83,48.86,20.91,48.86z"/>
	</g>
	<g>
		<path class="st0" d="M23.18,46.6h0.24v2.41h-0.24V46.6z"/>
		<path class="st0" d="M25.93,49.02c-0.04-0.08-0.1-0.18-0.17-0.29c-0.07-0.11-0.14-0.23-0.23-0.35s-0.17-0.25-0.26-0.38
			s-0.18-0.26-0.27-0.38c-0.09-0.12-0.18-0.24-0.26-0.35c-0.09-0.11-0.16-0.2-0.23-0.28v2.03h-0.23V46.6h0.19
			c0.12,0.13,0.25,0.28,0.38,0.46c0.14,0.17,0.27,0.35,0.4,0.53c0.13,0.18,0.25,0.36,0.36,0.53c0.11,0.17,0.21,0.32,0.28,0.45V46.6
			h0.23v2.41H25.93z"/>
		<path class="st0" d="M28,49.07c-0.16,0-0.3-0.03-0.43-0.08c-0.13-0.06-0.25-0.14-0.35-0.24c-0.1-0.11-0.18-0.24-0.23-0.4
			c-0.06-0.16-0.09-0.34-0.09-0.54c0-0.2,0.03-0.38,0.09-0.54c0.06-0.16,0.14-0.29,0.25-0.4c0.1-0.11,0.22-0.19,0.36-0.24
			c0.13-0.05,0.28-0.08,0.42-0.08c0.09,0,0.17,0.01,0.25,0.02c0.07,0.01,0.14,0.03,0.2,0.04c0.06,0.02,0.1,0.03,0.14,0.05
			c0.04,0.02,0.07,0.03,0.09,0.05l-0.08,0.21c-0.06-0.03-0.13-0.07-0.22-0.1c-0.09-0.03-0.2-0.05-0.33-0.05
			c-0.15,0-0.28,0.03-0.4,0.08c-0.11,0.05-0.21,0.12-0.28,0.22s-0.13,0.2-0.17,0.33c-0.04,0.13-0.06,0.27-0.06,0.42
			c0,0.16,0.02,0.3,0.06,0.43c0.04,0.13,0.09,0.24,0.17,0.33c0.07,0.09,0.17,0.16,0.27,0.21c0.11,0.05,0.23,0.07,0.37,0.07
			c0.15,0,0.28-0.01,0.38-0.04c0.1-0.03,0.18-0.06,0.23-0.09l0.07,0.2c-0.02,0.01-0.04,0.02-0.08,0.04
			c-0.04,0.02-0.09,0.03-0.15,0.05s-0.13,0.03-0.21,0.04C28.19,49.06,28.1,49.07,28,49.07z"/>
		<path class="st0" d="M29.75,48.87c0,0.05-0.02,0.1-0.05,0.14c-0.03,0.04-0.08,0.06-0.14,0.06c-0.06,0-0.11-0.02-0.14-0.06
			c-0.03-0.04-0.05-0.08-0.05-0.14s0.02-0.1,0.05-0.14c0.03-0.04,0.08-0.06,0.14-0.06c0.06,0,0.11,0.02,0.14,0.06
			C29.73,48.77,29.75,48.81,29.75,48.87z"/>
	</g>
	<path class="st1" d="M15.89,29.34h1.1c0.07-6.43,0.16-15.5,0.16-16.41c0-1.43-0.23-1.66-1.88-1.13c-1.66,0.53-8.97,3.02-10.25,3.69
		c-1.28,0.68-1.06,1.58-1.06,1.58s0,20.73,0,21.71s1.66,0.83,2.64,0.3c0.78-0.42,6.84-2.27,9.3-3.01V29.34z"/>
	<path class="st2" d="M11.64,3.43c0,0,0.23,20.51,0.23,21.41s0.83,1.58,1.36,1.81s8.9,3.17,9.8,3.47c0.9,0.3,1.81,0.08,1.81-1.58
		c0-1.66-0.23-18.7-0.23-20.21s-1.06-1.66-2.19-2.11c-1.13-0.45-7.99-3.17-9.05-3.54S11.87,2.98,11.64,3.43z"/>
	<path class="st3" d="M27.02,24.39c-0.08-1.28-0.83-1.83-1.48-2.14c-0.65-0.3-8.65-4.17-9.85-4.78c-1.21-0.6-1.66-0.45-1.66,0.85
		c0,1.31-0.13,12.82-0.08,14.65c0.05,1.83,0.1,1.88,1.08,2.41c0.15,0.08,0.45,0.21,0.85,0.37v-6.43h2.76v7.48
		c2.56,0.95,5.66,2.06,6.56,2.42c1.51,0.6,1.88,0.08,1.88-1.06C27.1,37.06,27.02,24.39,27.02,24.39z"/>
	<path class="st0" d="M21.51,28.11v-2.24c0-0.37-0.3-0.67-0.67-0.67s-0.67,0.3-0.67,0.67v1.18l-1.65-1.31
		c-0.07-1.87-0.17-5.02-0.17-7.46c0-3.69-2.26-2.87-2.26-0.08c0,2.04,0,5.57,0,7.32l-0.08,0l-1.67,1.36v-1.01
		c0-0.37-0.3-0.67-0.67-0.67S13,25.5,13,25.87v2.11l-6.26,5.16v1.06l9.12-4.45l2.79,0.08l9.2,4.3v-0.98L21.51,28.11z"/>
</g>
</svg>
