<?xml version="1.0" encoding="utf-8"?>
<!-- Generator: Adobe Illustrator 22.1.0, SVG Export Plug-In . SVG Version: 6.00 Build 0)  -->
<svg version="1.1" id="Layer_1" xmlns="http://www.w3.org/2000/svg" xmlns:xlink="http://www.w3.org/1999/xlink" x="0px" y="0px"
	 viewBox="0 0 103 37" style="enable-background:new 0 0 103 37;" xml:space="preserve">
<style type="text/css">
	.st0{fill:#E9EFF6;}
</style>
<g>
	<g>
		<path class="st0" d="M37.1,17.2c0-1.5,0-2.8-0.1-3.9h2l0.1,2.1h0c0.9-1.5,2.3-2.3,4.3-2.3c2.9,0,5.1,2.5,5.1,6.1
			c0,4.3-2.6,6.5-5.5,6.5c-1.6,0-3-0.7-3.7-1.9h0v6.6h-2.2V17.2z M39.3,20.4c0,0.3,0,0.6,0.1,0.9c0.4,1.5,1.7,2.6,3.3,2.6
			c2.3,0,3.7-1.9,3.7-4.7c0-2.4-1.3-4.5-3.6-4.5c-1.5,0-2.9,1.1-3.3,2.7c-0.1,0.3-0.1,0.6-0.1,0.9V20.4z"/>
		<path class="st0" d="M62.2,19.2c0,4.5-3.1,6.4-6,6.4c-3.3,0-5.8-2.4-5.8-6.2c0-4,2.6-6.4,6-6.4C59.9,13,62.2,15.5,62.2,19.2z
			 M52.6,19.3c0,2.6,1.5,4.6,3.7,4.6c2.1,0,3.7-2,3.7-4.7c0-2-1-4.6-3.6-4.6C53.8,14.6,52.6,17,52.6,19.3z"/>
		<path class="st0" d="M65,17c0-1.4,0-2.6-0.1-3.8h1.9l0.1,2.4H67c0.5-1.6,1.9-2.6,3.3-2.6c0.2,0,0.4,0,0.6,0.1v2.1
			c-0.2,0-0.4-0.1-0.7-0.1c-1.5,0-2.6,1.2-2.9,2.8c0,0.3-0.1,0.6-0.1,1v6.4H65V17z"/>
		<path class="st0" d="M76.4,9.8v3.5h3.1v1.7h-3.1v6.5c0,1.5,0.4,2.3,1.6,2.3c0.6,0,1-0.1,1.3-0.1l0.1,1.6c-0.4,0.2-1.1,0.3-1.9,0.3
			c-1,0-1.8-0.3-2.4-0.9c-0.6-0.6-0.8-1.7-0.8-3.1v-6.6h-1.9v-1.7h1.9v-2.9L76.4,9.8z"/>
		<path class="st0" d="M83.1,19.7c0,3,1.9,4.2,4.1,4.2c1.6,0,2.5-0.3,3.3-0.6l0.4,1.6c-0.8,0.3-2.1,0.7-4,0.7
			c-3.7,0-5.9-2.4-5.9-6.1s2.1-6.5,5.7-6.5c3.9,0,5,3.5,5,5.7c0,0.4,0,0.8-0.1,1H83.1z M89.5,18.1c0-1.4-0.6-3.6-3-3.6
			c-2.2,0-3.2,2-3.4,3.6H89.5z"/>
		<path class="st0" d="M94.4,17c0-1.4,0-2.6-0.1-3.8h1.9l0.1,2.4h0.1c0.5-1.6,1.9-2.6,3.3-2.6c0.2,0,0.4,0,0.6,0.1v2.1
			c-0.2,0-0.4-0.1-0.7-0.1c-1.5,0-2.6,1.2-2.9,2.8c-0.1,0.3-0.1,0.6-0.1,1v6.4h-2.2V17z"/>
	</g>
	<g>
		<path class="st0" d="M26.8,17.1c-0.1-0.1-2.8-1.8-5.4-3.5v-1.3c0-0.4-0.4-0.8-0.8-0.8c-0.4,0-0.8,0.4-0.8,0.8l0,0.3
			c-2-1.3-3.4-2.3-3.4-2.3s0.1-3,0.2-6c0-3.1-3.4-3.1-3.3,0c0,3.1,0.2,6,0.2,6s-1.4,1-3.4,2.3v-0.3c0-0.4-0.4-0.8-0.8-0.8
			c-0.4,0-0.8,0.4-0.8,0.8v1.3c-2.6,1.7-5.3,3.4-5.4,3.5c-0.2,0.3-0.8,1.7-0.6,1.9c0.1,0.1,2-0.9,4.1-1.8l0,0.3
			c0,0.1,0.1,0.1,0.1,0.1c0.1,0,0.1-0.1,0.1-0.1V17c0.2-0.1,0.4-0.2,0.6-0.3v0.2c0,0.1,0.1,0.1,0.1,0.1c0.1,0,0.1-0.1,0.1-0.1v-0.3
			c0.4-0.2,0.8-0.3,1.1-0.5v0.3c0,0.1,0.1,0.1,0.1,0.1c0.1,0,0.1-0.1,0.1-0.1l0-0.4c0.4-0.2,0.7-0.3,1.1-0.5l0,0.3
			c0,0.1,0.1,0.1,0.1,0.1c0.1,0,0.1-0.1,0.1-0.1v-0.4c0.5-0.2,0.8-0.3,0.9-0.3c0.6,0,2.2,0,2.2,0s0.1,5.1,0.3,6.4
			c0.1,0.5,0.2,1.1,0.4,1.8c-1,0.6-2.5,1.6-2.7,1.8c-0.4,0.3-0.7,0.6-0.7,0.8c0,0.2-0.1,0.7,0.1,0.6c0.2,0,3-1,4-1.3
			c0.1,0.2,0.1,0.3,0.2,0.3c0,0,0.1-0.1,0.2-0.3c1,0.3,3.8,1.3,4,1.3c0.2,0,0.1-0.4,0.1-0.6c0-0.2-0.3-0.5-0.7-0.8
			c-0.3-0.2-1.8-1.2-2.7-1.8c0.2-0.7,0.3-1.3,0.4-1.8c0.2-1.2,0.3-6.4,0.3-6.4s1.5,0,2.2,0c0.1,0,0.4,0.1,0.9,0.3l0,0.4
			c0,0.1,0.1,0.1,0.1,0.1c0.1,0,0.1-0.1,0.1-0.1v-0.3c0.3,0.1,0.7,0.3,1.1,0.5v0.4c0,0.1,0.1,0.1,0.1,0.1c0.1,0,0.1-0.1,0.1-0.1
			v-0.3c0.4,0.2,0.7,0.3,1.1,0.5l0,0.3c0,0.1,0.1,0.1,0.1,0.1c0.1,0,0.1-0.1,0.1-0.1l0-0.2c0.2,0.1,0.4,0.2,0.6,0.3v0.4
			c0,0.1,0.1,0.1,0.1,0.1c0.1,0,0.1-0.1,0.1-0.1v-0.3c2.1,0.9,4,1.9,4.1,1.8C27.6,18.8,27,17.4,26.8,17.1z"/>
		<rect id="XMLID_98_" x="8.8" y="19.7" class="st0" width="0.4" height="12.1"/>
		<rect id="XMLID_97_" x="7.4" y="20.7" class="st0" width="0.4" height="6"/>
		<rect id="XMLID_96_" x="10.1" y="18.7" class="st0" width="0.4" height="3"/>
		<rect id="XMLID_95_" x="20.3" y="18" class="st0" width="0.4" height="12.1"/>
		<rect id="XMLID_94_" x="21.6" y="19.4" class="st0" width="0.4" height="6"/>
		<rect id="XMLID_93_" x="22.8" y="20.4" class="st0" width="0.4" height="2.1"/>
		<rect id="XMLID_89_" x="20.3" y="32.2" class="st0" width="0.4" height="1.9"/>
	</g>
</g>
</svg>
