<?xml version="1.0" encoding="utf-8"?>
<!-- Generator: Adobe Illustrator 23.0.6, SVG Export Plug-In . SVG Version: 6.00 Build 0)  -->
<svg version="1.0" id="Layer_1" xmlns="http://www.w3.org/2000/svg" xmlns:xlink="http://www.w3.org/1999/xlink" x="0px" y="0px"
	 viewBox="0 0 113.87 39.78" style="enable-background:new 0 0 113.87 39.78;" xml:space="preserve">
<style type="text/css">
	.st0{fill:#FFFFFF;}
	.st1{opacity:0.95;fill:#04ADC4;}
	.st2{opacity:0.53;fill:#265BAA;}
	.st3{opacity:0.39;fill:#0C5A8A;}
</style>
<g>
	<g>
		<g>
			<path class="st0" d="M42.04,26.47c-0.11-0.34-0.22-0.68-0.35-1.04c-0.12-0.35-0.25-0.71-0.37-1.06h-3.78
				c-0.12,0.35-0.25,0.71-0.37,1.06c-0.12,0.35-0.24,0.7-0.34,1.03h-2.26c0.36-1.04,0.71-2.01,1.04-2.89
				c0.33-0.89,0.65-1.72,0.96-2.5c0.31-0.78,0.62-1.53,0.93-2.23s0.62-1.39,0.95-2.06h2.07c0.32,0.67,0.63,1.36,0.94,2.06
				c0.31,0.7,0.62,1.45,0.93,2.23c0.31,0.78,0.63,1.62,0.96,2.5c0.33,0.89,0.67,1.85,1.04,2.89H42.04z M39.42,18.98
				c-0.05,0.14-0.12,0.33-0.21,0.57c-0.09,0.24-0.2,0.52-0.32,0.84c-0.12,0.32-0.25,0.67-0.4,1.05c-0.15,0.38-0.3,0.78-0.45,1.2
				h2.77c-0.15-0.42-0.29-0.82-0.43-1.2c-0.14-0.38-0.27-0.73-0.4-1.05c-0.13-0.32-0.23-0.6-0.33-0.84
				C39.55,19.31,39.48,19.12,39.42,18.98z"/>
			<path class="st0" d="M45.51,26.47v-9.69h6.54v1.83h-4.36v1.9h3.87v1.79h-3.87v2.33h4.68v1.83H45.51z"/>
			<path class="st0" d="M56.71,16.67c1.45,0,2.57,0.26,3.34,0.78c0.77,0.52,1.16,1.32,1.16,2.41c0,0.68-0.16,1.23-0.47,1.66
				s-0.76,0.76-1.35,1c0.2,0.24,0.4,0.52,0.62,0.83c0.21,0.31,0.43,0.64,0.64,0.98c0.21,0.34,0.41,0.69,0.61,1.06
				c0.2,0.37,0.38,0.73,0.55,1.08h-2.44c-0.18-0.32-0.36-0.64-0.54-0.96c-0.18-0.33-0.37-0.64-0.56-0.95
				c-0.19-0.31-0.38-0.6-0.57-0.87c-0.19-0.28-0.37-0.52-0.56-0.75h-1.08v3.54h-2.18v-9.55c0.48-0.09,0.97-0.16,1.48-0.2
				C55.85,16.69,56.31,16.67,56.71,16.67z M56.83,18.53c-0.16,0-0.3,0.01-0.43,0.01c-0.13,0.01-0.25,0.02-0.36,0.03v2.63h0.62
				c0.82,0,1.41-0.1,1.76-0.31c0.35-0.2,0.53-0.55,0.53-1.05c0-0.48-0.18-0.81-0.54-1.01C58.06,18.63,57.53,18.53,56.83,18.53z"/>
			<path class="st0" d="M72.06,21.62c0,0.83-0.12,1.56-0.37,2.19c-0.25,0.63-0.58,1.16-1.01,1.58c-0.43,0.42-0.94,0.74-1.53,0.96
				c-0.59,0.21-1.23,0.32-1.91,0.32c-0.66,0-1.29-0.11-1.87-0.32c-0.59-0.21-1.1-0.53-1.54-0.96c-0.44-0.42-0.78-0.95-1.03-1.58
				c-0.25-0.63-0.38-1.36-0.38-2.19c0-0.83,0.13-1.56,0.39-2.19c0.26-0.63,0.61-1.16,1.05-1.59c0.44-0.43,0.96-0.75,1.54-0.97
				c0.58-0.21,1.19-0.32,1.84-0.32c0.66,0,1.29,0.11,1.87,0.32c0.59,0.21,1.1,0.54,1.54,0.97c0.44,0.43,0.78,0.96,1.03,1.59
				C71.93,20.06,72.06,20.79,72.06,21.62z M64.66,21.62c0,0.47,0.06,0.9,0.17,1.29c0.12,0.38,0.28,0.71,0.5,0.99
				c0.22,0.28,0.49,0.49,0.8,0.64c0.32,0.15,0.68,0.22,1.09,0.22c0.4,0,0.76-0.07,1.08-0.22c0.32-0.15,0.59-0.36,0.81-0.64
				c0.22-0.27,0.39-0.6,0.5-0.99c0.12-0.38,0.17-0.81,0.17-1.29c0-0.48-0.06-0.91-0.17-1.29c-0.12-0.39-0.28-0.72-0.5-0.99
				c-0.22-0.28-0.49-0.49-0.81-0.64c-0.32-0.15-0.68-0.22-1.08-0.22c-0.41,0-0.77,0.08-1.09,0.23c-0.32,0.15-0.59,0.37-0.8,0.64
				c-0.22,0.28-0.39,0.61-0.5,0.99C64.72,20.73,64.66,21.16,64.66,21.62z"/>
			<path class="st0" d="M81.42,26.67c-1.58,0-2.78-0.44-3.6-1.31c-0.82-0.88-1.24-2.12-1.24-3.73c0-0.8,0.13-1.52,0.38-2.15
				c0.25-0.63,0.6-1.16,1.03-1.59c0.44-0.43,0.96-0.76,1.57-0.99c0.61-0.22,1.26-0.34,1.97-0.34c0.41,0,0.78,0.03,1.12,0.09
				c0.34,0.06,0.63,0.13,0.88,0.21c0.25,0.08,0.46,0.16,0.63,0.24c0.17,0.08,0.29,0.15,0.36,0.2l-0.63,1.76
				c-0.3-0.16-0.65-0.29-1.04-0.41c-0.4-0.11-0.85-0.17-1.35-0.17c-0.34,0-0.66,0.06-0.99,0.17c-0.32,0.11-0.61,0.29-0.85,0.54
				c-0.25,0.25-0.45,0.57-0.59,0.96c-0.15,0.39-0.22,0.87-0.22,1.43c0,0.45,0.05,0.87,0.15,1.25c0.1,0.39,0.26,0.72,0.47,1
				c0.22,0.28,0.51,0.5,0.86,0.66s0.78,0.24,1.29,0.24c0.32,0,0.6-0.02,0.85-0.06s0.47-0.08,0.67-0.13c0.2-0.05,0.37-0.11,0.52-0.17
				c0.15-0.07,0.28-0.13,0.41-0.18l0.6,1.75c-0.31,0.19-0.74,0.35-1.3,0.5C82.81,26.6,82.16,26.67,81.42,26.67z"/>
			<path class="st0" d="M92.43,24.6v1.87h-6.47v-9.69h2.18v7.82H92.43z"/>
			<path class="st0" d="M97.36,26.67c-0.68,0-1.27-0.1-1.76-0.29c-0.49-0.19-0.9-0.46-1.22-0.8c-0.32-0.34-0.56-0.75-0.71-1.22
				s-0.23-0.99-0.23-1.56v-6.03h2.18v5.84c0,0.39,0.04,0.72,0.13,1c0.09,0.27,0.21,0.5,0.36,0.67s0.34,0.3,0.56,0.37
				c0.22,0.07,0.46,0.11,0.72,0.11c0.53,0,0.96-0.16,1.29-0.49c0.33-0.33,0.5-0.88,0.5-1.66v-5.84h2.18v6.03
				c0,0.57-0.08,1.09-0.24,1.57c-0.16,0.47-0.4,0.88-0.73,1.22c-0.33,0.34-0.74,0.6-1.24,0.79C98.65,26.58,98.05,26.67,97.36,26.67z
				"/>
			<path class="st0" d="M106.57,26.6c-0.53,0-1.06-0.02-1.59-0.05c-0.53-0.03-1.07-0.11-1.64-0.23v-9.39
				c0.45-0.08,0.94-0.15,1.47-0.19c0.53-0.04,1.03-0.06,1.48-0.06c0.62,0,1.18,0.04,1.7,0.13c0.52,0.09,0.96,0.24,1.34,0.45
				c0.37,0.21,0.66,0.5,0.87,0.85c0.21,0.35,0.31,0.78,0.31,1.29c0,0.77-0.37,1.38-1.12,1.83c0.62,0.23,1.03,0.55,1.26,0.95
				c0.22,0.4,0.34,0.85,0.34,1.36c0,1.02-0.37,1.78-1.11,2.29C109.14,26.34,108.04,26.6,106.57,26.6z M105.47,20.59h1.06
				c0.67,0,1.15-0.09,1.44-0.26c0.29-0.17,0.43-0.45,0.43-0.83c0-0.39-0.15-0.67-0.45-0.82c-0.3-0.16-0.74-0.24-1.31-0.24
				c-0.19,0-0.39,0-0.6,0.01c-0.21,0-0.41,0.02-0.57,0.03V20.59z M105.47,22.25v2.5c0.16,0.02,0.33,0.03,0.52,0.04
				c0.19,0.01,0.39,0.01,0.62,0.01c0.65,0,1.18-0.09,1.58-0.28c0.4-0.19,0.6-0.53,0.6-1.03c0-0.45-0.17-0.77-0.5-0.96
				c-0.33-0.19-0.82-0.29-1.44-0.29H105.47z"/>
		</g>
		<g>
			<path class="st0" d="M36.21,35.5c0.52,0,0.92-0.09,1.21-0.28c0.29-0.19,0.43-0.49,0.43-0.92c0-0.24-0.05-0.45-0.14-0.61
				c-0.09-0.16-0.22-0.3-0.37-0.41c-0.15-0.11-0.33-0.21-0.53-0.29c-0.2-0.08-0.41-0.16-0.62-0.25c-0.27-0.11-0.52-0.22-0.74-0.33
				c-0.22-0.11-0.4-0.24-0.55-0.39c-0.15-0.14-0.27-0.31-0.35-0.49c-0.08-0.19-0.12-0.4-0.12-0.65c0-0.57,0.19-1,0.56-1.29
				c0.38-0.29,0.9-0.44,1.57-0.44c0.18,0,0.35,0.01,0.53,0.04c0.17,0.03,0.33,0.06,0.48,0.1c0.15,0.04,0.29,0.09,0.41,0.14
				c0.12,0.05,0.23,0.11,0.31,0.16l-0.23,0.55c-0.19-0.13-0.41-0.23-0.67-0.31c-0.26-0.08-0.55-0.11-0.86-0.11
				c-0.21,0-0.4,0.02-0.58,0.06c-0.18,0.04-0.33,0.11-0.45,0.2c-0.13,0.09-0.23,0.21-0.3,0.35c-0.07,0.14-0.11,0.31-0.11,0.51
				c0,0.2,0.04,0.38,0.11,0.52c0.08,0.14,0.18,0.26,0.32,0.36c0.14,0.1,0.3,0.19,0.48,0.28c0.18,0.08,0.39,0.17,0.6,0.26
				c0.26,0.11,0.51,0.22,0.74,0.33c0.23,0.11,0.44,0.24,0.61,0.38c0.17,0.15,0.31,0.33,0.41,0.54s0.15,0.47,0.15,0.77
				c0,0.6-0.21,1.05-0.63,1.35s-0.98,0.45-1.7,0.45c-0.26,0-0.49-0.02-0.7-0.05s-0.4-0.07-0.56-0.12c-0.17-0.05-0.31-0.1-0.42-0.15
				c-0.11-0.05-0.2-0.1-0.27-0.13l0.21-0.56c0.06,0.04,0.15,0.08,0.26,0.13c0.11,0.05,0.24,0.1,0.38,0.15
				c0.15,0.05,0.31,0.09,0.5,0.12C35.79,35.48,35.99,35.5,36.21,35.5z"/>
			<path class="st0" d="M46.35,32.6c0,0.57-0.08,1.07-0.25,1.5c-0.17,0.43-0.39,0.8-0.67,1.09c-0.28,0.29-0.61,0.51-0.99,0.66
				c-0.38,0.15-0.77,0.22-1.2,0.22c-0.42,0-0.82-0.07-1.2-0.22c-0.38-0.15-0.71-0.37-0.99-0.66c-0.28-0.29-0.51-0.65-0.67-1.09
				c-0.17-0.43-0.25-0.93-0.25-1.5c0-0.57,0.08-1.07,0.25-1.5c0.17-0.43,0.39-0.79,0.67-1.08c0.28-0.29,0.61-0.51,0.99-0.66
				c0.38-0.15,0.78-0.22,1.2-0.22c0.42,0,0.82,0.07,1.2,0.22c0.38,0.15,0.71,0.37,0.99,0.66s0.51,0.65,0.67,1.08
				C46.27,31.53,46.35,32.03,46.35,32.6z M45.66,32.6c0-0.45-0.06-0.85-0.17-1.2c-0.11-0.35-0.28-0.66-0.49-0.9
				c-0.21-0.25-0.46-0.44-0.76-0.57c-0.3-0.13-0.63-0.2-1-0.2c-0.37,0-0.7,0.07-1,0.2c-0.3,0.13-0.55,0.32-0.76,0.57
				c-0.21,0.25-0.37,0.55-0.49,0.9c-0.11,0.35-0.17,0.75-0.17,1.2c0,0.45,0.06,0.85,0.17,1.2c0.11,0.35,0.28,0.66,0.49,0.9
				c0.21,0.25,0.46,0.44,0.76,0.57c0.3,0.13,0.63,0.2,1,0.2c0.37,0,0.7-0.07,1-0.2c0.3-0.13,0.55-0.33,0.76-0.57
				c0.21-0.25,0.37-0.55,0.49-0.9C45.61,33.44,45.66,33.04,45.66,32.6z"/>
			<path class="st0" d="M52.25,35.35v0.56h-3.77v-6.63h0.65v6.06H52.25z"/>
			<path class="st0" d="M56.27,36.06c-0.44,0-0.81-0.07-1.12-0.2c-0.31-0.13-0.56-0.32-0.75-0.55c-0.19-0.24-0.33-0.51-0.42-0.83
				c-0.09-0.32-0.13-0.66-0.13-1.02v-4.17h0.65v4.08c0,0.36,0.04,0.68,0.13,0.94c0.09,0.27,0.21,0.48,0.36,0.66
				c0.15,0.17,0.34,0.3,0.55,0.38c0.22,0.08,0.46,0.12,0.73,0.12c0.27,0,0.51-0.04,0.73-0.12c0.22-0.08,0.4-0.21,0.55-0.38
				c0.15-0.17,0.27-0.39,0.36-0.66c0.09-0.26,0.13-0.58,0.13-0.94v-4.08h0.65v4.17c0,0.36-0.04,0.7-0.13,1.02
				c-0.09,0.32-0.22,0.59-0.42,0.83c-0.19,0.24-0.44,0.42-0.75,0.55C57.09,35.99,56.71,36.06,56.27,36.06z"/>
			<path class="st0" d="M65.26,29.29v0.56h-2.12v6.06h-0.65v-6.06h-2.12v-0.56H65.26z"/>
			<path class="st0" d="M66.97,29.29h0.65v6.63h-0.65V29.29z"/>
			<path class="st0" d="M75.96,32.6c0,0.57-0.08,1.07-0.25,1.5c-0.17,0.43-0.39,0.8-0.67,1.09c-0.28,0.29-0.61,0.51-0.99,0.66
				c-0.38,0.15-0.77,0.22-1.2,0.22s-0.82-0.07-1.2-0.22c-0.38-0.15-0.71-0.37-0.99-0.66c-0.28-0.29-0.51-0.65-0.67-1.09
				c-0.17-0.43-0.25-0.93-0.25-1.5c0-0.57,0.08-1.07,0.25-1.5c0.17-0.43,0.39-0.79,0.67-1.08s0.61-0.51,0.99-0.66
				c0.38-0.15,0.77-0.22,1.2-0.22s0.82,0.07,1.2,0.22c0.38,0.15,0.71,0.37,0.99,0.66c0.28,0.29,0.51,0.65,0.67,1.08
				C75.88,31.53,75.96,32.03,75.96,32.6z M75.27,32.6c0-0.45-0.06-0.85-0.17-1.2c-0.11-0.35-0.28-0.66-0.49-0.9
				c-0.21-0.25-0.46-0.44-0.76-0.57s-0.63-0.2-1-0.2s-0.7,0.07-1,0.2c-0.3,0.13-0.55,0.32-0.76,0.57c-0.21,0.25-0.37,0.55-0.49,0.9
				c-0.11,0.35-0.17,0.75-0.17,1.2c0,0.45,0.06,0.85,0.17,1.2c0.11,0.35,0.28,0.66,0.49,0.9c0.21,0.25,0.46,0.44,0.76,0.57
				c0.3,0.13,0.63,0.2,1,0.2s0.7-0.07,1-0.2s0.55-0.33,0.76-0.57c0.21-0.25,0.37-0.55,0.49-0.9C75.21,33.44,75.27,33.04,75.27,32.6z
				"/>
			<path class="st0" d="M82.6,35.92c-0.12-0.22-0.28-0.48-0.46-0.78c-0.19-0.3-0.39-0.62-0.62-0.96s-0.46-0.69-0.71-1.05
				c-0.25-0.36-0.49-0.71-0.74-1.05c-0.25-0.34-0.48-0.66-0.72-0.96c-0.23-0.3-0.44-0.56-0.62-0.77v5.58h-0.64v-6.63h0.52
				c0.33,0.36,0.67,0.78,1.05,1.26c0.37,0.48,0.74,0.96,1.09,1.45c0.36,0.49,0.69,0.98,1,1.45c0.31,0.47,0.56,0.88,0.76,1.23v-5.39
				h0.64v6.63H82.6z"/>
			<path class="st0" d="M86.96,35.5c0.52,0,0.92-0.09,1.21-0.28c0.29-0.19,0.43-0.49,0.43-0.92c0-0.24-0.05-0.45-0.14-0.61
				c-0.09-0.16-0.21-0.3-0.37-0.41c-0.15-0.11-0.33-0.21-0.53-0.29c-0.2-0.08-0.4-0.16-0.62-0.25c-0.27-0.11-0.52-0.22-0.74-0.33
				s-0.4-0.24-0.55-0.39c-0.15-0.14-0.27-0.31-0.35-0.49c-0.08-0.19-0.12-0.4-0.12-0.65c0-0.57,0.19-1,0.56-1.29
				c0.38-0.29,0.9-0.44,1.57-0.44c0.18,0,0.35,0.01,0.53,0.04c0.17,0.03,0.33,0.06,0.48,0.1c0.15,0.04,0.29,0.09,0.41,0.14
				c0.12,0.05,0.23,0.11,0.31,0.16l-0.23,0.55c-0.18-0.13-0.41-0.23-0.67-0.31c-0.27-0.08-0.55-0.11-0.86-0.11
				c-0.21,0-0.4,0.02-0.58,0.06c-0.18,0.04-0.33,0.11-0.45,0.2c-0.13,0.09-0.23,0.21-0.3,0.35c-0.07,0.14-0.11,0.31-0.11,0.51
				c0,0.2,0.04,0.38,0.11,0.52c0.08,0.14,0.18,0.26,0.32,0.36c0.14,0.1,0.3,0.19,0.48,0.28c0.19,0.08,0.39,0.17,0.6,0.26
				c0.26,0.11,0.51,0.22,0.74,0.33c0.23,0.11,0.43,0.24,0.61,0.38c0.17,0.15,0.31,0.33,0.41,0.54s0.15,0.47,0.15,0.77
				c0,0.6-0.21,1.05-0.63,1.35c-0.42,0.3-0.98,0.45-1.7,0.45c-0.26,0-0.49-0.02-0.7-0.05c-0.21-0.03-0.4-0.07-0.56-0.12
				c-0.17-0.05-0.31-0.1-0.42-0.15c-0.11-0.05-0.2-0.1-0.27-0.13l0.21-0.56c0.06,0.04,0.15,0.08,0.26,0.13
				c0.11,0.05,0.24,0.1,0.38,0.15c0.15,0.05,0.31,0.09,0.5,0.12C86.53,35.48,86.74,35.5,86.96,35.5z"/>
		</g>
		<g>
			<path class="st0" d="M93.21,29.29h0.65v6.63h-0.65V29.29z"/>
			<path class="st0" d="M100.77,35.92c-0.12-0.22-0.28-0.48-0.46-0.78c-0.19-0.3-0.39-0.62-0.62-0.96
				c-0.23-0.34-0.46-0.69-0.71-1.05c-0.25-0.36-0.49-0.71-0.74-1.05c-0.24-0.34-0.48-0.66-0.72-0.96c-0.23-0.3-0.44-0.56-0.62-0.77
				v5.58h-0.64v-6.63h0.52c0.33,0.36,0.67,0.78,1.05,1.26c0.37,0.48,0.74,0.96,1.09,1.45c0.36,0.49,0.69,0.98,1,1.45
				c0.31,0.47,0.56,0.88,0.76,1.23v-5.39h0.64v6.63H100.77z"/>
			<path class="st0" d="M106.46,36.07c-0.43,0-0.82-0.08-1.19-0.23c-0.37-0.15-0.69-0.38-0.96-0.67c-0.27-0.29-0.48-0.66-0.64-1.09
				c-0.16-0.43-0.23-0.92-0.23-1.48c0-0.55,0.08-1.05,0.25-1.48c0.17-0.43,0.39-0.79,0.67-1.09c0.28-0.29,0.61-0.51,0.98-0.66
				c0.37-0.15,0.76-0.22,1.16-0.22c0.25,0,0.47,0.02,0.68,0.05c0.2,0.03,0.38,0.07,0.54,0.12c0.15,0.05,0.28,0.1,0.39,0.14
				c0.11,0.05,0.19,0.09,0.25,0.13l-0.21,0.56c-0.16-0.1-0.36-0.19-0.61-0.28c-0.25-0.09-0.55-0.14-0.91-0.14
				c-0.41,0-0.78,0.07-1.09,0.21c-0.31,0.14-0.57,0.34-0.78,0.59c-0.21,0.26-0.37,0.56-0.47,0.91c-0.1,0.35-0.16,0.74-0.16,1.17
				c0,0.44,0.05,0.84,0.16,1.19c0.11,0.35,0.26,0.66,0.46,0.9c0.2,0.25,0.45,0.44,0.75,0.57s0.64,0.2,1.02,0.2
				c0.42,0,0.77-0.04,1.06-0.12c0.28-0.08,0.5-0.16,0.65-0.24l0.18,0.55c-0.04,0.03-0.12,0.07-0.23,0.11
				c-0.11,0.04-0.25,0.08-0.41,0.13c-0.17,0.04-0.36,0.08-0.57,0.11C106.97,36.05,106.72,36.07,106.46,36.07z"/>
			<path class="st0" d="M111.25,35.51c0,0.15-0.05,0.27-0.14,0.37c-0.09,0.1-0.22,0.15-0.39,0.15c-0.17,0-0.3-0.05-0.39-0.15
				c-0.09-0.1-0.14-0.23-0.14-0.37c0-0.15,0.05-0.27,0.14-0.37c0.09-0.1,0.22-0.15,0.39-0.15c0.17,0,0.29,0.05,0.39,0.15
				C111.2,35.24,111.25,35.36,111.25,35.51z"/>
		</g>
	</g>
	<g>
		<g>
			<path class="st1" d="M14.13,28h1.04c0.06-6.11,0.15-14.72,0.15-15.59c0-1.36-0.21-1.58-1.79-1.07c-1.58,0.5-8.52,2.87-9.74,3.51
				c-1.22,0.64-1,1.5-1,1.5s0,19.7,0,20.63s1.58,0.79,2.51,0.29c0.74-0.4,6.5-2.15,8.83-2.86V28z"/>
			<path class="st2" d="M10.1,3.38c0,0,0.21,19.48,0.21,20.34c0,0.86,0.79,1.5,1.29,1.72c0.5,0.21,8.45,3.01,9.31,3.29
				c0.86,0.29,1.72,0.07,1.72-1.5c0-1.58-0.21-17.76-0.21-19.2s-1-1.58-2.08-2.01s-7.59-3.01-8.6-3.37S10.31,2.95,10.1,3.38z"/>
			<path class="st3" d="M24.71,23.3c-0.07-1.22-0.79-1.74-1.41-2.03c-0.62-0.29-8.21-3.96-9.36-4.54c-1.15-0.57-1.58-0.43-1.58,0.81
				c0,1.24-0.12,12.18-0.07,13.92c0.05,1.74,0.1,1.79,1.03,2.29c0.14,0.08,0.43,0.2,0.81,0.35V28h2.63v7.11
				c2.43,0.9,5.38,1.96,6.23,2.3c1.43,0.57,1.79,0.07,1.79-1C24.78,35.33,24.71,23.3,24.71,23.3z"/>
			<path class="st0" d="M19.47,26.83V24.7c0-0.35-0.28-0.64-0.64-0.64s-0.64,0.28-0.64,0.64v1.12l-1.57-1.24
				c-0.06-1.77-0.16-4.77-0.16-7.09c0-3.51-2.15-2.72-2.15-0.07c0,1.94,0,5.29,0,6.95l-0.07,0l-1.59,1.3V24.7
				c0-0.35-0.28-0.64-0.64-0.64c-0.35,0-0.64,0.28-0.64,0.64v2l-5.95,4.9v1l8.67-4.23l2.65,0.07l8.74,4.08V31.6L19.47,26.83z"/>
		</g>
		<rect x="14.01" y="27.56" class="st0" width="3" height="8"/>
	</g>
</g>
</svg>
