<?xml version="1.0" encoding="utf-8"?>
<!-- Generator: Adobe Illustrator 23.0.6, SVG Export Plug-In . SVG Version: 6.00 Build 0)  -->
<svg version="1.1" id="Layer_1" xmlns="http://www.w3.org/2000/svg" xmlns:xlink="http://www.w3.org/1999/xlink" x="0px" y="0px"
	 viewBox="0 0 51.9 52" style="enable-background:new 0 0 51.9 52;" xml:space="preserve">
<g>
	<path d="M21.3,15.4c0.3-0.2,0.7-0.5,1-0.7c1.9-1.1,4-1.7,6.3-1.7c0.9,0,1.7,0.1,2.5,0.3l-5.3-9.5c-0.2-0.3-0.4-0.5-0.8-0.5
		l-5.4-0.2c-0.3,0-0.6,0.1-0.8,0.4s-0.3,0.6-0.2,0.9L21.3,15.4z"/>
	<path d="M48.1,22.8c-1.7-0.9-3.7-1.4-5.8-1.4l-1.9,0c0.5,1.3,0.7,2.7,0.7,4.1c0,1.9-0.4,3.5-1.2,5.2l1.9,0c2.2,0,4.2-0.4,6-1.3
		c1.8-0.8,2.8-2,3-3.3C50.8,24.7,49.9,23.6,48.1,22.8z"/>
	<path d="M16.1,25.5c0-1.6,0.3-3.1,0.9-4.6l-5.3,0L9,15.7c0,0-0.1-0.1-0.2-0.2c-0.2-0.2-0.4-0.3-0.7-0.3H4c-0.3,0-0.5,0.1-0.7,0.3
		c-0.2,0.3-0.2,0.5-0.2,0.8L4,25.6l-1.7,9.3c0,0.3,0,0.6,0.2,0.8S2.9,36,3.2,36h4c0.4,0,0.7-0.2,0.8-0.5l3.2-5.2l5.9,0.1
		C16.4,28.8,16.1,27.2,16.1,25.5z"/>
	<path d="M28.6,38c-2.3,0-4.3-0.6-6.3-1.7c-0.6-0.4-1.2-0.8-1.8-1.3l-4,11.9c-0.1,0.3-0.1,0.5,0.1,0.8c0,0.1,0,0.1,0.1,0.2
		c0.1,0.2,0.3,0.3,0.5,0.3l4.7,0.7c0.5,0.1,0.8-0.1,1-0.4l7.2-10.6C29.6,38,29.1,38,28.6,38z"/>
</g>
<path d="M31.1,19.2v8.2c0,0.2,0,0.3-0.1,0.5C30.9,28,30.8,28,30.5,28h-5.9c-0.2,0-0.3,0-0.5-0.1c-0.1-0.1-0.1-0.2-0.1-0.5v-1.1
	c0-0.2,0-0.3,0.1-0.5c0.1-0.1,0.2-0.1,0.5-0.1h4.1v-6.4c0-0.2,0-0.3,0.1-0.5s0.2-0.1,0.5-0.1h1.1c0.2,0,0.3,0,0.5,0.1
	C31,18.9,31.1,19.1,31.1,19.2z"/>
</svg>
