<?xml version="1.0" encoding="utf-8"?>
<!-- Generator: Adobe Illustrator 23.0.6, SVG Export Plug-In . SVG Version: 6.00 Build 0)  -->
<svg version="1.1" id="Layer_1" xmlns="http://www.w3.org/2000/svg" xmlns:xlink="http://www.w3.org/1999/xlink" x="0px" y="0px"
	 viewBox="0 0 51.9 52" style="enable-background:new 0 0 51.9 52;" xml:space="preserve">
<g>
	<path d="M47.6,10.3c-0.8-0.7-1.7-1.1-2.8-1.1H7.9c-1.1,0-2,0.3-2.8,1.1C4.3,11.1,3.9,12,3.9,13v25.7c0,1.1,0.4,2,1.2,2.7
		c0.8,0.7,1.7,1.1,2.8,1.1h36.9c1.1,0,2-0.4,2.8-1.1c0.8-0.8,1.2-1.7,1.2-2.7V13C48.8,12,48.4,11.1,47.6,10.3z M45.6,13.3
		c0,0.1,0,0.1,0,0.3c0,0.2,0,0.3,0,0.3c0,0.9-0.4,2-1.1,3c-0.8,1.1-1.6,2-2.5,2.7c-0.8,0.6-1.6,1.2-2.4,1.8c0.4,1.1,0.7,2.2,0.8,3.3
		c1.1-0.8,2.2-1.6,3.5-2.6c0.6-0.5,1.2-1,1.7-1.6v18.2c0,0.2-0.1,0.4-0.3,0.5c-0.2,0.1-0.4,0.2-0.6,0.2H7.8c-0.3,0-0.4,0-0.6-0.2
		C7.1,39.2,7,39,7,38.8V20.6c0.5,0.6,1.1,1.1,1.7,1.6c1,0.7,1.9,1.4,2.7,2c0.2-1.2,0.5-2.3,1-3.4c-0.5-0.4-1.1-0.8-1.6-1.2
		c-2.5-1.8-3.7-4-3.7-6.7c0-0.2,0-0.4,0.2-0.5c0.2-0.1,0.4-0.2,0.6-0.2h36.9c0.2,0,0.3,0.1,0.4,0.1c0.1,0.1,0.1,0.1,0.2,0.2
		c0,0.1,0.1,0.1,0.1,0.2c0.1,0.1,0.1,0.2,0.1,0.3S45.6,13.2,45.6,13.3z"/>
	<path d="M27.6,19.8h-1c-0.2,0-0.3,0.1-0.4,0.2c-0.1,0.1-0.2,0.2-0.2,0.4v5.5h-3.6c-0.2,0-0.3,0.1-0.4,0.2c-0.1,0.1-0.2,0.2-0.2,0.4
		v1c0,0.2,0.1,0.3,0.2,0.4c0.1,0.1,0.2,0.2,0.4,0.2h5c0.2,0,0.3-0.1,0.4-0.2s0.2-0.2,0.2-0.4v-7c0-0.2-0.1-0.3-0.1-0.5
		C27.9,19.9,27.8,19.8,27.6,19.8z"/>
	<path d="M32,15.5c-1.8-1.1-3.8-1.7-6-1.7s-4.2,0.6-6,1.7c-1.8,1.1-3.3,2.6-4.4,4.4c-1.1,1.8-1.7,3.8-1.7,6s0.6,4.2,1.7,6
		s2.6,3.3,4.4,4.4c1.8,1.1,3.8,1.6,6,1.6s4.2-0.5,6-1.6c1.8-1.1,3.3-2.6,4.4-4.4c1.1-1.8,1.6-3.8,1.6-6s-0.5-4.2-1.6-6
		C35.4,18.1,33.8,16.6,32,15.5z M33.4,30.2c-0.7,1.4-1.7,2.4-3.1,3.1s-2.8,1.1-4.3,1.1s-3-0.4-4.3-1.1c-1.3-0.8-2.4-1.8-3.1-3.1
		c-0.7-1.4-1.1-2.8-1.1-4.3s0.4-3,1.1-4.3c0.8-1.3,1.8-2.4,3.1-3.1c1.4-0.7,2.8-1.1,4.3-1.1s3,0.4,4.3,1.1c1.3,0.8,2.4,1.8,3.1,3.1
		c0.7,1.4,1.1,2.8,1.1,4.3S34.1,28.9,33.4,30.2z"/>
</g>
</svg>
