<?xml version="1.0" encoding="utf-8"?>
<!-- Generator: Adobe Illustrator 23.0.6, SVG Export Plug-In . SVG Version: 6.00 Build 0)  -->
<svg version="1.1" id="Layer_1" xmlns="http://www.w3.org/2000/svg" xmlns:xlink="http://www.w3.org/1999/xlink" x="0px" y="0px"
	 viewBox="0 0 51.9 52" style="enable-background:new 0 0 51.9 52;" xml:space="preserve">
<style type="text/css">
	.st0{enable-background:new    ;}
</style>
<g id="Layer_8">
	<g>
		<path d="M44.4,12.5c0.5,0.5,0.9,1.2,1.3,2s0.5,1.6,0.5,2.3v30.3c0,0.7-0.3,1.3-0.8,1.8s-1.1,0.7-1.8,0.7H7.8
			c-0.7,0-1.3-0.3-1.8-0.7c-0.5-0.5-0.8-1.1-0.8-1.8V5c0-0.7,0.3-1.3,0.8-1.8s1.1-0.7,1.8-0.7h23.9c0.7,0,1.5,0.2,2.4,0.5
			c0.8,0.3,1.5,0.8,2,1.3L44.4,12.5z M42.8,46.3v-27H31.7c-0.7,0-1.3-0.3-1.8-0.7c-0.5-0.5-0.8-1.1-0.8-1.8v-11H8.7v40.4H42.8z
			 M32.6,6.1V16h10c-0.2-0.5-0.4-0.9-0.6-1.1l-8.3-8.2C33.4,6.4,33.1,6.3,32.6,6.1z"/>
	</g>
	<g class="st0">
		<path d="M35.3,25v16.4c0,0.4-0.2,0.8-0.5,1.2c-0.3,0.3-0.7,0.5-1.2,0.5h-18c-0.4,0-0.8-0.2-1.2-0.5c-0.3-0.3-0.5-0.7-0.5-1.2V25
			c0-0.4,0.2-0.8,0.5-1.2c0.3-0.3,0.7-0.5,1.2-0.5h1.6v-1.2c0-0.6,0.2-1,0.6-1.4c0.4-0.4,0.9-0.6,1.4-0.6h0.8c0.6,0,1,0.2,1.4,0.6
			c0.4,0.4,0.6,0.9,0.6,1.4v1.2h4.9v-1.2c0-0.6,0.2-1,0.6-1.4c0.4-0.4,0.9-0.6,1.4-0.6h0.8c0.6,0,1,0.2,1.4,0.6
			c0.4,0.4,0.6,0.9,0.6,1.4v1.2h1.6c0.4,0,0.8,0.2,1.2,0.5C35.1,24.2,35.3,24.6,35.3,25z M15.6,32h3.7v-3.7h-3.7V32z M15.6,36.9h3.7
			v-4.1h-3.7V36.9z M15.6,41.4h3.7v-3.7h-3.7V41.4z M20.5,25.8v-3.7c0-0.1,0-0.2-0.1-0.3c-0.1-0.1-0.2-0.1-0.3-0.1h-0.8
			c-0.1,0-0.2,0-0.3,0.1s-0.1,0.2-0.1,0.3v3.7c0,0.1,0,0.2,0.1,0.3c0.1,0.1,0.2,0.1,0.3,0.1h0.8c0.1,0,0.2,0,0.3-0.1
			C20.5,26.1,20.5,26,20.5,25.8z M20.1,32h4.1v-3.7h-4.1V32z M20.1,36.9h4.1v-4.1h-4.1V36.9z M20.1,41.4h4.1v-3.7h-4.1V41.4z M25,32
			h4.1v-3.7H25V32z M25,36.9h4.1v-4.1H25V36.9z M25,41.4h4.1v-3.7H25V41.4z M30.4,25.8v-3.7c0-0.1,0-0.2-0.1-0.3s-0.2-0.1-0.3-0.1
			h-0.8c-0.1,0-0.2,0-0.3,0.1s-0.1,0.2-0.1,0.3v3.7c0,0.1,0,0.2,0.1,0.3c0.1,0.1,0.2,0.1,0.3,0.1h0.8c0.1,0,0.2,0,0.3-0.1
			C30.3,26.1,30.4,26,30.4,25.8z M29.9,32h3.7v-3.7h-3.7V32z M29.9,36.9h3.7v-4.1h-3.7V36.9z M29.9,41.4h3.7v-3.7h-3.7V41.4z"/>
	</g>
</g>
</svg>
