<?xml version="1.0" encoding="utf-8"?>
<!-- Generator: Adobe Illustrator 23.0.6, SVG Export Plug-In . SVG Version: 6.00 Build 0)  -->
<svg version="1.1" id="Layer_1" xmlns="http://www.w3.org/2000/svg" xmlns:xlink="http://www.w3.org/1999/xlink" x="0px" y="0px"
	 viewBox="0 0 51.9 52" style="enable-background:new 0 0 51.9 52;" xml:space="preserve">
<path d="M15.8,42.5c0,1.7,1.4,3.2,3.2,3.2c1.7,0,3.2-1.4,3.2-3.2s-1.4-3.2-3.2-3.2C17.2,39.4,15.8,40.8,15.8,42.5z"/>
<path d="M32.1,24.9c0,0.2,0,0.3-0.2,0.3c-0.2,0.2-0.2,0.2-0.3,0.2h-5.3c-0.2,0-0.3,0-0.3-0.2c-0.2-0.2-0.2-0.2-0.2-0.3v-1.1
	c0-0.2,0-0.3,0.2-0.3c0-0.2,0.2-0.2,0.3-0.2h3.7v-5.8c0-0.2,0-0.3,0.2-0.3c0.2-0.2,0.2-0.2,0.3-0.2h1.1c0.2,0,0.3,0,0.3,0.2
	c0.2,0.2,0.2,0.2,0.2,0.3C32.1,17.6,32.1,24.9,32.1,24.9z"/>
<circle cx="41" cy="42.5" r="3.2"/>
<path d="M45.7,14.2H16.2c-0.3-1.2-0.3-3.2-2-3.2H7.9c-0.9,0-1.6,0.7-1.6,1.6s0.7,1.6,1.6,1.6h5l4.4,20.3c-0.3,0.7-1.5,2.6-1.5,3.4
	c0,0.9,0.7,1.6,1.6,1.6H19h22h1.6c0.9,0,1.6-0.7,1.6-1.6s-0.7-1.6-1.6-1.6H19.9c0.2-0.5,0.6-1,0.6-1.6s-0.2-1.2-0.3-1.7l25.7-3
	c0.8-0.1,1.4-0.8,1.4-1.6V15.7C47.3,14.9,46.6,14.2,45.7,14.2z M37.4,27c-0.7,1.2-1.7,2.2-3,3c-1.2,0.7-2.6,1.1-4.1,1.1
	s-2.8-0.4-4.1-1.1c-1.2-0.7-2.2-1.7-3-3c-0.7-1.2-1.1-2.6-1.1-4.1s0.4-2.8,1.1-4.1c0.7-1.2,1.7-2.2,3-3c1.2-0.7,2.6-1.1,4.1-1.1
	s2.8,0.4,4.1,1.1c1.2,0.7,2.2,1.7,3,3c0.7,1.2,1.1,2.6,1.1,4.1S38.1,25.8,37.4,27z"/>
</svg>
