<?xml version="1.0" encoding="utf-8"?>
<!-- Generator: Adobe Illustrator 23.0.6, SVG Export Plug-In . SVG Version: 6.00 Build 0)  -->
<svg version="1.1" id="Layer_1" xmlns="http://www.w3.org/2000/svg" xmlns:xlink="http://www.w3.org/1999/xlink" x="0px" y="0px"
	 viewBox="0 0 51.9 52" style="enable-background:new 0 0 51.9 52;" xml:space="preserve">
<path d="M48,22.7c-0.2-0.2-0.4-0.3-0.6-0.4l-5.3-0.8c-0.3-0.9-0.7-1.9-1.2-2.8c0.3-0.5,0.9-1.2,1.6-2c0.7-0.9,1.2-1.5,1.5-1.9
	c0.2-0.2,0.2-0.4,0.2-0.7c0-0.3-0.1-0.5-0.2-0.6c-0.7-1-2.3-2.6-4.8-4.9c-0.2-0.2-0.5-0.3-0.7-0.3c-0.3,0-0.5,0.1-0.7,0.3l-4.1,3.1
	c-0.8-0.4-1.7-0.8-2.6-1.1l-0.8-5.3c0-0.3-0.1-0.5-0.3-0.6s-0.4-0.3-0.7-0.3h-2.9v14.9c1.9,0.1,3.5,0.8,4.9,2.2
	c1.5,1.5,2.2,3.2,2.2,5.3s-0.7,3.8-2.2,5.3c-1.4,1.4-3,2.1-4.9,2.2v14.9h2.9c0.6,0,0.9-0.3,1-0.8c0.3-1,0.5-2.8,0.8-5.4
	c0.9-0.3,1.8-0.7,2.6-1.1l4,3.1c0.3,0.2,0.5,0.3,0.8,0.3c0.4,0,1.3-0.7,2.7-2.1s2.3-2.4,2.9-3.1c0.2-0.2,0.3-0.4,0.3-0.7
	s-0.1-0.5-0.3-0.7c-1.4-1.7-2.4-3-3.1-4c0.4-0.7,0.8-1.6,1.1-2.6l5.4-0.8c0.2,0,0.4-0.2,0.6-0.4c0.2-0.2,0.2-0.4,0.2-0.7v-6.4
	C48.2,23.2,48.2,22.9,48,22.7z"/>
<g>
	<g>
		<path d="M17.8,19.2c-0.6,0-1.2-0.4-1.5-1L12.6,7.8c-0.3-0.8,0.1-1.7,0.9-2c0.8-0.3,1.7,0.1,2,0.9l3.7,10.5c0.3,0.8-0.1,1.7-0.9,2
			C18.2,19.2,18,19.2,17.8,19.2z"/>
	</g>
	<g>
		<path d="M23.7,18.7c-0.9,0-1.5-0.7-1.5-1.5V5.8c0-0.8,0.7-1.6,1.5-1.6c0.9,0,1.5,0.7,1.5,1.6v11.4C25.2,18,24.5,18.7,23.7,18.7z"
			/>
	</g>
</g>
<path d="M25.5,20.3h-20c-0.6,0-1,0.5-1,1v2.6c0,0.6,0.5,1,1,1h2.7l7.4,12.8l3.8,6.5c-0.5,0.1-0.8,0.5-0.8,1v2.6c0,0.6,0.5,1,1,1h5.9
	V20.3z"/>
</svg>
