<?xml version="1.0" encoding="utf-8"?>
<!-- Generator: Adobe Illustrator 23.0.6, SVG Export Plug-In . SVG Version: 6.00 Build 0)  -->
<svg version="1.1" id="Layer_1" xmlns="http://www.w3.org/2000/svg" xmlns:xlink="http://www.w3.org/1999/xlink" x="0px" y="0px"
	 viewBox="0 0 51.9 52" style="enable-background:new 0 0 51.9 52;" xml:space="preserve">
<style type="text/css">
	.st0{display:none;}
	.st1{display:inline;}
	.st2{font-family:'FontAwesome';}
	.st3{font-size:33.9741px;}
	.st4{font-size:31.6464px;}
	.st5{font-family:'MyriadPro-Regular';}
	.st6{font-size:15.1793px;}
	.st7{display:inline;fill:#FFFFFF;}
	.st8{font-size:19.1945px;}
	.st9{font-size:22.9622px;}
	.st10{font-size:25.92px;}
	.st11{font-size:28.0144px;}
	.st12{font-size:26.2207px;}
	.st13{font-size:26.0584px;}
	.st14{font-size:48px;}
	.st15{font-size:39.9762px;}
	.st16{font-size:40.8318px;}
	.st17{font-size:28.0004px;}
	.st18{enable-background:new    ;}
	.st19{font-size:25.8726px;}
	.st20{font-size:24.7128px;}
	.st21{font-size:30.2938px;}
</style>
<g id="Aircraft_Type" class="st0">
	<g class="st1">
		<path d="M49.7,42.4v3H2.5V9.4h3v32.9H49.7z"/>
	</g>
	<text transform="matrix(1 0 0 1 9.4167 38.2313)" class="st1 st2 st3"></text>
</g>
<g id="Aircraft_Type_copy" class="st0">
	<g class="st1">
		<path d="M49.7,42.4v3H4.3v-39h2.8v36C7.1,42.4,49.7,42.4,49.7,42.4z"/>
	</g>
	<text transform="matrix(1 0 0 1 13.8333 34.0631)" class="st1 st2 st4"></text>
</g>
<g id="Aircraft_Type_copy_3" class="st0">
	<g class="st1">
		<path d="M49.7,42.4v3H4.3v-39h2.8v36C7.1,42.4,49.7,42.4,49.7,42.4z"/>
	</g>
	<rect x="19.4" y="16.5" class="st1" width="17.9" height="2.3"/>
	<rect x="19.4" y="20.7" class="st1" width="17.9" height="2.3"/>
	<rect x="19.4" y="24.8" class="st1" width="17.9" height="2.3"/>
	<rect x="19.4" y="29" class="st1" width="17.9" height="2.3"/>
	<rect x="21.5" y="7.5" class="st1" width="12" height="4.6"/>
	<ellipse class="st1" cx="27.5" cy="8.2" rx="2.7" ry="2.5"/>
	<path class="st1" d="M37.4,8.8h-1.8v1.8h1.8c1.2,0,2.2,0.9,2.2,2.1v21.5c0,1.1-1,2.1-2.2,2.1H18.5c-1.2,0-2.2-0.9-2.2-2.1V12.7
		c0-1.1,1-2.1,2.2-2.1h0.7V8.8h-0.7c-2.3,0-4.1,1.8-4.1,3.9v21.5c0,2.2,1.9,3.9,4.1,3.9h18.9c2.3,0,4.1-1.8,4.1-3.9V12.7
		C41.5,10.6,39.7,8.8,37.4,8.8z"/>
</g>
<g id="Aircraft_Type_copy_2" class="st0">
	<g class="st1">
		<path d="M49.7,42.4v3H4.3v-39h2.8v36C7.1,42.4,49.7,42.4,49.7,42.4z"/>
	</g>
	<g class="st1">
		<path d="M27.2,37.6c-0.4,0-0.7-0.1-1-0.2c-0.5-0.3-11.9-7.4-12.6-7.9c-1.3-0.9-2-2-1.8-3c0.2-1,1.4-2,2.9-1.7
			C15.7,25,24,26.6,26.1,27l3.9-4.1h6.2c0.2-0.4,0.7-0.6,1.2-0.6h6.3v1.8h-6v0.5l-0.9,0.1h-6.1l-4,4.3l-0.5-0.1
			c-0.1,0-10.8-2.1-11.8-2.3c-0.6-0.1-0.8,0.2-0.9,0.3c0,0.1,0.1,0.6,1,1.1c1.2,0.8,11.8,7.5,12.4,7.8c0.1,0,0.4,0.2,1.4-0.5
			c1.3-0.8,5-2.8,5.2-2.9l0.2-0.1l3.9-0.3l0.1,0.8c0,0,0,0,0,0.1c0,0,0.1,0,0.1,0c0.2,0,3.7-0.2,5.9-0.2l0.1,1.8c-1,0-5.7,0.2-6,0.2
			c-0.5,0-1.1,0.1-1.5-0.3c-0.1-0.1-0.2-0.3-0.3-0.5l-1.8,0.1c-0.8,0.4-3.8,2.1-4.9,2.8C28.5,37.4,27.8,37.6,27.2,37.6z"/>
		<rect x="38.6" y="23.3" width="1.8" height="10.6"/>
		<rect x="36" y="23.3" width="1.8" height="10.4"/>
		<path d="M26.5,33.4c-0.2,0-0.3,0-0.5,0c-0.6-0.1-1.2-0.5-1.5-1c-0.9-1.8-0.5-2.9,0-3.6c0.6-0.8,2-2.1,2-2.1l1.2,1.3
			c-0.4,0.4-1.4,1.4-1.9,1.9c-0.3,0.4-0.2,0.9,0.2,1.6c0,0,0,0.1,0.2,0.1c0.3,0.1,0.8-0.1,0.9-0.2c0.3-0.2,1.7-1.9,3-3.5l1.4,1.2
			c-0.6,0.8-2.8,3.3-3.2,3.7C28,33.1,27.3,33.4,26.5,33.4z"/>
	</g>
	<text transform="matrix(1.1306 0 0 1 16.3745 21.2054)" class="st1 st5 st6">%</text>
</g>
<g id="Aircraft_Type_copy_4" class="st0">
	<g class="st1">
		<path d="M49.7,42.4v3H4.3v-39h2.8v36C7.1,42.4,49.7,42.4,49.7,42.4z"/>
	</g>
	<circle class="st1" cx="27.8" cy="23.5" r="15.3"/>
	<text transform="matrix(1 0 0 1 19.9587 29.6649)" class="st7 st2 st8"></text>
</g>
<g id="Aircraft_Type_copy_5" class="st0">
	<g class="st1">
		<path d="M49.7,42.4v3H4.3v-39h2.8v36C7.1,42.4,49.7,42.4,49.7,42.4z"/>
	</g>
	<circle class="st1" cx="27.8" cy="23.5" r="15.3"/>
	<text transform="matrix(1 0 0 1 18.3753 28.2482)" class="st7 st2 st8"></text>
</g>
<g id="Layer_9" class="st0">
</g>
<g id="Layer_8" class="st0">
	<g class="st1">
		<path d="M44.4,12.5c0.5,0.5,0.9,1.2,1.3,2s0.5,1.6,0.5,2.3v30.3c0,0.7-0.3,1.3-0.8,1.8s-1.1,0.7-1.8,0.7H7.8
			c-0.7,0-1.3-0.3-1.8-0.7c-0.5-0.5-0.8-1.1-0.8-1.8V5c0-0.7,0.3-1.3,0.8-1.8s1.1-0.7,1.8-0.7h23.9c0.7,0,1.5,0.2,2.4,0.5
			c0.8,0.3,1.5,0.8,2,1.3L44.4,12.5z M42.8,46.3v-27H31.7c-0.7,0-1.3-0.3-1.8-0.7c-0.5-0.5-0.8-1.1-0.8-1.8v-11H8.7v40.4H42.8z
			 M32.6,6.1V16h10c-0.2-0.5-0.4-0.9-0.6-1.1l-8.3-8.2C33.4,6.4,33.1,6.2,32.6,6.1z"/>
	</g>
	<text transform="matrix(1 0 0 1 13.9521 39.7904)" class="st1 st2 st9"></text>
</g>
<g id="Layer_8_copy" class="st0">
	<g class="st1">
		<path d="M44.4,12.5c0.5,0.5,0.9,1.2,1.3,2s0.5,1.6,0.5,2.3v30.3c0,0.7-0.3,1.3-0.8,1.8s-1.1,0.7-1.8,0.7H7.8
			c-0.7,0-1.3-0.3-1.8-0.7c-0.5-0.5-0.8-1.1-0.8-1.8V5c0-0.7,0.3-1.3,0.8-1.8s1.1-0.7,1.8-0.7h23.9c0.7,0,1.5,0.2,2.4,0.5
			c0.8,0.3,1.5,0.8,2,1.3L44.4,12.5z M42.8,46.3v-27H31.7c-0.7,0-1.3-0.3-1.8-0.7c-0.5-0.5-0.8-1.1-0.8-1.8v-11H8.7v40.4H42.8z
			 M32.6,6.1V16h10c-0.2-0.5-0.4-0.9-0.6-1.1l-8.3-8.2C33.4,6.4,33.1,6.2,32.6,6.1z"/>
	</g>
	<text transform="matrix(1 0 0 1 12.7897 40.8807)" class="st1 st2 st10"></text>
</g>
<g id="Layer_8_copy_2" class="st0">
	<g class="st1">
		<path d="M44.4,12.5c0.5,0.5,0.9,1.2,1.3,2s0.5,1.6,0.5,2.3v30.3c0,0.7-0.3,1.3-0.8,1.8s-1.1,0.7-1.8,0.7H7.8
			c-0.7,0-1.3-0.3-1.8-0.7c-0.5-0.5-0.8-1.1-0.8-1.8V5c0-0.7,0.3-1.3,0.8-1.8s1.1-0.7,1.8-0.7h23.9c0.7,0,1.5,0.2,2.4,0.5
			c0.8,0.3,1.5,0.8,2,1.3L44.4,12.5z M42.8,46.3v-27H31.7c-0.7,0-1.3-0.3-1.8-0.7c-0.5-0.5-0.8-1.1-0.8-1.8v-11H8.7v40.4H42.8z
			 M32.6,6.1V16h10c-0.2-0.5-0.4-0.9-0.6-1.1l-8.3-8.2C33.4,6.4,33.1,6.2,32.6,6.1z"/>
	</g>
	<rect x="14.5" y="11.9" class="st1" width="8.6" height="9.2"/>
	<rect x="25.1" y="24.5" class="st1" width="8.6" height="9.2"/>
	<rect x="25.1" y="35.7" class="st1" width="8.6" height="9.2"/>
	<rect x="17.3" y="20.6" class="st1" width="2" height="23.8"/>
	<rect x="18" y="28.3" class="st1" width="14.9" height="2"/>
	<rect x="18" y="39.1" class="st1" width="14.9" height="2"/>
</g>
<g id="Layer_8_copy_3" class="st0">
	<g class="st1">
		<path d="M44.4,12.5c0.5,0.5,0.9,1.2,1.3,2s0.5,1.6,0.5,2.3v30.3c0,0.7-0.3,1.3-0.8,1.8s-1.1,0.7-1.8,0.7H7.8
			c-0.7,0-1.3-0.3-1.8-0.7c-0.5-0.5-0.8-1.1-0.8-1.8V5c0-0.7,0.3-1.3,0.8-1.8s1.1-0.7,1.8-0.7h23.9c0.7,0,1.5,0.2,2.4,0.5
			c0.8,0.3,1.5,0.8,2,1.3L44.4,12.5z M42.8,46.3v-27H31.7c-0.7,0-1.3-0.3-1.8-0.7c-0.5-0.5-0.8-1.1-0.8-1.8v-11H8.7v40.4H42.8z
			 M32.6,6.1V16h10c-0.2-0.5-0.4-0.9-0.6-1.1l-8.3-8.2C33.4,6.4,33.1,6.2,32.6,6.1z"/>
	</g>
	<text transform="matrix(1 0 0 1 10.9831 41.6522)" class="st1 st2 st11"></text>
</g>
<g id="Layer_8_copy_4" class="st0">
	<g class="st1">
		<path d="M44.4,12.5c0.5,0.5,0.9,1.2,1.3,2s0.5,1.6,0.5,2.3v30.3c0,0.7-0.3,1.3-0.8,1.8s-1.1,0.7-1.8,0.7H7.8
			c-0.7,0-1.3-0.3-1.8-0.7c-0.5-0.5-0.8-1.1-0.8-1.8V5c0-0.7,0.3-1.3,0.8-1.8s1.1-0.7,1.8-0.7h23.9c0.7,0,1.5,0.2,2.4,0.5
			c0.8,0.3,1.5,0.8,2,1.3L44.4,12.5z M42.8,46.3v-27H31.7c-0.7,0-1.3-0.3-1.8-0.7c-0.5-0.5-0.8-1.1-0.8-1.8v-11H8.7v40.4H42.8z
			 M32.6,6.1V16h10c-0.2-0.5-0.4-0.9-0.6-1.1l-8.3-8.2C33.4,6.4,33.1,6.2,32.6,6.1z"/>
	</g>
	<text transform="matrix(1 0 0 1 11.8796 40.3244)" class="st1 st2 st12"></text>
</g>
<g id="Layer_8_copy_5" class="st0">
	<g class="st1">
		<path d="M44.4,12.5c0.5,0.5,0.9,1.2,1.3,2s0.5,1.6,0.5,2.3v30.3c0,0.7-0.3,1.3-0.8,1.8s-1.1,0.7-1.8,0.7H7.8
			c-0.7,0-1.3-0.3-1.8-0.7c-0.5-0.5-0.8-1.1-0.8-1.8V5c0-0.7,0.3-1.3,0.8-1.8s1.1-0.7,1.8-0.7h23.9c0.7,0,1.5,0.2,2.4,0.5
			c0.8,0.3,1.5,0.8,2,1.3L44.4,12.5z M42.8,46.3v-27H31.7c-0.7,0-1.3-0.3-1.8-0.7c-0.5-0.5-0.8-1.1-0.8-1.8v-11H8.7v40.4H42.8z
			 M32.6,6.1V16h10c-0.2-0.5-0.4-0.9-0.6-1.1l-8.3-8.2C33.4,6.4,33.1,6.2,32.6,6.1z"/>
	</g>
	<text transform="matrix(1 0 0 1 11.9606 40.264)" class="st1 st2 st13"></text>
</g>
<g id="Layer_14" class="st0">
</g>
<g id="bug" class="st0">
	<text transform="matrix(1 0 0 1 3.6263 44.3197)" class="st1 st2 st14"></text>
</g>
<g id="upgrade" class="st0">
	<path class="st1" d="M26,3C13.3,3,3,13.3,3,26s10.3,23,23,23s23-10.3,23-23S38.7,3,26,3z M26,44.6C15.7,44.6,7.4,36.2,7.4,26
		S15.7,7.4,26,7.4S44.5,15.7,44.5,26S36.2,44.6,26,44.6z"/>
	<g class="st1">
		<rect x="23.5" y="18.8" width="4.9" height="12.3"/>
		<rect x="23.5" y="32.6" width="4.9" height="2"/>
		<rect x="23.5" y="36.1" width="4.9" height="2"/>
		<rect x="23.5" y="39.6" width="4.9" height="2"/>
		<polygon points="26,19.1 20.1,19.1 23,14.7 26,10.3 28.9,14.7 31.8,19.1 		"/>
	</g>
</g>
<g id="crdit" class="st0">
	<text transform="matrix(1 0 0 1 4.535 40.7208)" class="st1 st2 st15"></text>
</g>
<g id="transport" class="st0">
	<text transform="matrix(1 0 0 1 8.4515 41.0362)" class="st1 st2 st16"></text>
</g>
<g id="meals" class="st0">
	<text transform="matrix(1 0 0 1 8.4515 41.0362)" class="st1 st2 st16"></text>
</g>
<g id="hotel" class="st0">
	<text transform="matrix(1 0 0 1 8.4515 41.0362)" class="st1 st2 st16"></text>
</g>
<g id="Excursion" class="st0">
	<g class="st1">
		<circle cx="29.1" cy="9.6" r="4.6"/>
		<path d="M14.4,16.4c0.2-1,0.6-3.3,0.9-5.4c-1.6-0.1-3.1,1-3.4,2.6l-0.6,2.9c1,0.2,2.2,0.5,2.9,0.7C14.3,17.1,14.3,16.8,14.4,16.4z
			"/>
		<path d="M32,30.2c1.2,0,6.2,0.3,7.9,0.4c1.7,0.1,2.5-2.2,1.9-3.1c-0.6-0.9-1.8-1.2-3.4-1.2S32.4,26,32.4,26l-3.2-6l2.8,3
			c0,0,0.8-1.8,0.7-3.2c0-1.4-1.2-2.3-2.9-2.7c-1.7-0.4-4.9-0.8-6-1c-0.7-0.1-1.7,0.5-2.5,1.4l0.4-1.7c0.4-1.8-0.8-3.5-2.6-3.9
			l-1.5-0.3c-0.3,2.1-0.7,4.4-0.9,5.4c-0.3,1.4-0.5,2.8-1.9,2.8c-0.1,0-0.3,0-0.4,0c-0.4-0.1-2.3-0.5-3.3-0.8l-0.5,2.5
			c-0.1-0.3-0.3-0.6-0.7-0.6l0,0c-0.5-0.1-0.9,0.2-1,0.7l-0.6,2.9c-0.1,0.5,0.2,0.9,0.7,1l0.1,0c0.3,0.1,0.6-0.1,0.9-0.3l-0.3,1.6
			c-0.4,1.8,0.8,3.5,2.6,3.9l3.2,0.6c1.3,0.3,2.5-0.3,3.2-1.2c-0.1,0.5-0.1,0.8-0.1,1c0,1.2,1.5,5,4.6,5.9h-4.6
			c-1.4,0-2.6,1.2-2.6,2.6v0.1c0,1.4,1.1,2.6,2.6,2.6h15.3v-4.8c0.9,0,1.6-0.1,2-0.1v11.8c0,1.3,1.2,2.4,2.6,2.4h0.1
			c1.4,0,2.6-1.1,2.6-2.4V34.6h-0.2c0-0.1,0-0.2,0-0.3c0-1.4-0.6-1.5-2.3-1.5s-5.4-0.6-7-0.6c-1.6,0-3.4,0.4-4.5-3.9
			c-1-4.3-1.4-5.8-1.4-5.8s3.7,6,4,6.6C29.8,29.7,30.8,30.2,32,30.2z"/>
	</g>
</g>
<g id="giftcard" class="st0">
	<path class="st1" d="M41.1,8.1H10.8c-3.2,0-5.8,2.6-5.8,5.8v24c0,3.2,2.6,5.8,5.8,5.8h30.3c3.2,0,5.8-2.6,5.8-5.8V14
		C47,10.8,44.3,8.1,41.1,8.1z M44.6,35.4c0,3.6-2.9,6.4-6.4,6.4H13.8c-3.6,0-6.4-2.9-6.4-6.4V16.6c0-3.6,2.9-6.4,6.4-6.4h24.4
		c3.6,0,6.4,2.9,6.4,6.4C44.6,16.6,44.6,35.4,44.6,35.4z"/>
	<text transform="matrix(1 0 0 1 13.9508 36.3075)" class="st1 st2 st17"></text>
</g>
<g id="order-now">
	<g class="st18">
		<path d="M43.5,15.9V28c0,0.4-0.1,0.7-0.4,1c-0.3,0.3-0.6,0.5-1,0.5l-24.7,2.9c0.2,0.9,0.3,1.5,0.3,1.7c0,0.3-0.2,0.8-0.6,1.5h21.7
			c0.4,0,0.8,0.2,1.1,0.4c0.3,0.3,0.4,0.7,0.4,1.1s-0.1,0.8-0.4,1.1c-0.3,0.3-0.7,0.4-1.1,0.4H14.7c-0.4,0-0.8-0.1-1.1-0.4
			c-0.3-0.3-0.4-0.7-0.4-1.1c0-0.2,0.1-0.4,0.2-0.7c0.1-0.3,0.3-0.6,0.4-0.9s0.3-0.6,0.5-0.9c0.2-0.4,0.3-0.6,0.4-0.7l-4.2-19.4H5.7
			c-0.4,0-0.8-0.1-1.1-0.4c-0.3-0.3-0.4-0.7-0.4-1.1c0-0.4,0.1-0.8,0.4-1.1c0.3-0.3,0.7-0.4,1.1-0.4h6c0.3,0,0.5,0.1,0.7,0.2
			c0.2,0.1,0.4,0.2,0.5,0.4c0.1,0.1,0.2,0.3,0.3,0.6c0.1,0.2,0.2,0.4,0.2,0.6c0,0.2,0.1,0.4,0.1,0.7c0.1,0.3,0.1,0.5,0.1,0.6h28.4
			c0.4,0,0.8,0.1,1.1,0.4C43.3,15.1,43.5,15.5,43.5,15.9z M18.4,39.5c0.6,0.6,0.9,1.3,0.9,2.1s-0.3,1.5-0.9,2.1s-1.3,0.9-2.1,0.9
			c-0.8,0-1.5-0.3-2.1-0.9c-0.6-0.6-0.9-1.3-0.9-2.1s0.3-1.5,0.9-2.1c0.6-0.6,1.3-0.9,2.1-0.9C17.1,38.6,17.8,38.9,18.4,39.5z
			 M39.5,39.5c0.6,0.6,0.9,1.3,0.9,2.1s-0.3,1.5-0.9,2.1c-0.6,0.6-1.3,0.9-2.1,0.9s-1.5-0.3-2.1-0.9s-0.9-1.3-0.9-2.1
			s0.3-1.5,0.9-2.1s1.3-0.9,2.1-0.9S38.9,38.9,39.5,39.5z"/>
	</g>
	<path d="M21.2,28L21.2,28c-1.1,0.2-2.2-0.6-2.4-1.7l-2.4-14.5c-0.2-1.1,0.6-2.2,1.7-2.4l0,0c1.1-0.2,2.2,0.6,2.4,1.7l2.4,14.5
		C23.1,26.8,22.3,27.8,21.2,28z"/>
	<path d="M29,28L29,28c-1.1,0.2-2.2-0.6-2.4-1.7l-2.4-14.5c-0.2-1.1,0.6-2.2,1.7-2.4l0,0c1.1-0.2,2.2,0.6,2.4,1.7l2.4,14.5
		C30.9,26.8,30.1,27.8,29,28z"/>
	<path d="M36.8,28L36.8,28c-1.1,0.2-2.2-0.6-2.4-1.7L32,11.9c-0.2-1.1,0.6-2.2,1.7-2.4l0,0c1.1-0.2,2.2,0.6,2.4,1.7l2.4,14.5
		C38.7,26.8,38,27.8,36.8,28z"/>
</g>
<g id="uploadflight" class="st0">
	<g class="st1">
		<rect x="34.7" y="29.1" width="3.6" height="9.1"/>
		<rect x="34.7" y="39.3" width="3.6" height="1.5"/>
		<rect x="34.7" y="41.9" width="3.6" height="1.5"/>
		<rect x="34.7" y="44.5" width="3.6" height="1.5"/>
		<path d="M44,22.3c-1.5-0.8-3.2-1.1-5-1.1h-5.8L24.2,6.4C24,6.1,23.8,6,23.5,6h-4.6c-0.3,0-0.5,0.1-0.6,0.3C18.1,6.5,18,6.8,18.1,7
			l4.1,14.1h-9.3l-2.5-4.4c0,0-0.1-0.1-0.1-0.2c-0.2-0.2-0.4-0.3-0.6-0.3l-3.5,0c-0.3,0-0.5,0.1-0.6,0.3c-0.2,0.2-0.2,0.4-0.2,0.6
			l1.1,7.9l-1.1,7.9c0,0.2,0,0.5,0.2,0.7l0,0C5.8,34,6,34.1,6.2,34.1h3.5c0.3,0,0.6-0.2,0.7-0.4l2.5-4.4h9.3l-4.1,14.1
			c-0.1,0.2,0,0.5,0.1,0.7c0,0,0.1,0.1,0.1,0.1c0.1,0.1,0.3,0.2,0.5,0.2l4,0.6c0.4,0,0.6-0.1,0.8-0.4l9.6-15.4H39
			c1.8,0,3.5-0.4,5-1.1s2.3-1.7,2.4-2.9C46.4,24.1,45.6,23.1,44,22.3z M36.5,29.1h-4.3l2.2-3.5l2.2-3.5l2.2,3.5l2.2,3.5H36.5z"/>
	</g>
</g>
<g id="currency" class="st0">
	<g class="st1">
		<text transform="matrix(0.9609 -0.2769 0.2769 0.9609 5.9039 38.1895)" class="st2 st19"></text>
		<text transform="matrix(0.999 4.569795e-02 -4.569795e-02 0.999 16.8782 26.0637)" class="st2 st20"></text>
		<text transform="matrix(0.6543 0.7562 -0.7562 0.6543 20.7813 31.6721)" class="st2 st21"></text>
	</g>
</g>
</svg>
