<?xml version="1.0" encoding="utf-8"?>
<!-- Generator: Adobe Illustrator 23.0.6, SVG Export Plug-In . SVG Version: 6.00 Build 0)  -->
<svg version="1.1" id="Layer_1" xmlns="http://www.w3.org/2000/svg" xmlns:xlink="http://www.w3.org/1999/xlink" x="0px" y="0px"
	 viewBox="0 0 51.9 52" style="enable-background:new 0 0 51.9 52;" xml:space="preserve">
<g>
	<path d="M19.9,37.5L19.9,37.5v-9.3l-3.6-0.1l-2,2.9c-0.1,0.2-0.3,0.3-0.5,0.3l-2.6-0.1c-0.2,0-0.3-0.1-0.4-0.2l0,0
		c-0.1-0.2-0.2-0.3-0.1-0.4l1-5.2L11,20c0-0.2,0-0.3,0.1-0.4c0.1-0.1,0.3-0.2,0.5-0.2l2.6,0.1c0.2,0,0.3,0.1,0.4,0.2
		c0.1,0.1,0.1,0.1,0.1,0.1l1.8,3l6.6,0.2c0.1-0.2,0.2-0.4,0.2-0.5l-2.6-8.9c0-0.2,0-0.4,0.1-0.4c0.1-0.2,0.3-0.2,0.5-0.2l2.3,0.1V5
		c0-0.4-0.2-0.8-0.5-1.1c-0.4-0.4-0.8-0.4-1.3-0.4s-0.9,0.2-1.3,0.4C20.1,4.2,20,4.6,20,5v10.4c0,0.4-0.2,0.8-0.5,1.1
		c-0.4,0.4-0.8,0.4-1.3,0.4s-0.9-0.2-1.3-0.4s-0.5-0.7-0.5-1.1V4.9c0-0.4-0.2-0.8-0.5-1.1c-0.5-0.3-0.9-0.4-1.4-0.4
		s-0.9,0.2-1.3,0.4c-0.4,0.4-0.5,0.7-0.5,1.1v10.4c0,0.4-0.2,0.8-0.5,1.1s-0.8,0.4-1.3,0.4s-0.9-0.2-1.3-0.4C9.2,16.2,9,15.8,9,15.3
		V4.9c0-0.4-0.2-0.8-0.5-1.1C8.1,3.5,7.7,3.3,7.2,3.3S6.3,3.5,5.9,3.8S5.4,4.5,5.4,4.9V21c0,1.1,0.3,1.9,1,2.8
		c0.7,0.8,1.5,1.4,2.6,1.8v19.5c0,0.9,0.4,1.6,1.1,2.3c0.7,0.6,1.6,1,2.6,1h3.6c1,0,1.8-0.4,2.6-1c0.7-0.6,1.1-1.4,1.1-2.3v-7.2
		C19.9,37.7,19.9,37.6,19.9,37.5z"/>
	<path d="M44.9,3.8c-0.4-0.4-0.8-0.4-1.3-0.4h-7.3c-2.5,0-4.6,0.8-6.4,2.4s-2.7,3.4-2.7,5.6v4.9l4.5,6.9l4.3,0.1
		c1.4,0,2.6,0.4,3.7,0.9c1.1,0.5,1.7,1.1,1.8,1.9c-0.1,0.8-0.7,1.4-1.9,1.9c-1.2,0.4-2.4,0.7-3.8,0.6l-4.3-0.1l-2.9,3.8h5.8V45
		c0,0.9,0.4,1.6,1.1,2.3c0.7,0.7,1.6,1,2.6,1h3.6c1,0,1.8-0.4,2.6-1s1.1-1.4,1.1-2.3V4.9C45.4,4.5,45.2,4.1,44.9,3.8z"/>
</g>
</svg>
