<?xml version="1.0" encoding="utf-8"?>
<!-- Generator: Adobe Illustrator 23.0.3, SVG Export Plug-In . SVG Version: 6.00 Build 0)  -->
<svg version="1.1" xmlns="http://www.w3.org/2000/svg" xmlns:xlink="http://www.w3.org/1999/xlink" x="0px" y="0px"
	 viewBox="0 0 51.9 51.97" style="enable-background:new 0 0 51.9 51.97;" xml:space="preserve">
<style type="text/css">
	.st0{display:none;}
	.st1{display:inline;}
	.st2{font-family:'FontAwesome';}
	.st3{font-size:50.9025px;}
	.st4{display:inline;fill:#FFFFFF;}
	.st5{font-size:33.9618px;}
	.st6{fill:#FFFFFF;}
	.st7{font-size:25.541px;}
</style>
<g id="Passenger_Purchases" class="st0">
	<rect x="14.29" y="26.58" class="st1" width="33" height="25.13"/>
	<text transform="matrix(1 0 0 1 7.403 44.4368)" class="st1 st2 st3"></text>
	<text transform="matrix(0.6861 0.7275 -0.7275 0.6861 6.6176 25.4615)" class="st4 st2 st5"></text>
	<g class="st1">
		<text transform="matrix(1 0 0 1 28.113 49.5584)" class="st6 st2 st7"></text>
	</g>
</g>
<g id="Layer_2" class="st0">
	<path class="st1" d="M24.58,2.62V20.8c0,1.16-0.34,2.21-1.01,3.15c-0.67,0.95-1.55,1.61-2.63,1.99v22.13
		c0,0.98-0.36,1.84-1.08,2.56c-0.72,0.72-1.57,1.08-2.56,1.08h-3.64c-0.98,0-1.84-0.36-2.56-1.08c-0.72-0.72-1.08-1.57-1.08-2.56
		V25.95c-1.08-0.38-1.96-1.04-2.63-1.99c-0.67-0.95-1.01-2-1.01-3.15V2.62c0-0.49,0.18-0.92,0.54-1.28C7.3,0.99,7.73,0.81,8.22,0.81
		c0.49,0,0.92,0.18,1.28,0.54c0.36,0.36,0.54,0.79,0.54,1.28v11.82c0,0.49,0.18,0.92,0.54,1.28c0.36,0.36,0.79,0.54,1.28,0.54
		c0.49,0,0.92-0.18,1.28-0.54c0.36-0.36,0.54-0.79,0.54-1.28V2.62c0-0.49,0.18-0.92,0.54-1.28c0.36-0.36,0.79-0.54,1.28-0.54
		c0.49,0,0.92,0.18,1.28,0.54c0.36,0.36,0.54,0.79,0.54,1.28v11.82c0,0.49,0.18,0.92,0.54,1.28c0.36,0.36,0.79,0.54,1.28,0.54
		s0.92-0.18,1.28-0.54c0.36-0.36,0.54-0.79,0.54-1.28V2.62c0-0.49,0.18-0.92,0.54-1.28s0.79-0.54,1.28-0.54s0.92,0.18,1.28,0.54
		S24.58,2.13,24.58,2.62z"/>
	<path class="st1" d="M44.4,2.62v45.45c0,0.98-0.36,1.84-1.08,2.56c-0.72,0.72-1.57,1.08-2.56,1.08h-3.64
		c-0.98,0-1.84-0.36-2.56-1.08c-0.72-0.72-1.08-1.57-1.08-2.56V33.53h-6.36c-0.25,0-0.46-0.09-0.64-0.27
		c-0.18-0.18-0.27-0.39-0.27-0.64V9.9c0-2.5,0.89-4.64,2.67-6.42c1.78-1.78,3.92-2.67,6.42-2.67h7.27c0.49,0,0.92,0.18,1.28,0.54
		C44.22,1.71,44.4,2.13,44.4,2.62z"/>
	<rect x="9.04" y="43.21" class="st4" width="41" height="8.63"/>
	<rect x="9.04" y="35.71" class="st4" width="41" height="4.75"/>
	<path class="st1" d="M45.53,30.83V44.1c0,1.58-1.28,2.86-2.86,2.86H11.23c-1.58,0-2.86-1.28-2.86-2.86V30.83H3.95V48.6
		c0,1.58,1.28,2.86,2.86,2.86h40.28c1.58,0,2.86-1.28,2.86-2.86V30.83H45.53z"/>
</g>
<g id="Layer_3" class="st0">
	<text transform="matrix(1 0 0 1 5.9534 44.4368)" class="st1 st2 st3"></text>
	<rect x="4.54" y="43.83" class="st4" width="46.38" height="2.75"/>
	<rect x="4.54" y="37.96" class="st4" width="46.38" height="2.75"/>
	<rect x="4.54" y="32.08" class="st4" width="46.38" height="2.75"/>
	<rect x="4.54" y="49.71" class="st4" width="46.38" height="2.75"/>
</g>
<g id="Layer_3_copy">
	<text transform="matrix(1 0 0 1 5.403 44.4368)" class="st2 st3"></text>
	<text transform="matrix(0.6861 0.7275 -0.7275 0.6861 4.6176 25.4615)" class="st6 st2 st5"></text>
</g>
<g id="flight_x5F_kitchen" class="st0">
	<text transform="matrix(1 0 0 1 5.528 44.1868)" class="st1 st2 st3"></text>
	<g class="st1">
		<path class="st6" d="M44.54,28.42v9.23c0,0.29-0.11,0.54-0.33,0.77c-0.22,0.22-0.49,0.35-0.81,0.39l-25.84,2.2
			c0.17,0.72,0.26,1.14,0.26,1.26c0,0.19-0.16,0.58-0.48,1.15h23.37c0.35,0,0.65,0.11,0.9,0.34s0.38,0.5,0.38,0.81
			s-0.13,0.58-0.38,0.81s-0.55,0.34-0.9,0.34H15.26c-0.35,0-0.65-0.11-0.9-0.34s-0.38-0.5-0.38-0.81c0-0.13,0.05-0.32,0.16-0.57
			s0.21-0.46,0.32-0.65c0.11-0.19,0.25-0.43,0.43-0.72c0.18-0.29,0.28-0.47,0.31-0.53l-3.53-14.84H7.6c-0.35,0-0.65-0.11-0.9-0.34
			c-0.25-0.23-0.38-0.5-0.38-0.81c0-0.31,0.13-0.58,0.38-0.81s0.55-0.34,0.9-0.34h5.11c0.21,0,0.4,0.04,0.57,0.12
			c0.17,0.08,0.3,0.17,0.39,0.28c0.09,0.11,0.18,0.26,0.26,0.44c0.08,0.19,0.13,0.34,0.16,0.47c0.03,0.13,0.06,0.3,0.11,0.53
			c0.05,0.23,0.08,0.38,0.09,0.47h28.98c0.35,0,0.65,0.11,0.9,0.34S44.54,28.11,44.54,28.42z M18.34,46.42
			c0.51,0.46,0.76,1,0.76,1.62c0,0.62-0.25,1.17-0.76,1.62c-0.51,0.46-1.11,0.68-1.8,0.68c-0.69,0-1.29-0.23-1.8-0.68
			c-0.51-0.46-0.76-1-0.76-1.62c0-0.62,0.25-1.17,0.76-1.62c0.51-0.46,1.1-0.68,1.8-0.68C17.23,45.73,17.83,45.96,18.34,46.42z
			 M41.23,46.42c0.5,0.46,0.76,1,0.76,1.62c0,0.62-0.25,1.17-0.76,1.62c-0.51,0.46-1.11,0.68-1.8,0.68c-0.69,0-1.29-0.23-1.8-0.68
			c-0.51-0.46-0.76-1-0.76-1.62c0-0.62,0.25-1.17,0.76-1.62c0.5-0.46,1.1-0.68,1.8-0.68C40.12,45.73,40.72,45.96,41.23,46.42z"/>
	</g>
</g>
</svg>
