<?xml version="1.0" encoding="utf-8"?>
<!-- Generator: Adobe Illustrator 23.0.6, SVG Export Plug-In . SVG Version: 6.00 Build 0)  -->
<svg version="1.1" xmlns="http://www.w3.org/2000/svg" xmlns:xlink="http://www.w3.org/1999/xlink" x="0px" y="0px"
	 viewBox="0 0 51.9 52" style="enable-background:new 0 0 51.9 52;" xml:space="preserve">
<style type="text/css">
	.st0{display:none;}
	.st1{display:inline;}
	.st2{font-family:'MyriadPro-Regular';}
	.st3{font-size:33.9741px;}
	.st4{font-size:31.6464px;}
	.st5{font-family:'ArialMT';}
	.st6{font-size:15.1793px;}
	.st7{display:inline;fill:#FFFFFF;}
	.st8{font-size:19.1945px;}
	.st9{font-size:22.9622px;}
	.st10{font-size:25.92px;}
	.st11{font-size:28.0144px;}
	.st12{font-size:26.2207px;}
	.st13{font-size:26.0584px;}
	.st14{display:inline;fill:none;stroke:#000000;stroke-width:3;stroke-linecap:round;stroke-miterlimit:10;}
	.st15{display:inline;fill:none;stroke:#FFFFFF;stroke-width:3;stroke-linecap:round;stroke-miterlimit:10;}
	.st16{fill:none;stroke:#000000;stroke-width:3;stroke-linecap:round;stroke-miterlimit:10;}
	.st17{fill:none;stroke:#FFFFFF;stroke-width:3;stroke-linecap:round;stroke-miterlimit:10;}
</style>
<g id="Layer_1" class="st0">
	<g id="Aircraft_Type">
		<g class="st1">
			<path d="M49.7,42.4v3H2.5V9.4h3v32.9H49.7z"/>
		</g>
		<text transform="matrix(1 0 0 1 9.4167 38.2313)" class="st1 st2 st3"></text>
	</g>
	<g id="Aircraft_Type_copy">
		<g class="st1">
			<path d="M49.7,42.4v3H4.3v-39h2.8v36C7.1,42.4,49.7,42.4,49.7,42.4z"/>
		</g>
		<text transform="matrix(1 0 0 1 13.8333 34.0632)" class="st1 st2 st4"></text>
	</g>
	<g id="Aircraft_Type_copy_2">
		<g class="st1">
			<path d="M49.7,42.4v3H4.3v-39h2.8v36C7.1,42.4,49.7,42.4,49.7,42.4z"/>
		</g>
		<g class="st1">
			<path d="M27.2,37.6c-0.4,0-0.7-0.1-1-0.2c-0.5-0.3-11.9-7.4-12.6-7.9c-1.3-0.9-2-2-1.8-3c0.2-1,1.4-2,2.9-1.7
				C15.7,25,24,26.6,26.1,27l3.9-4.1h6.2c0.2-0.4,0.7-0.6,1.2-0.6h6.3v1.8h-6v0.5l-0.9,0.1h-6.1l-4,4.3l-0.5-0.1
				c-0.1,0-10.8-2.1-11.8-2.3c-0.6-0.1-0.8,0.2-0.9,0.3c0,0.1,0.1,0.6,1,1.1c1.2,0.8,11.8,7.5,12.4,7.8c0.1,0,0.4,0.2,1.4-0.5
				c1.3-0.8,5-2.8,5.2-2.9l0.2-0.1l3.9-0.3l0.1,0.8c0,0,0,0,0,0.1c0,0,0.1,0,0.1,0c0.2,0,3.7-0.2,5.9-0.2l0.1,1.8
				c-1,0-5.7,0.2-6,0.2c-0.5,0-1.1,0.1-1.5-0.3c-0.1-0.1-0.2-0.3-0.3-0.5l-1.8,0.1c-0.8,0.4-3.8,2.1-4.9,2.8
				C28.5,37.4,27.8,37.6,27.2,37.6z"/>
			<rect x="38.6" y="23.3" width="1.8" height="10.6"/>
			<rect x="36" y="23.3" width="1.8" height="10.4"/>
			<path d="M26.5,33.4c-0.2,0-0.3,0-0.5,0c-0.6-0.1-1.2-0.5-1.5-1c-0.9-1.8-0.5-2.9,0-3.6c0.6-0.8,2-2.1,2-2.1l1.2,1.3
				c-0.4,0.4-1.4,1.4-1.9,1.9c-0.3,0.4-0.2,0.9,0.2,1.6c0,0,0,0.1,0.2,0.1c0.3,0.1,0.8-0.1,0.9-0.2c0.3-0.2,1.7-1.9,3-3.5l1.4,1.2
				c-0.6,0.8-2.8,3.3-3.2,3.7C28,33.1,27.3,33.4,26.5,33.4z"/>
		</g>
		<text transform="matrix(1.1306 0 0 1 16.3745 21.2052)" class="st1 st5 st6">%</text>
	</g>
	<g id="Aircraft_Type_copy_4">
		<g class="st1">
			<path d="M49.7,42.4v3H4.3v-39h2.8v36C7.1,42.4,49.7,42.4,49.7,42.4z"/>
		</g>
		<circle class="st1" cx="27.8" cy="23.5" r="15.3"/>
		<text transform="matrix(1 0 0 1 19.9587 29.6649)" class="st7 st2 st8"></text>
	</g>
	<g id="Aircraft_Type_copy_5">
		<g class="st1">
			<path d="M49.7,42.4v3H4.3v-39h2.8v36C7.1,42.4,49.7,42.4,49.7,42.4z"/>
		</g>
		<circle class="st1" cx="27.8" cy="23.5" r="15.3"/>
		<text transform="matrix(1 0 0 1 18.3753 28.2482)" class="st7 st2 st8"></text>
	</g>
	<g id="Layer_8">
		<g class="st1">
			<path d="M44.4,12.5c0.5,0.5,0.9,1.2,1.3,2s0.5,1.6,0.5,2.3v30.3c0,0.7-0.3,1.3-0.8,1.8s-1.1,0.7-1.8,0.7H7.8
				c-0.7,0-1.3-0.3-1.8-0.7c-0.5-0.5-0.8-1.1-0.8-1.8V5c0-0.7,0.3-1.3,0.8-1.8s1.1-0.7,1.8-0.7h23.9c0.7,0,1.5,0.2,2.4,0.5
				c0.8,0.3,1.5,0.8,2,1.3L44.4,12.5z M42.8,46.3v-27H31.7c-0.7,0-1.3-0.3-1.8-0.7c-0.5-0.5-0.8-1.1-0.8-1.8v-11H8.7v40.4H42.8z
				 M32.6,6.1V16h10c-0.2-0.5-0.4-0.9-0.6-1.1l-8.3-8.2C33.4,6.4,33.1,6.2,32.6,6.1z"/>
		</g>
		<text transform="matrix(1 0 0 1 13.9521 39.7904)" class="st1 st2 st9"></text>
	</g>
	<g id="Layer_8_copy">
		<g class="st1">
			<path d="M44.4,12.5c0.5,0.5,0.9,1.2,1.3,2s0.5,1.6,0.5,2.3v30.3c0,0.7-0.3,1.3-0.8,1.8s-1.1,0.7-1.8,0.7H7.8
				c-0.7,0-1.3-0.3-1.8-0.7c-0.5-0.5-0.8-1.1-0.8-1.8V5c0-0.7,0.3-1.3,0.8-1.8s1.1-0.7,1.8-0.7h23.9c0.7,0,1.5,0.2,2.4,0.5
				c0.8,0.3,1.5,0.8,2,1.3L44.4,12.5z M42.8,46.3v-27H31.7c-0.7,0-1.3-0.3-1.8-0.7c-0.5-0.5-0.8-1.1-0.8-1.8v-11H8.7v40.4H42.8z
				 M32.6,6.1V16h10c-0.2-0.5-0.4-0.9-0.6-1.1l-8.3-8.2C33.4,6.4,33.1,6.2,32.6,6.1z"/>
		</g>
		<text transform="matrix(1 0 0 1 12.7897 40.8807)" class="st1 st2 st10"></text>
	</g>
	<g id="Layer_8_copy_2">
		<g class="st1">
			<path d="M44.4,12.5c0.5,0.5,0.9,1.2,1.3,2s0.5,1.6,0.5,2.3v30.3c0,0.7-0.3,1.3-0.8,1.8s-1.1,0.7-1.8,0.7H7.8
				c-0.7,0-1.3-0.3-1.8-0.7c-0.5-0.5-0.8-1.1-0.8-1.8V5c0-0.7,0.3-1.3,0.8-1.8s1.1-0.7,1.8-0.7h23.9c0.7,0,1.5,0.2,2.4,0.5
				c0.8,0.3,1.5,0.8,2,1.3L44.4,12.5z M42.8,46.3v-27H31.7c-0.7,0-1.3-0.3-1.8-0.7c-0.5-0.5-0.8-1.1-0.8-1.8v-11H8.7v40.4H42.8z
				 M32.6,6.1V16h10c-0.2-0.5-0.4-0.9-0.6-1.1l-8.3-8.2C33.4,6.4,33.1,6.2,32.6,6.1z"/>
		</g>
		<rect x="14.5" y="11.9" class="st1" width="8.6" height="9.2"/>
		<rect x="25.1" y="24.5" class="st1" width="8.6" height="9.2"/>
		<rect x="25.1" y="35.7" class="st1" width="8.6" height="9.2"/>
		<rect x="17.3" y="20.6" class="st1" width="2" height="23.8"/>
		<rect x="18" y="28.3" class="st1" width="14.9" height="2"/>
		<rect x="18" y="39.1" class="st1" width="14.9" height="2"/>
	</g>
	<g id="Layer_8_copy_3">
		<g class="st1">
			<path d="M44.4,12.5c0.5,0.5,0.9,1.2,1.3,2s0.5,1.6,0.5,2.3v30.3c0,0.7-0.3,1.3-0.8,1.8s-1.1,0.7-1.8,0.7H7.8
				c-0.7,0-1.3-0.3-1.8-0.7c-0.5-0.5-0.8-1.1-0.8-1.8V5c0-0.7,0.3-1.3,0.8-1.8s1.1-0.7,1.8-0.7h23.9c0.7,0,1.5,0.2,2.4,0.5
				c0.8,0.3,1.5,0.8,2,1.3L44.4,12.5z M42.8,46.3v-27H31.7c-0.7,0-1.3-0.3-1.8-0.7c-0.5-0.5-0.8-1.1-0.8-1.8v-11H8.7v40.4H42.8z
				 M32.6,6.1V16h10c-0.2-0.5-0.4-0.9-0.6-1.1l-8.3-8.2C33.4,6.4,33.1,6.2,32.6,6.1z"/>
		</g>
		<text transform="matrix(1 0 0 1 10.9831 41.6522)" class="st1 st2 st11"></text>
	</g>
	<g id="Layer_8_copy_4">
		<g class="st1">
			<path d="M44.4,12.5c0.5,0.5,0.9,1.2,1.3,2s0.5,1.6,0.5,2.3v30.3c0,0.7-0.3,1.3-0.8,1.8s-1.1,0.7-1.8,0.7H7.8
				c-0.7,0-1.3-0.3-1.8-0.7c-0.5-0.5-0.8-1.1-0.8-1.8V5c0-0.7,0.3-1.3,0.8-1.8s1.1-0.7,1.8-0.7h23.9c0.7,0,1.5,0.2,2.4,0.5
				c0.8,0.3,1.5,0.8,2,1.3L44.4,12.5z M42.8,46.3v-27H31.7c-0.7,0-1.3-0.3-1.8-0.7c-0.5-0.5-0.8-1.1-0.8-1.8v-11H8.7v40.4H42.8z
				 M32.6,6.1V16h10c-0.2-0.5-0.4-0.9-0.6-1.1l-8.3-8.2C33.4,6.4,33.1,6.2,32.6,6.1z"/>
		</g>
		<text transform="matrix(1 0 0 1 11.8796 40.3244)" class="st1 st2 st12"></text>
	</g>
	<g id="Layer_8_copy_5">
		<g class="st1">
			<path d="M44.4,12.5c0.5,0.5,0.9,1.2,1.3,2s0.5,1.6,0.5,2.3v30.3c0,0.7-0.3,1.3-0.8,1.8s-1.1,0.7-1.8,0.7H7.8
				c-0.7,0-1.3-0.3-1.8-0.7c-0.5-0.5-0.8-1.1-0.8-1.8V5c0-0.7,0.3-1.3,0.8-1.8s1.1-0.7,1.8-0.7h23.9c0.7,0,1.5,0.2,2.4,0.5
				c0.8,0.3,1.5,0.8,2,1.3L44.4,12.5z M42.8,46.3v-27H31.7c-0.7,0-1.3-0.3-1.8-0.7c-0.5-0.5-0.8-1.1-0.8-1.8v-11H8.7v40.4H42.8z
				 M32.6,6.1V16h10c-0.2-0.5-0.4-0.9-0.6-1.1l-8.3-8.2C33.4,6.4,33.1,6.2,32.6,6.1z"/>
		</g>
		<text transform="matrix(1 0 0 1 11.9606 40.264)" class="st1 st2 st13"></text>
	</g>
	<path class="st1" d="M12.2,36.9l4.3-4.2c2.3,3.1,5.1,4.7,9,4.8c2.2,0,4.3-0.5,6.2-1.6c0.4,0.4,1.3,1.4,1.5,1.6
		c-2.3,1.5-5,2.2-7.7,2.2c-3.1-0.1-6-1.2-8.4-3.2c0,0-2.7,2.7-2.8,2.7c0.7,2.1-0.9,4.5-3.3,4.5c-1.9,0-3.4-1.5-3.4-3.5
		C7.7,37.8,10,36.2,12.2,36.9z M37.6,18.9c1.4,2.2,2.1,4.8,2,7.4c-0.1,3.2-1.4,6.2-3.5,8.6c0,0,1.7,1.8,1.7,1.8
		c0.7-0.1,1.4,0.1,1.8,0.6c0.8,0.9,0.8,2.2-0.1,3c-0.9,0.8-2.2,0.8-3-0.1c-0.5-0.5-0.7-1.2-0.5-1.9c-1.8-1.9-3.2-3.4-3.2-3.4
		c3-2.4,4.5-5.7,4.6-8.9c0-2.1-0.5-4.1-1.5-5.9L37.6,18.9L37.6,18.9z M15.1,11.5c0.5,0.5,0.7,1.2,0.5,1.9l3.3,3.4
		c-0.3,0.3-0.9,0.7-1.6,1.5c-1.8,2-2.8,4.6-2.9,7.3c0,2.1,0.4,4.1,1.4,5.9l-1.6,1.5c-1.4-2.3-2.1-4.8-2-7.5c0.1-3.2,1.3-6.3,3.4-8.6
		l-1.8-1.9c-0.7,0.1-1.4-0.1-1.8-0.6c-0.8-0.9-0.8-2.2,0.1-3C12.9,10.6,14.3,10.7,15.1,11.5z M40.9,8.3c1.9,0,3.4,1.6,3.4,3.4
		s-1.5,3.4-3.4,3.4c-0.4,0-1-0.1-1.1-0.1l-4.5,4.3c-2.3-3.1-5.5-4.7-9.1-4.8c-2.2,0-4.3,0.5-6.2,1.6l-1.5-1.6c2.3-1.5,5-2.2,7.7-2.2
		c3.1,0.1,6,1.2,8.4,3.2l2.9-2.8c-0.1-0.3-0.2-0.7-0.2-1C37.4,9.9,39,8.3,40.9,8.3z M26,15.8c0.4,0,0.8,0,1.2,0.1
		c5.6,0.7,9.5,5.8,8.8,11.4c-0.7,5.6-5.8,9.5-11.4,8.8c-5.6-0.7-9.5-5.8-8.8-11.4C16.5,19.6,20.8,15.8,26,15.8L26,15.8z M21.8,24.4
		c0,1.6,0.9,3,2.3,3.7l-0.8,3.7h5.3l-0.8-3.7c1.4-0.8,2.3-2.1,2.3-3.7c0-2.3-1.8-4.1-4.2-4.2C23.7,20.2,21.9,22,21.8,24.4L21.8,24.4
		z"/>
</g>
<g id="Layer_2" class="st0">
	<path class="st1" d="M18.2,31.5c-0.5,0-0.9-0.4-0.9-0.9v-1.8c0-0.5,0.4-0.9,0.9-0.9h15.4c0.5,0,0.9,0.4,0.9,0.9v1.8
		c0,0.5-0.4,0.9-0.9,0.9H18.2z M43.2,14.9V42c0,2-1.7,3.7-3.7,3.7H12.4c-2,0-3.7-1.7-3.7-3.7V14.9c0-2,1.7-3.7,3.7-3.7h3.7v-4
		c0-0.5,0.4-0.9,0.9-0.9h3.1c0.5,0,0.9,0.4,0.9,0.9v4h9.9v-4c0-0.5,0.4-0.9,0.9-0.9h3.1c0.5,0,0.9,0.4,0.9,0.9v4h3.7
		C41.5,11.2,43.2,12.9,43.2,14.9z M39.5,41.5V18.6H12.4v22.9c0,0.3,0.2,0.5,0.5,0.5H39C39.3,42,39.5,41.8,39.5,41.5z"/>
</g>
<g id="Layer_3" class="st0">
	<path class="st1" d="M41.5,29l3.1-13.7c0.2-1-0.5-1.9-1.5-1.9H17.2l-0.6-3c-0.2-0.7-0.8-1.3-1.5-1.3H8.3c-0.9,0-1.6,0.7-1.6,1.6
		v1.1c0,0.9,0.7,1.6,1.6,1.6h4.6L17.5,36c-1.1,0.6-1.9,1.8-1.9,3.2c0,2,1.7,3.7,3.7,3.7s3.7-1.7,3.7-3.7c0-1-0.4-2-1.1-2.6h13.8
		c-0.7,0.7-1.1,1.6-1.1,2.6c0,2,1.7,3.7,3.7,3.7s3.7-1.7,3.7-3.7c0-1.5-0.8-2.7-2.1-3.3l0.4-1.6c0.2-1-0.5-1.9-1.5-1.9H21.1
		l-0.4-2.1H40C40.7,30.2,41.4,29.7,41.5,29z"/>
	<line class="st14" x1="46" y1="10.6" x2="12" y2="46.4"/>
	<line class="st15" x1="48.3" y1="11.9" x2="14.3" y2="47.6"/>
</g>
<g id="Layer_4" class="st0">
	<g class="st1">
		<path d="M12.3,41.5c0.1,2,1.8,3.6,3.8,3.6h19.7c2,0,3.7-1.6,3.8-3.6l1.7-27.1H10.6L12.3,41.5z M20.3,26.2l3.1-5.1
			c0.2-0.3,0.5-0.3,0.7,0l3,4l3-2c0.2-0.1,0.5-0.1,0.6,0.2l3.2,6.6H20.3V26.2z M17,20.2c0-0.2,0.2-0.4,0.4-0.4h1.4
			c0.2,0,0.4,0.2,0.4,0.4V31h15.3c0.2,0,0.4,0.2,0.4,0.4v1.4c0,0.2-0.2,0.4-0.4,0.4H17.4c-0.2,0-0.4-0.2-0.4-0.4V20.2z"/>
		<path d="M42.6,9.4H33l-0.8-1.5c-0.3-0.7-1-1.1-1.7-1.1h-9.1c-0.7,0-1.4,0.4-1.7,1.1l-0.8,1.5H9.3C8.6,9.4,8,10,8,10.7v2.6
			c0,0.7,0.6,1.3,1.3,1.3h33.3c0.7,0,1.3-0.6,1.3-1.3v-2.6C43.9,10,43.3,9.4,42.6,9.4z"/>
	</g>
</g>
<g id="Layer_5">
	<path d="M39.2,21.6h-7.9L24.1,8.9c-0.2-0.3-0.6-0.6-1-0.6h-4.5c-0.7,0-1.3,0.7-1.1,1.4l3.4,11.9h-7.1l-3-4
		c-0.2-0.3-0.5-0.4-0.9-0.4H7.2c-0.7,0-1.2,0.7-1.1,1.4L8.3,26l-2.2,7.5c-0.2,0.7,0.4,1.4,1.1,1.4h2.8c0.3,0,0.7-0.2,0.9-0.4l3-4
		h7.1l-3.4,11.8c-0.2,0.7,0.3,1.4,1.1,1.4h4.5c0.4,0,0.8-0.2,1-0.6l7.3-12.7h7.9c2.4,0,6.6-2,6.6-4.4S41.6,21.6,39.2,21.6z"/>
	<line class="st16" x1="39.1" y1="10.5" x2="11.6" y2="40"/>
	<line class="st17" x1="41.4" y1="12.1" x2="13.9" y2="41.5"/>
</g>
</svg>
