<?xml version="1.0" encoding="utf-8"?>
<!-- Generator: Adobe Illustrator 23.0.6, SVG Export Plug-In . SVG Version: 6.00 Build 0)  -->
<svg version="1.1" id="Layer_1" xmlns="http://www.w3.org/2000/svg" xmlns:xlink="http://www.w3.org/1999/xlink" x="0px" y="0px"
	 viewBox="0 0 51.9 52" style="enable-background:new 0 0 51.9 52;" xml:space="preserve">
<style type="text/css">
	.st0{enable-background:new    ;}
</style>
<g id="Layer_8_copy_5">
	<g>
		<path d="M44.4,12.5c0.5,0.5,0.9,1.2,1.3,2s0.5,1.6,0.5,2.3v30.3c0,0.7-0.3,1.3-0.8,1.8s-1.1,0.7-1.8,0.7H7.8
			c-0.7,0-1.3-0.3-1.8-0.7c-0.5-0.5-0.8-1.1-0.8-1.8V5c0-0.7,0.3-1.3,0.8-1.8s1.1-0.7,1.8-0.7h23.9c0.7,0,1.5,0.2,2.4,0.5
			c0.8,0.3,1.5,0.8,2,1.3L44.4,12.5z M42.8,46.3v-27H31.7c-0.7,0-1.3-0.3-1.8-0.7c-0.5-0.5-0.8-1.1-0.8-1.8v-11H8.7v40.4H42.8z
			 M32.6,6.1V16h10c-0.2-0.5-0.4-0.9-0.6-1.1l-8.3-8.2C33.4,6.4,33.1,6.3,32.6,6.1z"/>
	</g>
	<g class="st0">
		<path d="M37.7,40.3c0,0.5-0.2,1-0.5,1.3l-1.6,1.6c-0.4,0.4-0.8,0.5-1.3,0.5c-0.5,0-1-0.2-1.3-0.5l-5.3-5.3
			c-0.4-0.3-0.6-0.8-0.6-1.3c0-0.5,0.2-1,0.6-1.4l-3.7-3.7l-1.8,1.8c-0.1,0.1-0.3,0.2-0.5,0.2c-0.2,0-0.4-0.1-0.5-0.2
			c0,0,0.1,0.1,0.2,0.2c0.1,0.1,0.2,0.2,0.2,0.2c0,0,0.1,0.1,0.1,0.2c0.1,0.1,0.1,0.1,0.1,0.2c0,0,0,0.1,0.1,0.2
			c0,0.1,0.1,0.2,0.1,0.2c0,0.1,0,0.2,0,0.3c0,0.4-0.1,0.7-0.4,1c0,0-0.1,0.1-0.2,0.3s-0.2,0.2-0.3,0.3s-0.1,0.1-0.3,0.2
			c-0.1,0.1-0.2,0.2-0.3,0.2c-0.1,0-0.2,0.1-0.3,0.1c-0.1,0-0.3,0.1-0.4,0.1c-0.4,0-0.7-0.1-1-0.4l-5.9-5.9c-0.3-0.3-0.4-0.6-0.4-1
			c0-0.1,0-0.3,0.1-0.4c0-0.1,0.1-0.2,0.1-0.3c0-0.1,0.1-0.2,0.2-0.3c0.1-0.1,0.2-0.2,0.2-0.3c0.1-0.1,0.2-0.1,0.3-0.3
			s0.2-0.2,0.3-0.2c0.3-0.3,0.6-0.4,1-0.4c0.1,0,0.2,0,0.3,0c0.1,0,0.2,0,0.2,0.1c0.1,0,0.1,0.1,0.2,0.1c0,0,0.1,0.1,0.2,0.1
			c0.1,0.1,0.1,0.1,0.2,0.1s0.1,0.1,0.2,0.2c0.1,0.1,0.2,0.2,0.2,0.2C16,28.1,16,27.9,16,27.7c0-0.2,0.1-0.4,0.2-0.5l5.1-5.1
			c0.1-0.1,0.3-0.2,0.5-0.2c0.2,0,0.4,0.1,0.5,0.2c0,0-0.1-0.1-0.2-0.2c-0.1-0.1-0.2-0.2-0.2-0.2c0,0-0.1-0.1-0.1-0.2
			s-0.1-0.1-0.1-0.2s0-0.1-0.1-0.2c0-0.1-0.1-0.2-0.1-0.2c0-0.1,0-0.2,0-0.3c0-0.4,0.1-0.7,0.4-1c0,0,0.1-0.1,0.2-0.3
			c0.1-0.1,0.2-0.2,0.3-0.3c0.1-0.1,0.1-0.1,0.3-0.2c0.1-0.1,0.2-0.2,0.3-0.2c0.1,0,0.2-0.1,0.3-0.1c0.1,0,0.3-0.1,0.4-0.1
			c0.4,0,0.7,0.1,1,0.4l5.9,5.9c0.3,0.3,0.4,0.6,0.4,1c0,0.1,0,0.3-0.1,0.4s-0.1,0.2-0.1,0.3c0,0.1-0.1,0.2-0.2,0.3
			s-0.2,0.2-0.2,0.3c-0.1,0.1-0.2,0.1-0.3,0.3s-0.2,0.2-0.3,0.2c-0.3,0.3-0.6,0.4-1,0.4c-0.1,0-0.2,0-0.3,0c-0.1,0-0.2,0-0.2-0.1
			c-0.1,0-0.1-0.1-0.2-0.1c0,0-0.1-0.1-0.2-0.1c-0.1-0.1-0.1-0.1-0.2-0.1c0,0-0.1-0.1-0.2-0.2c-0.1-0.1-0.2-0.2-0.2-0.2
			c0.1,0.1,0.2,0.3,0.2,0.5c0,0.2-0.1,0.4-0.2,0.5L25.5,30l3.7,3.7c0.4-0.4,0.9-0.6,1.4-0.6c0.5,0,0.9,0.2,1.3,0.5l5.3,5.3
			C37.5,39.3,37.7,39.8,37.7,40.3z"/>
	</g>
</g>
</svg>
