<?xml version="1.0" encoding="utf-8"?>
<!-- Generator: Adobe Illustrator 23.0.6, SVG Export Plug-In . SVG Version: 6.00 Build 0)  -->
<svg version="1.1" xmlns="http://www.w3.org/2000/svg" xmlns:xlink="http://www.w3.org/1999/xlink" x="0px" y="0px"
	 viewBox="0 0 51.9 51.97" style="enable-background:new 0 0 51.9 51.97;" xml:space="preserve">
<style type="text/css">
	.st0{display:none;}
	.st1{display:inline;}
	.st2{font-family:'FontAwesome';}
	.st3{font-size:33.9741px;}
	.st4{font-size:31.6464px;}
	.st5{font-family:'MyriadPro-Regular';}
	.st6{font-size:15.1793px;}
	.st7{display:inline;fill:#FFFFFF;}
	.st8{font-size:19.1945px;}
	.st9{font-size:22.9622px;}
	.st10{font-size:25.92px;}
	.st11{font-size:28.0144px;}
	.st12{font-size:26.2207px;}
	.st13{font-size:26.0584px;}
	.st14{font-size:48px;}
	.st15{font-size:39.9762px;}
	.st16{font-size:40.8318px;}
	.st17{font-size:28.0004px;}
	.st18{font-size:42.3393px;}
	.st19{font-size:25.8726px;}
	.st20{font-size:24.7117px;}
	.st21{font-size:30.2938px;}
</style>
<g id="Aircraft_Type" class="st0">
	<g class="st1">
		<path d="M49.67,42.37v2.99H2.53V9.45h2.95v32.92H49.67z"/>
	</g>
	<text transform="matrix(1 0 0 1 9.4167 38.2313)" class="st1 st2 st3"></text>
</g>
<g id="Aircraft_Type_copy" class="st0">
	<g class="st1">
		<path d="M49.67,42.37v2.99H4.29V6.33h2.84v36.04H49.67z"/>
	</g>
	<text transform="matrix(1 0 0 1 13.8333 34.0631)" class="st1 st2 st4"></text>
</g>
<g id="Aircraft_Type_copy_3" class="st0">
	<g class="st1">
		<path d="M49.67,42.37v2.99H4.29V6.33h2.84v36.04H49.67z"/>
	</g>
	<rect x="19.38" y="16.54" class="st1" width="17.91" height="2.3"/>
	<rect x="19.38" y="20.69" class="st1" width="17.91" height="2.3"/>
	<rect x="19.38" y="24.84" class="st1" width="17.91" height="2.3"/>
	<rect x="19.38" y="28.99" class="st1" width="17.91" height="2.3"/>
	<rect x="21.53" y="7.55" class="st1" width="11.98" height="4.61"/>
	<ellipse class="st1" cx="27.52" cy="8.24" rx="2.66" ry="2.54"/>
	<path class="st1" d="M37.41,8.82h-1.82v1.84h1.82c1.2,0,2.18,0.93,2.18,2.07v21.55c0,1.14-0.98,2.07-2.18,2.07H18.53
		c-1.2,0-2.18-0.93-2.18-2.07V12.74c0-1.14,0.98-2.07,2.18-2.07h0.73V8.82h-0.73c-2.27,0-4.11,1.76-4.11,3.92v21.55
		c0,2.16,1.85,3.92,4.11,3.92h18.88c2.27,0,4.11-1.76,4.11-3.92V12.74C41.52,10.58,39.68,8.82,37.41,8.82z"/>
</g>
<g id="Aircraft_Type_copy_2" class="st0">
	<g class="st1">
		<path d="M49.67,42.37v2.99H4.29V6.33h2.84v36.04H49.67z"/>
	</g>
	<g class="st1">
		<path d="M27.21,37.63c-0.35,0-0.69-0.08-1.01-0.24c-0.54-0.27-11.92-7.42-12.59-7.86c-1.3-0.85-1.98-2-1.77-3
			c0.22-1.04,1.41-2,2.94-1.73c0.95,0.16,9.22,1.82,11.36,2.24l3.88-4.12h6.2c0.24-0.38,0.67-0.59,1.23-0.59h6.29v1.8h-5.95v0.54
			l-0.9,0.06H30.8L26.77,29l-0.49-0.1c-0.11-0.02-10.76-2.15-11.8-2.33c-0.57-0.1-0.84,0.23-0.87,0.33c0,0.08,0.15,0.57,1,1.12
			c1.22,0.8,11.84,7.45,12.41,7.75c0.1,0.05,0.38,0.19,1.43-0.45c1.3-0.79,5.01-2.82,5.17-2.91l0.17-0.09l3.87-0.29l0.11,0.85
			c0,0,0,0.02,0.01,0.06c0.03,0,0.06,0,0.08,0c0.22,0,3.65-0.15,5.9-0.24l0.08,1.8c-0.96,0.04-5.74,0.24-5.98,0.24
			c-0.46,0.03-1.07,0.07-1.5-0.33c-0.14-0.13-0.24-0.28-0.29-0.45L34.3,34.1c-0.76,0.41-3.82,2.09-4.93,2.77
			C28.53,37.38,27.84,37.63,27.21,37.63z"/>
		<rect x="38.57" y="23.32" width="1.8" height="10.56"/>
		<rect x="36" y="23.35" width="1.8" height="10.44"/>
		<path d="M26.53,33.37c-0.17,0-0.33-0.01-0.5-0.04c-0.65-0.12-1.17-0.49-1.46-1.05c-0.93-1.76-0.51-2.91,0-3.57
			c0.59-0.76,1.99-2.08,2.05-2.13l1.23,1.31c-0.38,0.35-1.44,1.39-1.86,1.93c-0.27,0.35-0.21,0.89,0.17,1.62
			c0.02,0.03,0.04,0.08,0.18,0.11c0.32,0.07,0.76-0.08,0.87-0.17c0.25-0.22,1.74-1.94,3.02-3.48l1.38,1.16
			c-0.64,0.76-2.76,3.28-3.23,3.68C28.01,33.08,27.28,33.37,26.53,33.37z"/>
	</g>
	<text transform="matrix(1.1306 0 0 1 16.3747 21.2054)" class="st1 st5 st6">%</text>
</g>
<g id="Aircraft_Type_copy_4" class="st0">
	<g class="st1">
		<path d="M49.67,42.37v2.99H4.29V6.33h2.84v36.04H49.67z"/>
	</g>
	<circle class="st1" cx="27.83" cy="23.54" r="15.29"/>
	<text transform="matrix(1 0 0 1 19.9587 29.6649)" class="st7 st2 st8"></text>
</g>
<g id="Aircraft_Type_copy_5" class="st0">
	<g class="st1">
		<path d="M49.67,42.37v2.99H4.29V6.33h2.84v36.04H49.67z"/>
	</g>
	<circle class="st1" cx="27.83" cy="23.54" r="15.29"/>
	<text transform="matrix(1 0 0 1 18.3753 28.2482)" class="st7 st2 st8"></text>
</g>
<g id="Layer_9" class="st0">
</g>
<g id="Layer_8" class="st0">
	<g class="st1">
		<path d="M44.4,12.5c0.5,0.49,0.92,1.16,1.28,2c0.36,0.84,0.53,1.62,0.53,2.32v30.32c0,0.7-0.25,1.3-0.75,1.79
			c-0.5,0.49-1.1,0.74-1.81,0.74H7.82c-0.71,0-1.32-0.25-1.81-0.74c-0.5-0.49-0.75-1.09-0.75-1.79V5.02c0-0.7,0.25-1.3,0.75-1.79
			c0.5-0.49,1.1-0.74,1.81-0.74h23.88c0.71,0,1.49,0.18,2.35,0.53c0.85,0.35,1.53,0.77,2.03,1.26L44.4,12.5z M42.8,46.3V19.34H31.71
			c-0.71,0-1.32-0.25-1.81-0.74c-0.5-0.49-0.75-1.09-0.75-1.79V5.86H8.67V46.3H42.8z M32.56,6.08v9.9h10.02
			c-0.18-0.51-0.37-0.87-0.59-1.08l-8.34-8.24C33.44,6.44,33.08,6.25,32.56,6.08z"/>
	</g>
	<text transform="matrix(1 0 0 1 13.9521 39.7904)" class="st1 st2 st9"></text>
</g>
<g id="Layer_8_copy" class="st0">
	<g class="st1">
		<path d="M44.4,12.5c0.5,0.49,0.92,1.16,1.28,2c0.36,0.84,0.53,1.62,0.53,2.32v30.32c0,0.7-0.25,1.3-0.75,1.79
			c-0.5,0.49-1.1,0.74-1.81,0.74H7.82c-0.71,0-1.32-0.25-1.81-0.74c-0.5-0.49-0.75-1.09-0.75-1.79V5.02c0-0.7,0.25-1.3,0.75-1.79
			c0.5-0.49,1.1-0.74,1.81-0.74h23.88c0.71,0,1.49,0.18,2.35,0.53c0.85,0.35,1.53,0.77,2.03,1.26L44.4,12.5z M42.8,46.3V19.34H31.71
			c-0.71,0-1.32-0.25-1.81-0.74c-0.5-0.49-0.75-1.09-0.75-1.79V5.86H8.67V46.3H42.8z M32.56,6.08v9.9h10.02
			c-0.18-0.51-0.37-0.87-0.59-1.08l-8.34-8.24C33.44,6.44,33.08,6.25,32.56,6.08z"/>
	</g>
	<text transform="matrix(1 0 0 1 12.7897 40.8807)" class="st1 st2 st10"></text>
</g>
<g id="Layer_8_copy_2" class="st0">
	<g class="st1">
		<path d="M44.4,12.5c0.5,0.49,0.92,1.16,1.28,2c0.36,0.84,0.53,1.62,0.53,2.32v30.32c0,0.7-0.25,1.3-0.75,1.79
			c-0.5,0.49-1.1,0.74-1.81,0.74H7.82c-0.71,0-1.32-0.25-1.81-0.74c-0.5-0.49-0.75-1.09-0.75-1.79V5.02c0-0.7,0.25-1.3,0.75-1.79
			c0.5-0.49,1.1-0.74,1.81-0.74h23.88c0.71,0,1.49,0.18,2.35,0.53c0.85,0.35,1.53,0.77,2.03,1.26L44.4,12.5z M42.8,46.3V19.34H31.71
			c-0.71,0-1.32-0.25-1.81-0.74c-0.5-0.49-0.75-1.09-0.75-1.79V5.86H8.67V46.3H42.8z M32.56,6.08v9.9h10.02
			c-0.18-0.51-0.37-0.87-0.59-1.08l-8.34-8.24C33.44,6.44,33.08,6.25,32.56,6.08z"/>
	</g>
	<rect x="14.46" y="11.92" class="st1" width="8.58" height="9.17"/>
	<rect x="25.13" y="24.5" class="st1" width="8.58" height="9.17"/>
	<rect x="25.13" y="35.67" class="st1" width="8.58" height="9.17"/>
	<rect x="17.29" y="20.58" class="st1" width="2" height="23.83"/>
	
		<rect x="24.5" y="21.88" transform="matrix(-1.836970e-16 1 -1 -1.836970e-16 54.8333 3.8333)" class="st1" width="2" height="14.92"/>
	
		<rect x="24.5" y="32.63" transform="matrix(-1.836970e-16 1 -1 -1.836970e-16 65.5833 14.5833)" class="st1" width="2" height="14.92"/>
</g>
<g id="Layer_8_copy_3" class="st0">
	<g class="st1">
		<path d="M44.4,12.5c0.5,0.49,0.92,1.16,1.28,2c0.36,0.84,0.53,1.62,0.53,2.32v30.32c0,0.7-0.25,1.3-0.75,1.79
			c-0.5,0.49-1.1,0.74-1.81,0.74H7.82c-0.71,0-1.32-0.25-1.81-0.74c-0.5-0.49-0.75-1.09-0.75-1.79V5.02c0-0.7,0.25-1.3,0.75-1.79
			c0.5-0.49,1.1-0.74,1.81-0.74h23.88c0.71,0,1.49,0.18,2.35,0.53c0.85,0.35,1.53,0.77,2.03,1.26L44.4,12.5z M42.8,46.3V19.34H31.71
			c-0.71,0-1.32-0.25-1.81-0.74c-0.5-0.49-0.75-1.09-0.75-1.79V5.86H8.67V46.3H42.8z M32.56,6.08v9.9h10.02
			c-0.18-0.51-0.37-0.87-0.59-1.08l-8.34-8.24C33.44,6.44,33.08,6.25,32.56,6.08z"/>
	</g>
	<text transform="matrix(1 0 0 1 10.9831 41.6522)" class="st1 st2 st11"></text>
</g>
<g id="Layer_8_copy_4" class="st0">
	<g class="st1">
		<path d="M44.4,12.5c0.5,0.49,0.92,1.16,1.28,2c0.36,0.84,0.53,1.62,0.53,2.32v30.32c0,0.7-0.25,1.3-0.75,1.79
			c-0.5,0.49-1.1,0.74-1.81,0.74H7.82c-0.71,0-1.32-0.25-1.81-0.74c-0.5-0.49-0.75-1.09-0.75-1.79V5.02c0-0.7,0.25-1.3,0.75-1.79
			c0.5-0.49,1.1-0.74,1.81-0.74h23.88c0.71,0,1.49,0.18,2.35,0.53c0.85,0.35,1.53,0.77,2.03,1.26L44.4,12.5z M42.8,46.3V19.34H31.71
			c-0.71,0-1.32-0.25-1.81-0.74c-0.5-0.49-0.75-1.09-0.75-1.79V5.86H8.67V46.3H42.8z M32.56,6.08v9.9h10.02
			c-0.18-0.51-0.37-0.87-0.59-1.08l-8.34-8.24C33.44,6.44,33.08,6.25,32.56,6.08z"/>
	</g>
	<text transform="matrix(1 0 0 1 11.8796 40.3244)" class="st1 st2 st12"></text>
</g>
<g id="Layer_8_copy_5" class="st0">
	<g class="st1">
		<path d="M44.4,12.5c0.5,0.49,0.92,1.16,1.28,2c0.36,0.84,0.53,1.62,0.53,2.32v30.32c0,0.7-0.25,1.3-0.75,1.79
			c-0.5,0.49-1.1,0.74-1.81,0.74H7.82c-0.71,0-1.32-0.25-1.81-0.74c-0.5-0.49-0.75-1.09-0.75-1.79V5.02c0-0.7,0.25-1.3,0.75-1.79
			c0.5-0.49,1.1-0.74,1.81-0.74h23.88c0.71,0,1.49,0.18,2.35,0.53c0.85,0.35,1.53,0.77,2.03,1.26L44.4,12.5z M42.8,46.3V19.34H31.71
			c-0.71,0-1.32-0.25-1.81-0.74c-0.5-0.49-0.75-1.09-0.75-1.79V5.86H8.67V46.3H42.8z M32.56,6.08v9.9h10.02
			c-0.18-0.51-0.37-0.87-0.59-1.08l-8.34-8.24C33.44,6.44,33.08,6.25,32.56,6.08z"/>
	</g>
	<text transform="matrix(1 0 0 1 11.9606 40.264)" class="st1 st2 st13"></text>
</g>
<g id="Layer_14" class="st0">
</g>
<g id="bug" class="st0">
	<text transform="matrix(1 0 0 1 3.6263 44.3197)" class="st1 st2 st14"></text>
</g>
<g id="upgrade" class="st0">
	<path class="st1" d="M25.95,3C13.26,3,2.96,13.29,2.96,25.99s10.29,22.99,22.99,22.99s22.99-10.29,22.99-22.99S38.65,3,25.95,3z
		 M25.95,44.56c-10.26,0-18.57-8.31-18.57-18.57S15.69,7.42,25.95,7.42s18.57,8.31,18.57,18.57S36.21,44.56,25.95,44.56z"/>
	<g class="st1">
		<rect x="23.49" y="18.82" width="4.92" height="12.33"/>
		<rect x="23.49" y="32.65" width="4.92" height="2"/>
		<rect x="23.49" y="36.15" width="4.92" height="2"/>
		<rect x="23.49" y="39.65" width="4.92" height="2"/>
		<polygon points="25.95,19.15 20.08,19.15 23.02,14.74 25.95,10.32 28.89,14.74 31.82,19.15 		"/>
	</g>
</g>
<g id="crdit" class="st0">
	<text transform="matrix(1 0 0 1 4.535 40.7208)" class="st1 st2 st15"></text>
</g>
<g id="transport">
	<text transform="matrix(1 0 0 1 8.4515 41.0362)" class="st2 st16"></text>
</g>
<g id="meals" class="st0">
	<text transform="matrix(1 0 0 1 8.4515 41.0362)" class="st1 st2 st16"></text>
</g>
<g id="hotel" class="st0">
	<text transform="matrix(1 0 0 1 8.4515 41.0362)" class="st1 st2 st16"></text>
</g>
<g id="Excursion" class="st0">
	<g class="st1">
		<circle cx="29.13" cy="9.6" r="4.6"/>
		<path d="M14.41,16.43c0.19-0.97,0.58-3.32,0.91-5.36c-1.61-0.08-3.08,1.02-3.4,2.65l-0.58,2.91c1,0.23,2.23,0.52,2.88,0.66
			C14.27,17.09,14.33,16.82,14.41,16.43z"/>
		<path d="M32,30.17c1.22,0,6.15,0.33,7.89,0.42c1.74,0.09,2.54-2.21,1.93-3.1c-0.61-0.89-1.83-1.22-3.38-1.22
			c-1.55,0-6.06-0.28-6.06-0.28l-3.19-6.01l2.77,2.96c0,0,0.75-1.83,0.7-3.24c-0.05-1.41-1.22-2.3-2.91-2.68
			c-1.69-0.38-4.88-0.75-5.96-0.99c-0.67-0.15-1.71,0.46-2.48,1.35l0.35-1.74c0.36-1.79-0.81-3.53-2.6-3.89l-1.51-0.3
			c-0.33,2.05-0.72,4.39-0.92,5.39c-0.28,1.42-0.54,2.77-1.94,2.77c-0.13,0-0.28-0.01-0.44-0.04c-0.44-0.07-2.31-0.51-3.35-0.75
			l-0.49,2.45c-0.08-0.31-0.32-0.56-0.66-0.62L9.7,20.66c-0.46-0.09-0.91,0.21-1,0.67l-0.59,2.94c-0.09,0.46,0.21,0.91,0.67,1
			l0.06,0.01c0.33,0.07,0.65-0.07,0.85-0.32l-0.32,1.6c-0.36,1.79,0.81,3.53,2.6,3.89l3.24,0.65c1.26,0.25,2.49-0.25,3.24-1.19
			c-0.07,0.48-0.11,0.84-0.11,1.02c0,1.2,1.46,5.03,4.63,5.87h-4.61c-1.41,0-2.56,1.15-2.56,2.56v0.09c0,1.41,1.15,2.56,2.56,2.56
			h15.33v-4.84c0.92-0.03,1.62-0.06,1.95-0.08v11.78c0,1.32,1.15,2.38,2.56,2.38h0.09c1.41,0,2.56-1.07,2.56-2.38V34.58h-0.21
			c0-0.13,0-0.24,0-0.33c0-1.41-0.61-1.46-2.35-1.46s-5.4-0.56-7-0.56c-1.6,0-3.43,0.38-4.46-3.94c-1.03-4.32-1.41-5.78-1.41-5.78
			s3.66,5.96,4.04,6.57C29.84,29.7,30.78,30.17,32,30.17z"/>
	</g>
</g>
<g id="giftcard" class="st0">
	<path class="st1" d="M41.12,8.15H10.78c-3.22,0-5.83,2.61-5.83,5.83v24c0,3.22,2.61,5.83,5.83,5.83h30.33
		c3.22,0,5.83-2.61,5.83-5.83v-24C46.95,10.76,44.34,8.15,41.12,8.15z M44.58,35.36c0,3.56-2.89,6.44-6.44,6.44H13.77
		c-3.56,0-6.44-2.89-6.44-6.44V16.61c0-3.56,2.89-6.44,6.44-6.44h24.37c3.56,0,6.44,2.89,6.44,6.44V35.36z"/>
	<text transform="matrix(1 0 0 1 13.9508 36.3075)" class="st1 st2 st17"></text>
</g>
<g id="order-now" class="st0">
	<text transform="matrix(1 0 0 1 4.1387 41.5921)" class="st1 st2 st18"></text>
	<path class="st1" d="M21.17,28.04L21.17,28.04c-1.14,0.19-2.21-0.58-2.4-1.71l-2.4-14.47c-0.19-1.14,0.58-2.21,1.71-2.4h0
		c1.14-0.19,2.21,0.58,2.4,1.71l2.4,14.47C23.07,26.78,22.3,27.85,21.17,28.04z"/>
	<path class="st1" d="M29,28.04L29,28.04c-1.14,0.19-2.21-0.58-2.4-1.71l-2.4-14.47c-0.19-1.14,0.58-2.21,1.71-2.4h0
		c1.14-0.19,2.21,0.58,2.4,1.71l2.4,14.47C30.9,26.78,30.13,27.85,29,28.04z"/>
	<path class="st1" d="M36.83,28.04L36.83,28.04c-1.14,0.19-2.21-0.58-2.4-1.71l-2.4-14.47c-0.19-1.14,0.58-2.21,1.71-2.4h0
		c1.14-0.19,2.21,0.58,2.4,1.71l2.4,14.47C38.74,26.78,37.97,27.85,36.83,28.04z"/>
</g>
<g id="uploadflight" class="st0">
	<g class="st1">
		<rect x="34.68" y="29.12" width="3.63" height="9.11"/>
		<rect x="34.68" y="39.33" width="3.63" height="1.48"/>
		<rect x="34.68" y="41.92" width="3.63" height="1.48"/>
		<rect x="34.68" y="44.5" width="3.63" height="1.48"/>
		<path d="M44.03,22.34c-1.53-0.77-3.21-1.15-5.03-1.15h-5.75l-9.09-14.8c-0.13-0.25-0.36-0.38-0.68-0.4l-4.6,0
			c-0.26,0-0.48,0.11-0.65,0.32c-0.16,0.23-0.2,0.47-0.13,0.74l4.11,14.13h-9.3l-2.53-4.44c-0.01-0.04-0.05-0.09-0.13-0.16
			c-0.17-0.17-0.36-0.25-0.57-0.25l-3.47,0.02c-0.26,0.02-0.47,0.12-0.61,0.29c-0.17,0.22-0.23,0.43-0.18,0.65l1.13,7.92l-1.13,7.92
			c-0.02,0.24,0.04,0.46,0.2,0.66l0.04,0.04c0.17,0.17,0.36,0.25,0.58,0.25H9.7c0.32-0.01,0.56-0.15,0.7-0.41l2.53-4.44h9.3
			l-4.11,14.13c-0.08,0.23-0.05,0.45,0.09,0.66c0.02,0.05,0.06,0.1,0.11,0.14c0.14,0.14,0.29,0.22,0.45,0.23l4.02,0.57
			c0.37,0.04,0.64-0.09,0.81-0.38l9.62-15.37l5.78,0c1.82,0,3.5-0.38,5.03-1.15c1.53-0.77,2.35-1.72,2.44-2.87
			C46.38,24.06,45.56,23.1,44.03,22.34z M36.5,29.11h-4.33l2.17-3.54l2.17-3.54l2.17,3.54l2.17,3.54H36.5z"/>
	</g>
</g>
<g id="currency" class="st0">
	<g class="st1">
		<text transform="matrix(0.9609 -0.2769 0.2769 0.9609 5.9038 38.1895)" class="st2 st19"></text>
		<text transform="matrix(0.999 0.0457 -0.0457 0.999 16.8784 26.0643)" class="st2 st20"></text>
		<text transform="matrix(0.6543 0.7562 -0.7562 0.6543 20.7817 31.6721)" class="st2 st21"></text>
	</g>
</g>
</svg>
